<?xml version="1.0" encoding="utf-8"?>
<!-- Generator: Adobe Illustrator 16.0.0, SVG Export Plug-In . SVG Version: 6.00 Build 0)  -->
<!DOCTYPE svg PUBLIC "-//W3C//DTD SVG 1.1//EN" "http://www.w3.org/Graphics/SVG/1.1/DTD/svg11.dtd">
<svg version="1.1" id="Layer_1" xmlns="http://www.w3.org/2000/svg" xmlns:xlink="http://www.w3.org/1999/xlink" x="0px" y="0px"
	 width="319.5px" height="76.25px" viewBox="0 0 319.5 76.25" enable-background="new 0 0 319.5 76.25" xml:space="preserve">
<g>
	<g>
		<defs>
			<path id="SVGID_1_" d="M75.623,63.59c0,5.457-4.423,9.881-9.879,9.881H14.146c-5.456,0-9.879-4.424-9.879-9.881V11.994
				c0-5.457,4.423-9.88,9.879-9.88h51.597c5.456,0,9.879,4.423,9.879,9.88V63.59z"/>
		</defs>
		<clipPath id="SVGID_2_">
			<use xlink:href="#SVGID_1_"  overflow="visible"/>
		</clipPath>
		<rect x="-1.467" y="-4.107" clip-path="url(#SVGID_2_)" fill="#04A9C3" width="85.018" height="83.066"/>
		<g id="Linhas_Horizontal_7_" clip-path="url(#SVGID_2_)">
			<path fill="#FFFFFF" d="M76.865,49.978c0,0-0.037,0.067-0.106,0.193c-0.069,0.128-0.168,0.317-0.315,0.562
				c-0.283,0.49-0.786,1.196-1.657,1.847c-0.873,0.635-2.104,1.173-3.57,1.424c-0.367,0.051-0.744,0.132-1.137,0.153
				c-0.392,0.036-0.794,0.081-1.208,0.083c-0.833,0.033-1.686,0.016-2.586,0.021c-7.184,0.01-16.762,0.02-26.342,0.034
				c-9.578-0.002-19.157-0.004-26.341-0.006c-0.449,0-0.889,0-1.318,0c-0.219-0.002-0.42,0.004-0.645-0.005
				c-0.21-0.004-0.417-0.01-0.622-0.016c-0.405,0-0.814-0.039-1.209-0.072c-0.398-0.021-0.774-0.101-1.143-0.154
				c-1.472-0.25-2.689-0.84-3.554-1.475c-0.85-0.672-1.335-1.38-1.603-1.875c-0.138-0.246-0.234-0.439-0.3-0.569
				c-0.066-0.129-0.101-0.195-0.101-0.195s0.173,0.244,0.498,0.702c0.328,0.449,0.858,1.084,1.715,1.64
				c0.86,0.548,2.034,0.99,3.445,1.217c0.176,0.025,0.355,0.053,0.538,0.081c0.183,0.033,0.368,0.051,0.557,0.066
				c0.376,0.036,0.761,0.079,1.174,0.083c0.205,0.008,0.411,0.012,0.621,0.02c0.195,0.006,0.418,0.002,0.63,0.002
				c0.429,0,0.869,0,1.318,0c7.184,0,16.763-0.002,26.341-0.004c9.58,0.01,19.158,0.021,26.342,0.032
				c0.896-0.004,1.764,0.014,2.568-0.019c0.405,0,0.796-0.043,1.176-0.074c0.382-0.022,0.744-0.101,1.1-0.148
				c1.418-0.227,2.577-0.72,3.429-1.27c0.412-0.294,0.765-0.581,1.027-0.881c0.141-0.139,0.25-0.286,0.362-0.414
				c0.1-0.137,0.196-0.257,0.273-0.371c0.311-0.465,0.478-0.712,0.478-0.712L76.865,49.978z"/>
			<path fill="#FFFFFF" d="M76.863,37.6c0,0-0.037,0.064-0.109,0.188c-0.073,0.125-0.19,0.309-0.363,0.534
				c-0.182,0.219-0.417,0.486-0.751,0.737c-0.335,0.24-0.745,0.495-1.237,0.689c-0.12,0.058-0.249,0.101-0.38,0.148
				c-0.131,0.043-0.264,0.099-0.404,0.138c-0.282,0.071-0.572,0.166-0.883,0.221c-0.155,0.034-0.312,0.065-0.473,0.099
				c-0.163,0.024-0.328,0.048-0.496,0.075c-0.335,0.055-0.686,0.085-1.046,0.122c-1.45,0.132-3.08,0.103-4.843,0.11
				c-7.073,0.008-16.502,0.02-25.932,0.031c-9.43-0.002-18.858-0.004-25.931-0.004c-0.886-0.002-1.734-0.004-2.541-0.004
				c-0.801-0.006-1.581-0.025-2.305-0.094c-1.447-0.135-2.704-0.433-3.673-0.858c-0.121-0.055-0.237-0.11-0.35-0.161
				c-0.109-0.063-0.215-0.122-0.318-0.182c-0.104-0.055-0.198-0.12-0.288-0.186c-0.089-0.064-0.181-0.12-0.258-0.189
				c-0.326-0.252-0.552-0.522-0.725-0.741c-0.164-0.229-0.275-0.41-0.343-0.535c-0.07-0.125-0.104-0.191-0.104-0.191
				s0.045,0.059,0.131,0.172c0.088,0.112,0.217,0.28,0.404,0.479c0.195,0.192,0.441,0.42,0.771,0.63
				c0.333,0.207,0.732,0.414,1.212,0.569c0.947,0.345,2.179,0.513,3.589,0.629c0.706,0.058,1.455,0.097,2.266,0.106
				c0.796,0.012,1.65,0.002,2.532,0.006c7.073-0.002,16.501-0.004,25.931-0.004c9.43,0.01,18.859,0.021,25.932,0.029
				c1.77-0.002,3.386,0.03,4.8-0.096c1.415-0.117,2.638-0.338,3.581-0.687c0.476-0.166,0.864-0.385,1.188-0.596
				c0.324-0.211,0.56-0.441,0.745-0.635c0.177-0.202,0.301-0.366,0.384-0.481c0.083-0.116,0.126-0.175,0.126-0.175L76.863,37.6z"/>
			<path fill="#FFFFFF" d="M76.862,23.758c0,0-0.037,0.062-0.11,0.184c-0.036,0.061-0.092,0.136-0.154,0.226
				c-0.066,0.088-0.149,0.183-0.247,0.288c-0.199,0.208-0.481,0.428-0.844,0.628c-0.364,0.198-0.809,0.354-1.312,0.5
				c-1.011,0.275-2.265,0.429-3.697,0.506c-1.437,0.076-3.048,0.051-4.803,0.059c-7.022,0.009-16.387,0.02-25.751,0.031
				c-9.364-0.001-18.727-0.004-25.75-0.005c-0.878,0-1.721,0-2.521,0c-0.401-0.002-0.791-0.005-1.17-0.007
				c-0.382-0.011-0.753-0.019-1.113-0.038c-1.435-0.077-2.686-0.284-3.691-0.563c-0.499-0.155-0.938-0.325-1.292-0.531
				C4.05,24.833,3.778,24.61,3.59,24.401c-0.186-0.21-0.304-0.387-0.376-0.51c-0.07-0.124-0.106-0.188-0.106-0.188
				s0.046,0.057,0.132,0.168c0.091,0.109,0.227,0.27,0.43,0.447c0.205,0.175,0.488,0.351,0.839,0.512
				c0.353,0.163,0.789,0.276,1.277,0.385c0.986,0.205,2.217,0.287,3.63,0.349c0.353,0.012,0.718,0.025,1.092,0.038
				c0.379,0.006,0.769,0.012,1.169,0.018c0.799,0.002,1.639,0.002,2.516,0.003c7.023-0.001,16.387-0.003,25.75-0.004
				c9.364,0.01,18.729,0.022,25.751,0.03c1.758-0.003,3.365,0.025,4.779-0.045c1.417-0.061,2.643-0.195,3.624-0.406
				c0.486-0.119,0.915-0.247,1.259-0.414c0.345-0.164,0.616-0.343,0.81-0.52c0.193-0.18,0.32-0.333,0.406-0.443
				c0.085-0.115,0.128-0.173,0.128-0.173L76.862,23.758z"/>
			<path fill="#FFFFFF" d="M76.861,9.977c0,0-0.039,0.061-0.115,0.18c-0.037,0.059-0.103,0.133-0.173,0.22
				c-0.038,0.042-0.083,0.079-0.13,0.123c-0.047,0.045-0.1,0.091-0.162,0.128c-0.477,0.361-1.31,0.542-2.326,0.645
				c-1.023,0.112-2.263,0.145-3.681,0.164c-1.419,0.012-3.017,0.011-4.76,0.014c-6.973,0.008-16.271,0.019-25.57,0.031
				c-9.297-0.002-18.596-0.004-25.569-0.006c-0.871,0-1.707,0.001-2.502,0.002c-0.794,0.002-1.548,0.011-2.258-0.001
				c-1.419-0.018-2.658-0.104-3.679-0.221c-0.51-0.061-0.964-0.148-1.354-0.259c-0.195-0.05-0.371-0.121-0.53-0.188
				c-0.077-0.041-0.149-0.08-0.219-0.117c-0.069-0.037-0.126-0.088-0.184-0.126c-0.059-0.038-0.108-0.083-0.151-0.127
				c-0.044-0.043-0.087-0.08-0.122-0.121c-0.064-0.085-0.123-0.151-0.16-0.213C3.146,9.983,3.108,9.92,3.108,9.92
				s0.046,0.056,0.135,0.165c0.044,0.054,0.112,0.111,0.182,0.184c0.038,0.035,0.084,0.064,0.13,0.1
				c0.046,0.038,0.097,0.073,0.157,0.103c0.228,0.135,0.542,0.235,0.922,0.302c0.38,0.071,0.828,0.104,1.332,0.122
				c1.006,0.049,2.239,0.013,3.652,0.017c1.413,0.01,3.013,0.019,4.756,0.015c6.974-0.001,16.272-0.003,25.569-0.005
				c9.298,0.011,18.597,0.023,25.57,0.032c1.743,0,3.34,0,4.757,0c1.414-0.004,2.646-0.02,3.65-0.075
				c0.503-0.028,0.948-0.076,1.322-0.155c0.189-0.035,0.354-0.087,0.507-0.132c0.073-0.03,0.142-0.059,0.208-0.087
				c0.067-0.025,0.12-0.067,0.176-0.095c0.058-0.03,0.105-0.065,0.148-0.101c0.042-0.037,0.087-0.066,0.122-0.099
				c0.064-0.071,0.124-0.12,0.167-0.176c0.086-0.112,0.13-0.169,0.13-0.169L76.861,9.977z"/>
			<path fill="#FFFFFF" d="M76.861,7.415c0,0-0.039,0.061-0.115,0.18c-0.037,0.06-0.103,0.133-0.173,0.221
				c-0.038,0.042-0.083,0.079-0.13,0.123c-0.047,0.045-0.1,0.09-0.162,0.128c-0.477,0.361-1.31,0.542-2.326,0.644
				c-1.023,0.112-2.263,0.145-3.681,0.165c-1.419,0.012-3.017,0.01-4.76,0.014c-6.973,0.008-16.271,0.019-25.57,0.03
				c-9.297-0.001-18.596-0.003-25.569-0.005c-0.871,0-1.707,0.001-2.502,0.002c-0.794,0.002-1.548,0.009-2.258-0.001
				C8.196,8.897,6.957,8.812,5.936,8.694c-0.51-0.062-0.964-0.148-1.354-0.259c-0.195-0.051-0.371-0.122-0.53-0.188
				C3.976,8.206,3.904,8.167,3.834,8.13C3.765,8.094,3.708,8.042,3.65,8.004C3.591,7.966,3.542,7.921,3.499,7.876
				c-0.044-0.043-0.087-0.08-0.122-0.121c-0.064-0.085-0.123-0.15-0.16-0.212C3.146,7.422,3.108,7.357,3.108,7.357
				s0.046,0.057,0.135,0.167c0.044,0.053,0.112,0.11,0.182,0.182c0.038,0.035,0.084,0.064,0.13,0.101s0.097,0.072,0.157,0.101
				C3.94,8.045,4.255,8.144,4.635,8.211c0.38,0.07,0.828,0.104,1.332,0.121c1.006,0.049,2.239,0.014,3.652,0.017
				c1.413,0.011,3.013,0.019,4.756,0.016c6.974-0.002,16.272-0.004,25.569-0.005c9.298,0.011,18.597,0.021,25.57,0.03
				c1.743,0,3.34,0,4.757,0c1.414-0.003,2.646-0.019,3.65-0.074c0.503-0.028,0.948-0.076,1.322-0.156
				c0.189-0.034,0.354-0.087,0.507-0.131c0.073-0.031,0.142-0.06,0.208-0.087c0.067-0.026,0.12-0.066,0.176-0.096
				c0.058-0.03,0.105-0.064,0.148-0.101c0.042-0.036,0.087-0.065,0.122-0.098c0.064-0.071,0.124-0.12,0.167-0.177
				c0.086-0.112,0.13-0.169,0.13-0.169L76.861,7.415z"/>
			<path fill="#FFFFFF" d="M76.861,5.157c0,0-0.039,0.062-0.115,0.182c-0.037,0.059-0.103,0.132-0.173,0.22
				c-0.038,0.042-0.083,0.079-0.13,0.123s-0.1,0.089-0.162,0.127c-0.477,0.361-1.31,0.542-2.326,0.645
				c-1.023,0.111-2.263,0.144-3.681,0.165c-1.419,0.013-3.017,0.009-4.76,0.013c-6.973,0.008-16.271,0.021-25.57,0.031
				c-9.297-0.001-18.596-0.003-25.569-0.004c-0.871,0.001-1.707,0.001-2.502,0.001c-0.794,0.002-1.548,0.01-2.258,0
				C8.196,6.641,6.957,6.555,5.936,6.437C5.426,6.376,4.972,6.29,4.583,6.179c-0.195-0.05-0.371-0.124-0.53-0.188
				C3.976,5.949,3.904,5.911,3.834,5.873C3.765,5.837,3.708,5.786,3.65,5.748c-0.059-0.04-0.108-0.083-0.151-0.127
				C3.455,5.576,3.411,5.539,3.377,5.499c-0.064-0.084-0.123-0.151-0.16-0.211C3.146,5.164,3.108,5.102,3.108,5.102
				s0.046,0.055,0.135,0.165c0.044,0.055,0.112,0.11,0.182,0.184c0.038,0.034,0.084,0.065,0.13,0.101
				c0.046,0.036,0.097,0.071,0.157,0.101C3.94,5.788,4.255,5.888,4.635,5.954c0.38,0.071,0.828,0.104,1.332,0.122
				c1.006,0.05,2.239,0.013,3.652,0.018c1.413,0.009,3.013,0.019,4.756,0.014c6.974-0.001,16.272-0.003,25.569-0.005
				c9.298,0.012,18.597,0.024,25.57,0.032c1.743,0,3.34-0.001,4.757-0.001c1.414-0.002,2.646-0.018,3.65-0.073
				c0.503-0.028,0.948-0.077,1.322-0.157c0.189-0.032,0.354-0.084,0.507-0.131c0.073-0.03,0.142-0.059,0.208-0.087
				c0.067-0.025,0.12-0.066,0.176-0.097c0.058-0.029,0.105-0.064,0.148-0.099c0.042-0.036,0.087-0.066,0.122-0.099
				c0.064-0.07,0.124-0.12,0.167-0.177c0.086-0.11,0.13-0.168,0.13-0.168L76.861,5.157z"/>
			<path fill="#FFFFFF" d="M76.861,3.206c0,0-0.039,0.062-0.115,0.181c-0.037,0.06-0.103,0.132-0.173,0.22
				c-0.038,0.041-0.083,0.079-0.13,0.123c-0.047,0.045-0.1,0.089-0.162,0.128c-0.477,0.36-1.31,0.542-2.326,0.644
				c-1.023,0.112-2.263,0.145-3.681,0.165c-1.419,0.013-3.017,0.009-4.76,0.013C58.542,4.688,49.243,4.7,39.944,4.71
				c-9.297-0.001-18.596-0.003-25.569-0.003c-0.871,0-1.707,0-2.502,0c-0.794,0.002-1.548,0.01-2.258,0
				C8.196,4.689,6.957,4.604,5.936,4.486c-0.51-0.062-0.964-0.148-1.354-0.259c-0.195-0.05-0.371-0.123-0.53-0.187
				C3.976,3.998,3.904,3.958,3.834,3.921C3.765,3.887,3.708,3.834,3.65,3.796c-0.059-0.04-0.108-0.083-0.151-0.127
				C3.455,3.625,3.411,3.587,3.377,3.547c-0.064-0.084-0.123-0.151-0.16-0.212C3.146,3.212,3.108,3.15,3.108,3.15
				s0.046,0.056,0.135,0.165c0.044,0.055,0.112,0.11,0.182,0.183C3.463,3.533,3.51,3.563,3.556,3.6
				c0.046,0.037,0.097,0.071,0.157,0.1C3.94,3.836,4.255,3.936,4.635,4.003c0.38,0.07,0.828,0.104,1.332,0.121
				c1.006,0.05,2.239,0.013,3.652,0.018c1.413,0.009,3.013,0.019,4.756,0.014c6.974-0.001,16.272-0.003,25.569-0.004
				c9.298,0.011,18.597,0.022,25.57,0.032c1.743-0.001,3.34-0.001,4.757-0.002c1.414-0.002,2.646-0.018,3.65-0.073
				c0.503-0.027,0.948-0.077,1.322-0.157c0.189-0.033,0.354-0.084,0.507-0.131c0.073-0.03,0.142-0.059,0.208-0.087
				c0.067-0.026,0.12-0.066,0.176-0.097c0.058-0.028,0.105-0.064,0.148-0.1c0.042-0.034,0.087-0.065,0.122-0.099
				c0.064-0.07,0.124-0.119,0.167-0.176c0.086-0.11,0.13-0.168,0.13-0.168L76.861,3.206z"/>
			<path fill="#FFFFFF" d="M76.861,1.986c0,0-0.039,0.061-0.115,0.18c-0.037,0.06-0.103,0.132-0.173,0.221
				c-0.038,0.042-0.083,0.078-0.13,0.123c-0.047,0.045-0.1,0.089-0.162,0.128c-0.477,0.361-1.31,0.542-2.326,0.644
				c-1.023,0.112-2.263,0.146-3.681,0.165c-1.419,0.014-3.017,0.01-4.76,0.014c-6.973,0.009-16.271,0.02-25.57,0.03
				c-9.297-0.001-18.596-0.003-25.569-0.005c-0.871,0.001-1.707,0.002-2.502,0.002c-0.794,0.002-1.548,0.01-2.258,0
				C8.196,3.469,6.957,3.384,5.936,3.267c-0.51-0.062-0.964-0.149-1.354-0.259c-0.195-0.051-0.371-0.123-0.53-0.188
				c-0.077-0.041-0.149-0.08-0.219-0.118C3.765,2.667,3.708,2.615,3.65,2.576C3.591,2.537,3.542,2.493,3.499,2.449
				C3.455,2.405,3.411,2.368,3.377,2.327c-0.064-0.085-0.123-0.151-0.16-0.212C3.146,1.993,3.108,1.931,3.108,1.931
				s0.046,0.056,0.135,0.165c0.044,0.054,0.112,0.11,0.182,0.182c0.038,0.035,0.084,0.066,0.13,0.102
				C3.602,2.416,3.652,2.451,3.713,2.48C3.94,2.617,4.255,2.717,4.635,2.783c0.38,0.071,0.828,0.104,1.332,0.122
				c1.006,0.049,2.239,0.013,3.652,0.017c1.413,0.01,3.013,0.02,4.756,0.015c6.974-0.002,16.272-0.004,25.569-0.005
				c9.298,0.012,18.597,0.022,25.57,0.031c1.743-0.001,3.34-0.001,4.757-0.001c1.414-0.002,2.646-0.019,3.65-0.074
				c0.503-0.028,0.948-0.076,1.322-0.156c0.189-0.033,0.354-0.086,0.507-0.131c0.073-0.03,0.142-0.059,0.208-0.086
				c0.067-0.026,0.12-0.067,0.176-0.097c0.058-0.03,0.105-0.064,0.148-0.1s0.087-0.066,0.122-0.099
				c0.064-0.071,0.124-0.119,0.167-0.176c0.086-0.111,0.13-0.17,0.13-0.17L76.861,1.986z"/>
			<path fill="#FFFFFF" d="M76.207,0.422c0,0-0.039,0.06-0.114,0.176c-0.036,0.058-0.101,0.129-0.169,0.213
				c-0.035,0.042-0.082,0.077-0.127,0.12c-0.047,0.042-0.095,0.088-0.155,0.125c-0.464,0.348-1.277,0.536-2.274,0.633
				c-1.003,0.109-2.222,0.134-3.615,0.161c-1.394,0.014-2.965,0.01-4.677,0.013C58.221,1.871,49.082,1.88,39.944,1.89
				c-9.137-0.002-18.275-0.003-25.129-0.004c-1.714-0.006-3.283,0.011-4.678-0.001C8.744,1.866,7.526,1.789,6.524,1.677
				c-0.5-0.062-0.947-0.139-1.328-0.251c-0.38-0.105-0.697-0.248-0.913-0.42C4.225,0.968,4.178,0.922,4.136,0.881
				c-0.043-0.043-0.087-0.078-0.12-0.119C3.952,0.68,3.893,0.616,3.858,0.555c-0.072-0.117-0.109-0.18-0.109-0.18
				S3.793,0.431,3.88,0.539c0.041,0.054,0.108,0.109,0.177,0.183c0.035,0.036,0.083,0.063,0.127,0.1
				c0.046,0.037,0.093,0.075,0.153,0.104c0.448,0.277,1.225,0.411,2.214,0.45c0.99,0.057,2.201,0.031,3.59,0.038
				c1.39,0.011,2.962,0.018,4.675,0.015c6.854-0.001,15.992-0.002,25.129-0.004c9.138,0.01,18.277,0.019,25.13,0.025
				c1.713,0.001,3.284,0.007,4.674-0.001c1.39,0.001,2.601-0.027,3.59-0.086c0.248-0.011,0.478-0.042,0.698-0.061
				c0.215-0.034,0.42-0.057,0.602-0.104c0.369-0.077,0.671-0.182,0.88-0.323c0.057-0.029,0.102-0.067,0.145-0.103
				c0.042-0.035,0.087-0.064,0.119-0.1c0.065-0.07,0.125-0.119,0.166-0.176c0.084-0.11,0.127-0.167,0.127-0.167L76.207,0.422z"/>
			<path fill="#FFFFFF" d="M76.194-0.563c0,0-0.04,0.059-0.115,0.175c-0.037,0.058-0.102,0.126-0.169,0.209
				c-0.034,0.042-0.081,0.075-0.126,0.118c-0.047,0.042-0.095,0.087-0.156,0.123c-0.458,0.341-1.268,0.525-2.264,0.619
				c-1.002,0.104-2.22,0.129-3.612,0.154c-1.394,0.012-2.964,0.008-4.677,0.012c-6.854,0.005-15.993,0.012-25.13,0.021
				c-9.137-0.002-18.275-0.004-25.129-0.004c-1.714-0.005-3.283,0.01-4.678-0.002C8.745,0.845,7.527,0.777,6.526,0.67
				C6.027,0.613,5.58,0.539,5.2,0.431C4.821,0.328,4.505,0.19,4.288,0.021C4.23-0.015,4.184-0.061,4.14-0.102
				C4.098-0.143,4.053-0.178,4.02-0.218C3.956-0.299,3.896-0.363,3.86-0.422C3.787-0.54,3.749-0.601,3.749-0.601
				s0.044,0.056,0.129,0.166C3.918-0.38,3.984-0.324,4.053-0.25c0.035,0.037,0.081,0.066,0.125,0.103
				c0.046,0.037,0.093,0.076,0.153,0.105c0.22,0.143,0.532,0.249,0.906,0.324c0.185,0.044,0.393,0.064,0.609,0.095
				c0.22,0.018,0.453,0.043,0.701,0.054c0.992,0.06,2.203,0.046,3.593,0.053c1.39,0.011,2.961,0.016,4.675,0.014
				c6.854-0.002,15.992-0.003,25.129-0.004c9.138,0.007,18.277,0.016,25.13,0.021c1.713,0,3.283,0.007,4.675-0.003
				c1.39,0,2.602-0.028,3.591-0.092c0.249-0.013,0.479-0.044,0.7-0.065c0.216-0.034,0.421-0.058,0.604-0.104
				c0.37-0.08,0.674-0.188,0.886-0.332c0.057-0.031,0.102-0.069,0.146-0.105c0.042-0.037,0.088-0.065,0.12-0.102
				c0.065-0.071,0.125-0.123,0.166-0.179c0.083-0.111,0.125-0.168,0.125-0.168L76.194-0.563z"/>
			<path fill="#FFFFFF" d="M76.188-1.589c0,0-0.04,0.059-0.116,0.174c-0.038,0.058-0.102,0.125-0.17,0.206
				c-0.034,0.042-0.081,0.075-0.126,0.118C75.73-1.05,75.682-1.005,75.622-0.97c-0.456,0.339-1.263,0.522-2.259,0.613
				c-1.002,0.102-2.219,0.126-3.611,0.15c-1.394,0.012-2.964,0.009-4.677,0.011c-6.854,0.005-15.993,0.012-25.13,0.019
				C30.807-0.18,21.669-0.181,14.815-0.182c-1.714-0.004-3.283,0.01-4.677-0.002C8.745-0.2,7.528-0.263,6.527-0.366
				C6.028-0.421,5.582-0.494,5.203-0.601c-0.38-0.1-0.695-0.237-0.911-0.404C4.233-1.041,4.188-1.086,4.143-1.126
				c-0.042-0.042-0.088-0.076-0.12-0.116C3.959-1.324,3.899-1.386,3.862-1.445C3.788-1.562,3.749-1.622,3.749-1.622
				s0.043,0.058,0.126,0.166C3.916-1.4,3.98-1.343,4.05-1.269c0.034,0.038,0.081,0.067,0.125,0.104
				C4.221-1.13,4.269-1.089,4.328-1.059c0.448,0.286,1.229,0.432,2.219,0.482c0.991,0.064,2.204,0.056,3.594,0.063
				c1.39,0.011,2.961,0.015,4.675,0.012c6.854-0.001,15.992-0.002,25.129-0.002c9.138,0.007,18.277,0.013,25.13,0.018
				c1.713,0,3.283,0.006,4.675-0.004c1.39-0.002,2.602-0.029,3.593-0.097c0.249-0.013,0.481-0.045,0.7-0.066
				c0.216-0.035,0.422-0.059,0.606-0.107c0.37-0.079,0.677-0.189,0.889-0.335c0.057-0.029,0.103-0.069,0.147-0.104
				c0.042-0.037,0.088-0.067,0.121-0.103c0.065-0.073,0.125-0.126,0.165-0.184c0.082-0.111,0.125-0.168,0.125-0.168L76.188-1.589z"
				/>
			<path fill="#FFFFFF" d="M76.181-2.327c0,0-0.04,0.06-0.117,0.174c-0.037,0.059-0.102,0.124-0.169,0.205
				c-0.034,0.041-0.08,0.074-0.125,0.116c-0.046,0.041-0.093,0.085-0.154,0.121c-0.455,0.335-1.259,0.516-2.255,0.605
				c-1,0.1-2.217,0.125-3.61,0.145c-1.393,0.012-2.963,0.008-4.676,0.01c-6.854,0.001-15.993,0.004-25.13,0.008
				c-9.137,0.001-18.275,0.004-25.129,0.007c-1.714-0.004-3.283,0.008-4.677-0.004c-1.393-0.016-2.61-0.073-3.609-0.175
				c-0.251-0.02-0.485-0.064-0.707-0.094c-0.22-0.044-0.428-0.077-0.618-0.133c-0.379-0.1-0.693-0.234-0.911-0.4
				c-0.059-0.034-0.104-0.08-0.148-0.121S4.058-1.937,4.024-1.976C3.961-2.058,3.899-2.12,3.863-2.178
				C3.788-2.294,3.749-2.354,3.749-2.354s0.043,0.058,0.126,0.168c0.04,0.056,0.104,0.114,0.172,0.188
				c0.034,0.037,0.081,0.067,0.126,0.104c0.045,0.038,0.092,0.078,0.152,0.107c0.22,0.147,0.533,0.254,0.907,0.335
				c0.186,0.044,0.393,0.067,0.611,0.1c0.221,0.02,0.454,0.047,0.702,0.059c0.992,0.067,2.205,0.062,3.596,0.072
				c1.391,0.01,2.961,0.013,4.675,0.012c6.854,0.002,15.992,0.004,25.129,0.008c9.138,0.002,18.277,0.005,25.13,0.007
				c1.713-0.001,3.283,0.004,4.675-0.007c1.391-0.004,2.603-0.032,3.595-0.101c0.248-0.013,0.48-0.045,0.701-0.067
				c0.216-0.036,0.422-0.061,0.606-0.109c0.373-0.081,0.68-0.192,0.893-0.338c0.058-0.032,0.104-0.071,0.147-0.107
				c0.043-0.038,0.089-0.067,0.122-0.104c0.064-0.074,0.125-0.127,0.165-0.185c0.082-0.112,0.125-0.169,0.125-0.169L76.181-2.327z"
				/>
			<path fill="#FFFFFF" d="M76.053-2.93c0,0-0.041,0.059-0.118,0.172c-0.037,0.058-0.101,0.122-0.167,0.201
				c-0.034,0.039-0.08,0.073-0.125,0.114c-0.044,0.04-0.092,0.083-0.151,0.117c-0.449,0.328-1.248,0.504-2.238,0.587
				c-0.997,0.09-2.208,0.123-3.596,0.142c-1.389,0.012-2.955,0.008-4.662,0.009c-6.832,0.001-15.942,0.003-25.052,0.004
				c-9.109,0.002-18.218,0.004-25.05,0.006c-1.708-0.004-3.274,0.008-4.663-0.007c-1.388-0.013-2.601-0.061-3.595-0.16
				C6.14-1.792,5.696-1.856,5.318-1.957C4.941-2.052,4.627-2.182,4.412-2.344C4.353-2.378,4.307-2.423,4.263-2.463
				C4.22-2.503,4.174-2.536,4.143-2.575c-0.065-0.08-0.126-0.141-0.163-0.2C3.902-2.89,3.862-2.949,3.862-2.949
				s0.042,0.057,0.125,0.167c0.039,0.058,0.103,0.116,0.17,0.19c0.034,0.039,0.08,0.067,0.124,0.106
				c0.046,0.037,0.092,0.079,0.151,0.108c0.444,0.297,1.227,0.458,2.214,0.521c0.991,0.071,2.2,0.076,3.587,0.087
				c1.388,0.004,2.953,0.007,4.661,0.01c6.832,0.001,15.941,0.002,25.05,0.004c9.11,0.002,18.22,0.004,25.052,0.005
				c1.707,0,3.273,0.005,4.66-0.007c1.387-0.005,2.597-0.025,3.586-0.104c0.494-0.04,0.936-0.094,1.307-0.186
				c0.373-0.084,0.681-0.199,0.895-0.349c0.058-0.031,0.104-0.073,0.147-0.108c0.043-0.039,0.088-0.069,0.121-0.105
				c0.066-0.075,0.127-0.131,0.166-0.188c0.081-0.111,0.123-0.169,0.123-0.169L76.053-2.93z"/>
			<path fill="#FFFFFF" d="M75.938-3.342c0,0-0.04,0.058-0.117,0.172c-0.036,0.057-0.1,0.121-0.167,0.2
				c-0.033,0.041-0.08,0.073-0.123,0.114c-0.045,0.039-0.092,0.083-0.151,0.117c-0.447,0.328-1.243,0.505-2.23,0.588
				c-0.993,0.09-2.201,0.123-3.585,0.142C68.18-1.995,66.62-2,64.917-1.999c-6.811,0.002-15.892,0.004-24.973,0.005
				c-9.081,0.002-18.161,0.004-24.972,0.006c-1.703-0.004-3.264,0.008-4.648-0.007C8.941-2.008,7.733-2.058,6.741-2.155
				C6.246-2.206,5.803-2.27,5.427-2.37C5.052-2.466,4.739-2.594,4.524-2.758C4.465-2.792,4.42-2.836,4.376-2.875
				C4.333-2.916,4.287-2.949,4.255-2.988c-0.064-0.08-0.126-0.14-0.162-0.198C4.016-3.301,3.977-3.361,3.977-3.361
				s0.042,0.057,0.124,0.167c0.039,0.057,0.103,0.115,0.17,0.189c0.033,0.039,0.08,0.068,0.123,0.105
				c0.045,0.038,0.092,0.079,0.15,0.109c0.443,0.296,1.222,0.458,2.207,0.521c0.988,0.071,2.193,0.076,3.576,0.088
				c1.383,0.003,2.944,0.005,4.646,0.009c6.811,0.002,15.891,0.003,24.972,0.005c9.081,0.002,18.162,0.004,24.973,0.005
				c1.702-0.001,3.264,0.004,4.645-0.007c1.383-0.006,2.589-0.026,3.575-0.105c0.494-0.042,0.932-0.095,1.302-0.187
				c0.371-0.085,0.678-0.198,0.892-0.349c0.058-0.031,0.103-0.072,0.147-0.108c0.043-0.039,0.089-0.068,0.121-0.105
				c0.064-0.074,0.126-0.129,0.165-0.188c0.08-0.111,0.122-0.168,0.122-0.168L75.938-3.342z"/>
			<path fill="#FFFFFF" d="M76.865,61.932c0,0-0.035,0.066-0.102,0.201c-0.066,0.136-0.149,0.327-0.271,0.593
				c-0.241,0.522-0.593,1.315-1.276,2.185c-0.178,0.209-0.352,0.445-0.578,0.652c-0.11,0.106-0.217,0.221-0.337,0.328
				c-0.125,0.098-0.252,0.202-0.383,0.307c-0.065,0.052-0.128,0.108-0.199,0.156c-0.071,0.047-0.144,0.095-0.217,0.142
				c-0.146,0.093-0.295,0.191-0.449,0.284c-0.161,0.081-0.326,0.162-0.494,0.244c-0.083,0.042-0.167,0.083-0.252,0.127
				c-0.088,0.035-0.178,0.064-0.269,0.1c-0.181,0.063-0.365,0.133-0.553,0.199c-0.188,0.062-0.387,0.099-0.583,0.15
				c-0.1,0.025-0.199,0.049-0.3,0.075c-0.1,0.025-0.202,0.049-0.306,0.059c-0.208,0.029-0.417,0.06-0.63,0.089
				c-0.107,0.014-0.214,0.029-0.321,0.045c-0.109,0.004-0.218,0.01-0.327,0.017c-0.22,0.01-0.442,0.02-0.666,0.029
				c-0.449,0.02-0.895,0.006-1.358,0.012c-7.377,0.008-17.214,0.02-27.051,0.029c-9.836,0-19.673-0.002-27.05-0.004
				c-0.23,0-0.458,0-0.684,0c-0.113,0-0.225,0-0.337,0H11.79h-0.054l-0.042-0.002l-0.166-0.008c-0.221-0.01-0.439-0.02-0.654-0.027
				c-0.108-0.006-0.215-0.012-0.321-0.016c-0.11-0.014-0.218-0.028-0.326-0.044c-0.216-0.027-0.429-0.057-0.64-0.085
				c-0.105-0.01-0.208-0.033-0.309-0.059c-0.101-0.023-0.201-0.048-0.301-0.073c-0.199-0.051-0.397-0.087-0.587-0.147
				c-0.188-0.069-0.373-0.136-0.555-0.203c-0.091-0.031-0.182-0.063-0.27-0.099c-0.086-0.041-0.17-0.085-0.255-0.126
				c-0.167-0.087-0.331-0.17-0.492-0.253c-0.154-0.097-0.301-0.197-0.447-0.291c-0.072-0.05-0.145-0.099-0.214-0.146
				c-0.07-0.049-0.132-0.108-0.197-0.161c-0.128-0.108-0.253-0.213-0.376-0.317c-0.118-0.107-0.223-0.226-0.331-0.334
				c-0.222-0.211-0.393-0.447-0.569-0.658c-0.09-0.104-0.156-0.221-0.231-0.327c-0.071-0.108-0.145-0.211-0.206-0.315
				c-0.119-0.213-0.243-0.404-0.334-0.596c-0.197-0.374-0.337-0.704-0.449-0.97c-0.112-0.267-0.198-0.47-0.259-0.605
				c-0.064-0.136-0.097-0.205-0.097-0.205s0.043,0.065,0.125,0.189c0.083,0.126,0.189,0.319,0.333,0.569
				c0.294,0.493,0.694,1.244,1.398,2.031c0.183,0.189,0.359,0.402,0.583,0.587c0.109,0.095,0.215,0.199,0.333,0.292
				C6,65.642,6.125,65.73,6.252,65.823c0.064,0.045,0.124,0.097,0.193,0.138c0.069,0.042,0.139,0.081,0.21,0.122
				c0.139,0.083,0.281,0.17,0.425,0.255c0.154,0.07,0.31,0.144,0.468,0.217c0.079,0.037,0.158,0.075,0.238,0.114
				C7.87,66.7,7.955,66.729,8.04,66.76c0.171,0.061,0.344,0.122,0.52,0.186c0.177,0.059,0.365,0.094,0.552,0.146
				c0.093,0.021,0.188,0.045,0.282,0.069c0.095,0.027,0.191,0.049,0.29,0.057c0.195,0.029,0.393,0.058,0.593,0.087
				c0.1,0.016,0.201,0.029,0.302,0.043c0.106,0.007,0.213,0.011,0.32,0.017c0.216,0.01,0.434,0.02,0.654,0.029l0.166,0.006
				L11.76,67.4c0.002,0,0.027,0.002,0.009,0h0.021h0.083c0.112,0,0.224,0,0.337,0c0.226,0,0.454,0,0.684,0
				c7.377,0,17.214-0.002,27.05-0.004c9.837,0.012,19.673,0.021,27.051,0.031c0.928,0.002,1.798,0.006,2.613-0.093
				c0.203-0.027,0.404-0.055,0.603-0.082c0.1-0.011,0.196-0.032,0.292-0.058c0.096-0.021,0.191-0.045,0.285-0.069
				c0.188-0.049,0.377-0.082,0.556-0.14c0.176-0.063,0.351-0.126,0.521-0.189c0.085-0.029,0.172-0.057,0.255-0.091
				c0.08-0.037,0.161-0.076,0.239-0.114c0.159-0.077,0.314-0.151,0.467-0.225c0.145-0.089,0.285-0.176,0.424-0.262
				c0.07-0.044,0.139-0.085,0.208-0.129c0.067-0.043,0.126-0.095,0.189-0.14c0.125-0.097,0.247-0.189,0.366-0.282
				c0.116-0.097,0.219-0.203,0.326-0.3c0.221-0.187,0.395-0.401,0.573-0.595c0.17-0.199,0.32-0.398,0.459-0.588
				c0.128-0.197,0.261-0.372,0.362-0.552c0.219-0.349,0.388-0.658,0.523-0.913c0.135-0.25,0.244-0.457,0.322-0.581
				c0.079-0.127,0.12-0.191,0.12-0.191L76.865,61.932z"/>
			<path fill="#FFFFFF" d="M76.865,63.942c0,0-0.035,0.069-0.102,0.203c-0.066,0.134-0.149,0.325-0.271,0.591
				c-0.241,0.525-0.593,1.317-1.276,2.187c-0.178,0.209-0.352,0.446-0.578,0.653c-0.11,0.106-0.217,0.221-0.337,0.325
				c-0.125,0.103-0.252,0.205-0.383,0.31c-0.065,0.051-0.128,0.108-0.199,0.155c-0.071,0.048-0.144,0.093-0.217,0.143
				c-0.146,0.092-0.295,0.188-0.449,0.283c-0.161,0.081-0.326,0.162-0.494,0.245c-0.083,0.041-0.167,0.082-0.252,0.126
				c-0.088,0.033-0.178,0.064-0.269,0.101c-0.181,0.062-0.365,0.13-0.553,0.197c-0.188,0.062-0.387,0.101-0.583,0.151
				c-0.1,0.025-0.199,0.05-0.3,0.073c-0.1,0.027-0.202,0.051-0.306,0.061c-0.208,0.03-0.417,0.06-0.63,0.089
				c-0.107,0.014-0.214,0.03-0.321,0.044c-0.109,0.006-0.218,0.012-0.327,0.016c-0.22,0.012-0.442,0.021-0.666,0.031
				c-0.449,0.02-0.895,0.006-1.358,0.01c-7.377,0.01-17.214,0.021-27.051,0.031c-9.836,0-19.673-0.002-27.05-0.004
				c-0.23,0-0.458,0-0.684,0c-0.113,0-0.225,0-0.337,0H11.79l-0.054-0.002h-0.042l-0.166-0.008c-0.221-0.01-0.439-0.02-0.654-0.029
				c-0.108-0.004-0.215-0.01-0.321-0.014c-0.11-0.016-0.218-0.029-0.326-0.043c-0.216-0.03-0.429-0.06-0.64-0.087
				c-0.105-0.01-0.208-0.032-0.309-0.058c-0.101-0.025-0.201-0.049-0.301-0.073c-0.199-0.051-0.397-0.086-0.587-0.147
				c-0.188-0.069-0.373-0.136-0.555-0.203c-0.091-0.033-0.182-0.062-0.27-0.099c-0.086-0.043-0.17-0.085-0.255-0.128
				c-0.167-0.085-0.331-0.17-0.492-0.252c-0.154-0.097-0.301-0.197-0.447-0.292C6.3,68.48,6.228,68.432,6.158,68.384
				c-0.07-0.051-0.132-0.108-0.197-0.161c-0.128-0.108-0.253-0.213-0.376-0.317c-0.118-0.106-0.223-0.225-0.331-0.333
				c-0.222-0.211-0.393-0.448-0.569-0.659c-0.09-0.104-0.156-0.223-0.231-0.327c-0.071-0.108-0.145-0.211-0.206-0.317
				c-0.119-0.211-0.243-0.404-0.334-0.594c-0.197-0.374-0.337-0.703-0.449-0.97c-0.112-0.266-0.198-0.471-0.259-0.605
				c-0.064-0.136-0.097-0.205-0.097-0.205s0.043,0.065,0.125,0.189c0.083,0.124,0.189,0.319,0.333,0.57
				c0.294,0.492,0.694,1.244,1.398,2.03c0.183,0.189,0.359,0.402,0.583,0.588c0.109,0.095,0.215,0.197,0.333,0.292
				C6,67.652,6.125,67.745,6.252,67.836c0.064,0.046,0.124,0.097,0.193,0.138c0.069,0.04,0.139,0.081,0.21,0.123
				c0.139,0.082,0.281,0.167,0.425,0.254c0.154,0.071,0.31,0.144,0.468,0.217c0.079,0.037,0.158,0.077,0.238,0.114
				c0.083,0.031,0.168,0.06,0.253,0.091c0.171,0.062,0.344,0.122,0.52,0.186c0.177,0.059,0.365,0.095,0.552,0.144
				c0.093,0.023,0.188,0.048,0.282,0.071c0.095,0.025,0.191,0.049,0.29,0.059c0.195,0.028,0.393,0.056,0.593,0.085
				c0.1,0.016,0.201,0.03,0.302,0.046c0.106,0.004,0.213,0.008,0.32,0.014c0.216,0.01,0.434,0.018,0.654,0.027l0.166,0.008
				l0.041,0.002c0.002,0,0.027,0.002,0.009,0h0.021h0.083c0.112,0,0.224,0,0.337,0c0.226,0,0.454,0,0.684,0
				c7.377,0,17.214-0.002,27.05-0.004c9.837,0.01,19.673,0.021,27.051,0.031c0.928,0.002,1.798,0.005,2.613-0.092
				c0.203-0.028,0.404-0.056,0.603-0.083c0.1-0.01,0.196-0.032,0.292-0.058c0.096-0.023,0.191-0.045,0.285-0.068
				c0.188-0.05,0.377-0.085,0.556-0.143c0.176-0.062,0.351-0.124,0.521-0.188c0.085-0.029,0.172-0.059,0.255-0.09
				c0.08-0.04,0.161-0.077,0.239-0.115c0.159-0.076,0.314-0.151,0.467-0.225c0.145-0.091,0.285-0.175,0.424-0.262
				c0.07-0.044,0.139-0.085,0.208-0.128c0.067-0.044,0.126-0.095,0.189-0.143c0.125-0.095,0.247-0.188,0.366-0.279
				c0.116-0.097,0.219-0.203,0.326-0.3c0.221-0.189,0.395-0.402,0.573-0.596c0.17-0.199,0.32-0.398,0.459-0.588
				c0.128-0.197,0.261-0.372,0.362-0.554c0.219-0.349,0.388-0.656,0.523-0.911c0.135-0.25,0.244-0.457,0.322-0.581
				c0.079-0.126,0.12-0.193,0.12-0.193L76.865,63.942z"/>
			<path fill="#FFFFFF" d="M76.865,65.771c0,0-0.035,0.069-0.102,0.203c-0.066,0.137-0.149,0.327-0.271,0.592
				c-0.241,0.524-0.593,1.317-1.276,2.187c-0.178,0.209-0.352,0.445-0.578,0.652c-0.11,0.106-0.217,0.221-0.337,0.325
				c-0.125,0.103-0.252,0.205-0.383,0.31c-0.065,0.052-0.128,0.108-0.199,0.158c-0.071,0.045-0.144,0.093-0.217,0.14
				c-0.146,0.093-0.295,0.189-0.449,0.284c-0.161,0.079-0.326,0.161-0.494,0.244c-0.083,0.042-0.167,0.085-0.252,0.126
				c-0.088,0.036-0.178,0.065-0.269,0.099c-0.181,0.067-0.365,0.132-0.553,0.201c-0.188,0.062-0.387,0.099-0.583,0.15
				c-0.1,0.023-0.199,0.049-0.3,0.072c-0.1,0.028-0.202,0.05-0.306,0.062c-0.208,0.029-0.417,0.057-0.63,0.089
				c-0.107,0.014-0.214,0.029-0.321,0.045c-0.109,0.004-0.218,0.01-0.327,0.014c-0.22,0.01-0.442,0.022-0.666,0.032
				c-0.449,0.02-0.895,0.006-1.358,0.012c-7.377,0.008-17.214,0.02-27.051,0.031c-9.836-0.002-19.673-0.004-27.05-0.006
				c-0.23,0-0.458,0-0.684,0c-0.113,0-0.225,0-0.337,0H11.79l-0.054-0.002l-0.042-0.002l-0.166-0.006
				c-0.221-0.01-0.439-0.02-0.654-0.029c-0.108-0.004-0.215-0.008-0.321-0.015c-0.11-0.016-0.218-0.029-0.326-0.043
				c-0.216-0.029-0.429-0.058-0.64-0.085C9.483,71.6,9.38,71.578,9.28,71.551c-0.101-0.024-0.201-0.048-0.301-0.071
				c-0.199-0.052-0.397-0.087-0.587-0.147c-0.188-0.069-0.373-0.137-0.555-0.201c-0.091-0.034-0.182-0.067-0.27-0.101
				c-0.086-0.044-0.17-0.085-0.255-0.129c-0.167-0.084-0.331-0.169-0.492-0.252c-0.154-0.095-0.301-0.195-0.447-0.292
				c-0.072-0.047-0.145-0.097-0.215-0.146c-0.069-0.048-0.131-0.106-0.196-0.16c-0.128-0.106-0.253-0.213-0.376-0.317
				c-0.118-0.108-0.223-0.225-0.331-0.333c-0.222-0.211-0.393-0.447-0.569-0.658c-0.09-0.104-0.156-0.221-0.231-0.329
				c-0.071-0.108-0.145-0.209-0.206-0.313c-0.119-0.215-0.243-0.404-0.334-0.596c-0.197-0.375-0.337-0.704-0.449-0.972
				c-0.112-0.265-0.198-0.47-0.259-0.604c-0.064-0.136-0.097-0.205-0.097-0.205s0.043,0.065,0.125,0.189
				c0.083,0.124,0.189,0.319,0.333,0.569c0.294,0.493,0.694,1.244,1.398,2.029c0.183,0.19,0.359,0.403,0.583,0.589
				c0.109,0.095,0.215,0.197,0.333,0.292c0.121,0.089,0.246,0.18,0.372,0.274c0.064,0.043,0.124,0.095,0.193,0.136
				c0.069,0.039,0.139,0.081,0.21,0.122c0.139,0.083,0.281,0.168,0.425,0.255c0.154,0.072,0.31,0.144,0.468,0.217
				c0.079,0.037,0.158,0.076,0.238,0.114c0.083,0.031,0.168,0.061,0.253,0.091c0.171,0.061,0.344,0.124,0.52,0.185
				c0.177,0.06,0.365,0.095,0.552,0.145c0.093,0.023,0.188,0.047,0.282,0.07c0.095,0.026,0.191,0.048,0.29,0.06
				c0.195,0.027,0.393,0.058,0.593,0.085c0.1,0.014,0.201,0.029,0.302,0.043c0.106,0.006,0.213,0.012,0.32,0.016
				c0.216,0.01,0.434,0.021,0.654,0.028l0.166,0.008l0.041,0.002c0.002,0,0.027,0,0.009,0h0.021h0.083c0.112,0,0.224,0,0.337,0
				c0.226,0,0.454,0,0.684,0c7.377,0,17.214-0.002,27.05-0.004c9.837,0.012,19.673,0.021,27.051,0.031
				c0.928,0.002,1.798,0.006,2.613-0.093c0.203-0.027,0.404-0.055,0.603-0.083c0.1-0.01,0.196-0.031,0.292-0.057
				c0.096-0.024,0.191-0.046,0.285-0.069c0.188-0.047,0.377-0.083,0.556-0.142c0.176-0.063,0.351-0.126,0.521-0.188
				c0.085-0.029,0.172-0.058,0.255-0.091c0.08-0.039,0.161-0.077,0.239-0.114c0.158-0.077,0.314-0.151,0.467-0.225
				c0.145-0.089,0.285-0.178,0.424-0.263c0.07-0.043,0.139-0.084,0.208-0.126c0.067-0.043,0.126-0.097,0.189-0.144
				c0.125-0.095,0.247-0.189,0.366-0.28c0.116-0.097,0.219-0.203,0.326-0.3c0.221-0.189,0.395-0.404,0.573-0.596
				c0.17-0.198,0.32-0.397,0.459-0.587c0.128-0.197,0.261-0.373,0.362-0.552c0.219-0.352,0.388-0.659,0.523-0.913
				c0.135-0.251,0.244-0.458,0.322-0.582c0.079-0.128,0.12-0.193,0.12-0.193L76.865,65.771z"/>
			<path fill="#FFFFFF" d="M76.865,67.054c0,0-0.035,0.068-0.102,0.203c-0.066,0.134-0.149,0.325-0.271,0.591
				c-0.241,0.522-0.593,1.317-1.276,2.187c-0.178,0.209-0.352,0.443-0.578,0.652c-0.11,0.104-0.217,0.222-0.337,0.325
				c-0.125,0.101-0.252,0.203-0.383,0.31c-0.065,0.052-0.128,0.108-0.199,0.156c-0.071,0.045-0.144,0.093-0.217,0.14
				c-0.146,0.093-0.295,0.191-0.449,0.284c-0.161,0.081-0.326,0.164-0.494,0.246c-0.083,0.042-0.167,0.083-0.252,0.125
				c-0.088,0.035-0.178,0.066-0.269,0.101c-0.181,0.064-0.365,0.132-0.553,0.198c-0.188,0.063-0.387,0.101-0.583,0.152
				c-0.1,0.025-0.199,0.049-0.3,0.073c-0.1,0.027-0.202,0.049-0.306,0.061c-0.208,0.029-0.417,0.06-0.63,0.087
				c-0.107,0.016-0.214,0.029-0.321,0.045c-0.109,0.006-0.218,0.011-0.327,0.017c-0.22,0.01-0.442,0.02-0.666,0.029
				c-0.449,0.02-0.895,0.006-1.358,0.012c-7.377,0.008-17.214,0.021-27.051,0.031c-9.836-0.002-19.673-0.004-27.05-0.004
				c-0.23,0-0.458,0-0.684,0c-0.113,0-0.225,0-0.337,0H11.79l-0.054-0.002l-0.042-0.002l-0.166-0.008
				c-0.221-0.008-0.439-0.02-0.654-0.027c-0.108-0.006-0.215-0.01-0.321-0.014c-0.11-0.016-0.218-0.03-0.326-0.044
				c-0.216-0.029-0.429-0.059-0.64-0.087c-0.105-0.01-0.208-0.031-0.309-0.059c-0.101-0.023-0.201-0.048-0.301-0.071
				c-0.199-0.051-0.397-0.089-0.587-0.149c-0.188-0.067-0.373-0.135-0.555-0.201c-0.091-0.033-0.182-0.065-0.27-0.101
				c-0.086-0.042-0.17-0.085-0.255-0.126c-0.167-0.085-0.331-0.17-0.492-0.253c-0.154-0.097-0.301-0.197-0.447-0.292
				c-0.072-0.047-0.145-0.096-0.214-0.144c-0.07-0.051-0.132-0.11-0.197-0.161c-0.128-0.108-0.253-0.215-0.376-0.317
				c-0.118-0.108-0.223-0.226-0.331-0.334c-0.222-0.211-0.393-0.447-0.569-0.658c-0.09-0.104-0.156-0.223-0.231-0.327
				c-0.071-0.11-0.145-0.211-0.206-0.317c-0.119-0.213-0.243-0.404-0.334-0.596c-0.197-0.372-0.337-0.704-0.449-0.97
				c-0.112-0.267-0.198-0.47-0.259-0.605c-0.064-0.134-0.097-0.203-0.097-0.203s0.043,0.063,0.125,0.189
				c0.083,0.124,0.189,0.319,0.333,0.567c0.294,0.495,0.694,1.244,1.398,2.031c0.183,0.189,0.359,0.404,0.583,0.587
				c0.109,0.095,0.215,0.199,0.333,0.292C6,70.764,6.125,70.854,6.252,70.947c0.064,0.045,0.124,0.097,0.193,0.138
				c0.069,0.04,0.139,0.081,0.21,0.12c0.139,0.085,0.281,0.17,0.425,0.257c0.154,0.07,0.31,0.144,0.468,0.217
				c0.079,0.037,0.158,0.075,0.238,0.114c0.083,0.031,0.168,0.06,0.253,0.091c0.171,0.061,0.344,0.122,0.52,0.186
				c0.177,0.059,0.365,0.095,0.552,0.144c0.093,0.023,0.188,0.047,0.282,0.071c0.095,0.025,0.191,0.047,0.29,0.057
				c0.195,0.029,0.393,0.058,0.593,0.087c0.1,0.014,0.201,0.027,0.302,0.043c0.106,0.006,0.213,0.011,0.32,0.015
				c0.216,0.012,0.434,0.02,0.654,0.029l0.166,0.008l0.041,0.002c0.002,0,0.027,0,0.009,0h0.021h0.083c0.112,0,0.224,0,0.337,0
				c0.226,0,0.454,0,0.684,0c7.377-0.002,17.214-0.004,27.05-0.006c9.837,0.012,19.673,0.023,27.051,0.031
				c0.928,0.004,1.798,0.006,2.613-0.091c0.203-0.029,0.404-0.057,0.603-0.082c0.1-0.011,0.196-0.032,0.292-0.058
				c0.096-0.023,0.191-0.045,0.285-0.069c0.188-0.049,0.377-0.084,0.556-0.142c0.176-0.063,0.351-0.126,0.521-0.188
				c0.085-0.031,0.172-0.059,0.255-0.093c0.08-0.037,0.161-0.074,0.239-0.114c0.159-0.075,0.314-0.149,0.467-0.223
				c0.145-0.091,0.285-0.178,0.424-0.262c0.07-0.044,0.139-0.085,0.208-0.129c0.067-0.043,0.126-0.095,0.189-0.142
				c0.125-0.095,0.247-0.189,0.366-0.28c0.116-0.097,0.219-0.203,0.326-0.3c0.221-0.188,0.395-0.403,0.573-0.595
				c0.17-0.199,0.32-0.4,0.459-0.588c0.128-0.197,0.261-0.374,0.362-0.554c0.219-0.35,0.388-0.658,0.523-0.911
				c0.135-0.25,0.244-0.457,0.322-0.583c0.079-0.127,0.12-0.191,0.12-0.191L76.865,67.054z"/>
		</g>
		<g id="Linhas_verticais_7_" clip-path="url(#SVGID_2_)">
			<path fill="#FFFFFF" d="M39.848,73.926c0,0-0.018-0.299-0.036-0.867c-0.009-0.282-0.021-0.631-0.035-1.043
				c-0.009-0.41-0.019-0.881-0.031-1.409c-0.054-2.114-0.045-5.134-0.05-8.758c-0.008-7.247-0.021-16.91-0.032-26.573
				c0.002-9.662,0.003-19.326,0.005-26.572c-0.002-1.812-0.005-3.473-0.008-4.944c0.007-1.473,0.068-2.756,0.101-3.812
				c0.049-1.057,0.086-1.888,0.124-2.454c0.038-0.567,0.057-0.868,0.057-0.868s0.02,0.301,0.058,0.868
				c0.038,0.566,0.075,1.397,0.124,2.454c0.033,1.056,0.094,2.339,0.101,3.812c-0.001,1.472-0.004,3.132-0.008,4.944
				c0.002,7.247,0.003,16.91,0.005,26.572c-0.011,9.663-0.023,19.326-0.031,26.573c-0.005,3.624,0.002,6.644-0.051,8.758
				c-0.011,0.528-0.022,0.999-0.031,1.409c-0.014,0.412-0.025,0.761-0.035,1.043c-0.018,0.568-0.036,0.867-0.036,0.867H39.848z"/>
			<path fill="#FFFFFF" d="M26.591,73.934c0,0-0.027-0.074-0.072-0.225c-0.046-0.147-0.109-0.368-0.179-0.66
				c-0.078-0.29-0.142-0.652-0.229-1.078c-0.063-0.428-0.16-0.921-0.21-1.475c-0.143-1.11-0.183-2.467-0.201-4.021
				c-0.003-1.546-0.005-3.288-0.009-5.191c-0.002-3.805-0.007-8.244-0.01-13c0.005-4.755,0.012-9.828,0.018-14.902
				c0.008-5.073,0.017-10.146,0.025-14.902c0.004-2.377,0.009-4.676,0.012-6.856c0.002-1.089,0.003-2.15,0.005-3.176
				c0-0.513,0-1.015,0-1.511c-0.003-0.495-0.001-0.985,0.018-1.468c0.021-0.482,0.062-0.96,0.157-1.423
				c0.093-0.464,0.237-0.918,0.468-1.325c0.06-0.1,0.123-0.197,0.186-0.294c0.073-0.092,0.143-0.182,0.215-0.271
				c0.081-0.081,0.161-0.163,0.241-0.242c0.097-0.08,0.169-0.132,0.254-0.197c0.327-0.248,0.645-0.492,0.951-0.726
				c1.243-0.927,2.34-1.722,3.245-2.363c1.807-1.291,2.857-2.004,2.857-2.004s-0.246,0.2-0.707,0.576
				c-0.463,0.374-1.143,0.921-2.007,1.617c-0.864,0.693-1.913,1.534-3.116,2.498c-0.297,0.247-0.604,0.5-0.921,0.763
				c-0.076,0.064-0.153,0.128-0.229,0.192c-0.066,0.069-0.132,0.138-0.199,0.207c-0.059,0.076-0.117,0.154-0.177,0.231
				c-0.051,0.084-0.102,0.169-0.153,0.254c-0.38,0.711-0.522,1.6-0.577,2.531c-0.049,0.933-0.027,1.93-0.031,2.954
				c0.001,1.026,0.003,2.087,0.006,3.176c0.003,2.18,0.008,4.479,0.011,6.856c0.008,4.756,0.018,9.829,0.026,14.902
				c0.006,5.074,0.012,10.147,0.018,14.902c-0.004,4.756-0.008,9.195-0.011,13c-0.002,1.903-0.006,3.646-0.008,5.191
				c0.005,0.385,0.01,0.755,0.015,1.116c0.003,0.18,0.005,0.354,0.008,0.528c0.005,0.171,0.016,0.341,0.023,0.507
				c0.014,0.333,0.027,0.652,0.039,0.956c0.022,0.304,0.039,0.593,0.052,0.869c0.008,0.136,0.015,0.272,0.022,0.402
				c0.009,0.13,0.019,0.256,0.027,0.379c0.016,0.246,0.031,0.475,0.045,0.689c0.037,0.428,0.055,0.795,0.083,1.089
				c0.024,0.295,0.043,0.524,0.056,0.676c0.011,0.154,0.021,0.232,0.021,0.232L26.591,73.934z"/>
			<path fill="#FFFFFF" d="M16.372,73.974c0,0-0.023,0-0.066,0.002c-0.043,0-0.106,0.004-0.195-0.006
				c-0.178-0.012-0.437-0.062-0.744-0.211c-0.306-0.148-0.651-0.398-0.981-0.762c-0.326-0.366-0.645-0.835-0.908-1.405
				c-0.54-1.132-0.88-2.642-0.906-4.371c-0.001-1.705-0.002-3.629-0.004-5.726c0-8.387,0.001-19.567,0.003-30.75
				c0.012-5.591,0.024-11.182,0.035-16.423c0.003-1.312,0.006-2.6,0.009-3.86c0.008-1.261-0.014-2.496,0.058-3.707
				c0.033-0.604,0.092-1.201,0.191-1.784c0.101-0.583,0.243-1.16,0.485-1.697c0.234-0.536,0.619-1.027,1.126-1.33
				c0-0.002,0.026-0.017,0.031-0.019l0.023-0.011l0.047-0.021l0.092-0.042c0.063-0.028,0.122-0.058,0.188-0.084
				c0.127-0.051,0.254-0.102,0.381-0.153c0.254-0.104,0.499-0.194,0.745-0.291c1.961-0.748,3.775-1.384,5.38-1.954
				c1.604-0.576,3.008-1.062,4.157-1.483c1.151-0.412,2.05-0.752,2.666-0.975c0.621-0.207,0.87-0.547,0.87-0.547l0.187,0.517
				c0,0-0.408-0.103-1.019,0.138c-0.615,0.225-1.522,0.541-2.668,0.968c-1.149,0.419-2.535,0.954-4.127,1.559
				c-1.586,0.618-3.377,1.315-5.33,2.074c-0.241,0.097-0.492,0.194-0.732,0.295c-0.12,0.051-0.241,0.103-0.363,0.152
				c-0.117,0.052-0.255,0.119-0.355,0.169c-0.431,0.261-0.766,0.684-0.982,1.181c-0.221,0.495-0.355,1.046-0.451,1.61
				c-0.094,0.567-0.148,1.152-0.179,1.747c-0.066,1.19-0.039,2.425-0.042,3.686c0.003,1.261,0.006,2.549,0.009,3.86
				c0.011,5.241,0.024,10.832,0.036,16.423c0.001,11.183,0.002,22.363,0.003,30.75c0,2.097,0,4.017,0,5.72
				c0.001,0.838,0.089,1.619,0.215,2.33c0.137,0.708,0.322,1.351,0.554,1.899c0.454,1.105,1.096,1.837,1.643,2.152
				c0.272,0.158,0.51,0.225,0.668,0.255c0.078,0.018,0.144,0.021,0.187,0.025c0.043,0.002,0.065,0.004,0.065,0.004L16.372,73.974z"
				/>
			<path fill="#FFFFFF" d="M13.622,74.024c0,0-0.09-0.004-0.264-0.01c-0.084,0.004-0.198-0.023-0.332-0.047
				c-0.066-0.016-0.142-0.023-0.215-0.048c-0.072-0.023-0.149-0.049-0.232-0.074c-0.331-0.106-0.716-0.29-1.143-0.551
				c-0.421-0.268-0.872-0.625-1.33-1.076c-0.448-0.461-0.889-1.029-1.26-1.713c-0.379-0.679-0.663-1.489-0.8-2.38
				c-0.016-0.112-0.042-0.223-0.049-0.337c-0.007-0.114-0.013-0.231-0.02-0.348c-0.006-0.114-0.012-0.232-0.018-0.351
				c-0.006-0.116-0.002-0.23-0.003-0.347c-0.001-0.464-0.001-0.94-0.002-1.43c0-0.979-0.002-2.009-0.004-3.084
				c-0.008-8.594-0.02-20.052-0.031-31.512c0.001-5.729,0.002-11.458,0.003-16.83c0-1.342,0-2.664,0-3.955c0-0.325,0-0.646,0-0.965
				V8.73c0-0.094,0.003-0.164,0.004-0.246C7.933,8.326,7.937,8.166,7.94,8.009c0.039-0.657,0.122-1.289,0.268-1.909
				C8.496,4.866,9.085,3.71,9.941,2.843c0.11-0.104,0.219-0.209,0.33-0.309c0.117-0.096,0.229-0.194,0.35-0.283
				c0.123-0.084,0.238-0.179,0.365-0.253l0.188-0.116l0.046-0.029c-0.006,0.002,0.035-0.021,0.04-0.021l0.023-0.011l0.096-0.043
				l0.19-0.087l0.201-0.081c0.133-0.053,0.266-0.106,0.399-0.161c0.257-0.096,0.511-0.193,0.764-0.289
				c1.01-0.369,1.979-0.723,2.899-1.06c0.921-0.333,1.793-0.655,2.617-0.941c1.649-0.577,3.105-1.024,4.3-1.408
				c1.198-0.367,2.141-0.658,2.787-0.843c0.646-0.185,0.992-0.284,0.992-0.284s-0.332,0.136-0.954,0.392
				c-0.621,0.257-1.54,0.616-2.705,1.077c-1.172,0.446-2.587,1.008-4.23,1.598c-1.644,0.586-3.504,1.231-5.513,1.983
				c-0.25,0.094-0.503,0.191-0.758,0.288C12.246,2.012,12.123,2.061,12,2.109l-0.186,0.074l-0.19,0.087l-0.095,0.043l-0.024,0.012
				c-0.011,0.005,0.014-0.009-0.007,0.003l-0.042,0.027l-0.171,0.106c-0.117,0.067-0.221,0.154-0.333,0.23
				c-0.109,0.08-0.211,0.17-0.318,0.256c-0.101,0.092-0.2,0.187-0.3,0.282c-0.775,0.788-1.319,1.841-1.588,3
				C8.608,6.81,8.53,7.418,8.493,8.023C8.489,8.18,8.484,8.339,8.481,8.498C8.479,8.574,8.475,8.664,8.477,8.73v0.238
				c0,0.319,0,0.641,0,0.965c0,1.291,0,2.612,0,3.955c0.001,5.372,0.002,11.101,0.003,16.83C8.469,42.179,8.457,53.637,8.448,62.23
				c-0.001,1.075-0.002,2.104-0.002,3.084c-0.001,0.489-0.001,0.966-0.002,1.43c0.001,0.116-0.003,0.234,0.002,0.345
				c0.006,0.11,0.011,0.219,0.017,0.327c0.006,0.108,0.011,0.217,0.017,0.323c0.007,0.106,0.032,0.211,0.046,0.315
				c0.115,0.834,0.367,1.597,0.714,2.242c0.344,0.646,0.749,1.192,1.152,1.649c0.837,0.892,1.674,1.414,2.277,1.652
				c0.076,0.028,0.148,0.056,0.214,0.083c0.067,0.025,0.129,0.035,0.187,0.054c0.117,0.027,0.21,0.062,0.301,0.066
				c0.172,0.02,0.262,0.027,0.262,0.027L13.622,74.024z"/>
			<path fill="#FFFFFF" d="M13.167,74.024c0,0-0.022,0-0.067,0c-0.046,0-0.111,0.004-0.208-0.006
				c-0.188-0.012-0.455-0.051-0.794-0.146c-0.675-0.189-1.639-0.58-2.705-1.341c-0.533-0.379-1.089-0.854-1.603-1.461
				c-0.515-0.602-0.995-1.339-1.298-2.22c-0.149-0.441-0.251-0.915-0.29-1.41c-0.004-0.124-0.009-0.248-0.014-0.374
				c-0.001-0.12-0.001-0.243-0.001-0.365c0-0.244-0.001-0.49-0.001-0.741c-0.001-1.003-0.001-2.057-0.003-3.154
				c-0.008-8.791-0.02-20.514-0.031-32.238c0.001-5.86,0.001-11.723,0.002-17.217c0-1.374,0.001-2.726,0.001-4.046
				c0-0.166,0-0.331,0-0.495l0.001-0.073l0.002-0.063l0.005-0.123l0.01-0.246c0-0.159,0.035-0.338,0.053-0.507
				c0.013-0.085,0.021-0.17,0.036-0.254l0.053-0.248c0.139-0.657,0.37-1.286,0.669-1.866c0.611-1.157,1.474-2.118,2.45-2.854
				c0.124-0.09,0.247-0.181,0.372-0.265c0.127-0.082,0.256-0.163,0.382-0.244c0.132-0.073,0.264-0.146,0.395-0.218
				c0.015-0.007,0.001-0.002,0.04-0.021l0.024-0.009L10.7,1.8l0.1-0.039L11,1.683c0.528-0.214,1.066-0.397,1.589-0.583
				c1.049-0.379,2.04-0.71,2.988-1.045c0.946-0.329,1.843-0.643,2.69-0.927c1.693-0.57,3.188-1.011,4.413-1.39
				c1.231-0.365,2.197-0.65,2.861-0.833c0.663-0.182,1.016-0.28,1.016-0.28s-0.341,0.135-0.979,0.389
				c-0.64,0.255-1.583,0.611-2.781,1.068c-1.205,0.439-2.659,0.998-4.348,1.58c-0.845,0.288-1.744,0.592-2.692,0.915
				c-0.945,0.325-1.949,0.668-2.968,1.033c-0.512,0.185-1.036,0.361-1.568,0.577l-0.2,0.078l-0.101,0.041l-0.05,0.02l-0.025,0.009
				c0.022-0.01-0.007,0.006-0.008,0.006c-0.122,0.067-0.244,0.134-0.366,0.203c-0.119,0.075-0.238,0.151-0.358,0.227
				c-0.116,0.08-0.231,0.166-0.348,0.249C8.851,3.706,8.041,4.611,7.474,5.686c-0.278,0.54-0.49,1.12-0.618,1.726L6.807,7.64
				c-0.014,0.075-0.02,0.15-0.031,0.226C6.76,8.019,6.727,8.161,6.727,8.331L6.716,8.576L6.711,8.698L6.708,8.76
				c0,0.012,0-0.003,0,0.018V8.81c0,0.165,0,0.329,0,0.495c0,1.321,0.001,2.672,0.001,4.046c0.001,5.495,0.002,11.357,0.002,17.217
				C6.701,42.293,6.688,54.016,6.68,62.807c-0.001,1.098-0.002,2.151-0.003,3.154c0,0.251-0.001,0.497-0.001,0.741
				c0,0.122,0,0.243,0.001,0.361c0.003,0.116,0.008,0.23,0.012,0.343c0.033,0.451,0.126,0.885,0.262,1.289
				c0.267,0.814,0.702,1.515,1.182,2.088c0.237,0.292,0.49,0.553,0.744,0.787c0.25,0.238,0.503,0.453,0.753,0.645
				c0.497,0.383,0.978,0.678,1.412,0.905c0.432,0.229,0.815,0.394,1.133,0.5c0.317,0.108,0.572,0.16,0.736,0.186
				c0.081,0.014,0.149,0.016,0.194,0.02s0.067,0.004,0.067,0.004L13.167,74.024z"/>
			<path fill="#FFFFFF" d="M13.017,74.024c0,0-0.023,0-0.069,0.002c-0.046,0-0.123,0-0.215-0.006
				c-0.188-0.012-0.462-0.047-0.81-0.13c-0.695-0.162-1.691-0.497-2.861-1.132c-0.585-0.317-1.209-0.716-1.831-1.23
				c-0.619-0.517-1.246-1.149-1.742-1.961c-0.242-0.408-0.449-0.862-0.58-1.356c-0.066-0.247-0.112-0.503-0.136-0.766
				c-0.012-0.132-0.019-0.264-0.02-0.397c0-0.127,0-0.255-0.001-0.383c0-1.023-0.001-2.1-0.002-3.224
				c-0.008-8.986-0.02-20.969-0.032-32.951C4.72,24.499,4.72,18.507,4.721,12.89c0-1.404,0-2.784,0-4.136V8.627l0.004-0.136
				c0.002-0.083,0.005-0.167,0.016-0.263c0.017-0.188,0.046-0.357,0.081-0.53c0.069-0.345,0.169-0.676,0.286-0.996
				c0.233-0.641,0.53-1.24,0.855-1.81C6.62,3.756,7.377,2.73,8.226,1.83c0.214-0.225,0.434-0.441,0.67-0.643
				c0.119-0.102,0.239-0.2,0.37-0.29C9.329,0.849,9.4,0.807,9.469,0.764l0.026-0.016l0.038-0.019l0.05-0.025
				c0.031-0.017,0.066-0.033,0.105-0.048c0.154-0.067,0.288-0.117,0.426-0.17c0.136-0.051,0.272-0.103,0.408-0.153
				c0.27-0.098,0.538-0.195,0.803-0.29c1.062-0.376,2.081-0.724,3.049-1.058c0.969-0.332,1.887-0.652,2.754-0.938
				c1.733-0.574,3.262-1.017,4.517-1.399c1.26-0.367,2.248-0.656,2.927-0.838c0.679-0.184,1.041-0.283,1.041-0.283
				s-0.349,0.137-1.004,0.391c-0.654,0.257-1.621,0.615-2.85,1.072c-1.233,0.444-2.724,1.005-4.452,1.594
				c-1.728,0.585-3.686,1.226-5.798,1.979c-0.264,0.095-0.53,0.19-0.798,0.287C10.578,0.899,10.444,0.949,10.31,1
				c-0.132,0.051-0.271,0.104-0.385,0.153C9.896,1.164,9.864,1.178,9.831,1.195L9.781,1.219C9.779,1.22,9.752,1.234,9.77,1.225
				L9.749,1.238C9.693,1.272,9.638,1.306,9.582,1.346c-0.11,0.077-0.22,0.166-0.328,0.258C9.037,1.789,8.828,1.995,8.625,2.208
				C7.814,3.071,7.073,4.073,6.443,5.166C6.13,5.713,5.846,6.289,5.628,6.89c-0.109,0.3-0.202,0.606-0.264,0.918
				C5.333,7.963,5.307,8.124,5.294,8.27C5.284,8.34,5.28,8.425,5.279,8.511L5.274,8.627v0.126c0,1.353,0,2.732,0,4.136
				c0.001,5.617,0.002,11.609,0.003,17.601C5.267,42.473,5.255,54.455,5.247,63.441c-0.001,1.124-0.003,2.2-0.003,3.224
				c0,0.128,0,0.256,0,0.383c0,0.118,0.006,0.236,0.015,0.353c0.021,0.234,0.063,0.463,0.121,0.686
				c0.118,0.444,0.304,0.858,0.526,1.232c0.446,0.756,1.028,1.366,1.613,1.867c0.589,0.501,1.186,0.897,1.739,1.229
				c0.557,0.327,1.076,0.583,1.539,0.78c0.461,0.197,0.863,0.344,1.195,0.44c0.331,0.096,0.59,0.147,0.763,0.173
				c0.088,0.012,0.149,0.016,0.194,0.02c0.047,0.002,0.07,0.002,0.07,0.002L13.017,74.024z"/>
			<path fill="#FFFFFF" d="M53.413,73.904c0,0,0.014-0.079,0.034-0.229c0.02-0.152,0.052-0.375,0.086-0.668
				c0.042-0.294,0.065-0.659,0.115-1.085c0.017-0.213,0.036-0.443,0.056-0.688c0.024-0.245,0.043-0.507,0.058-0.781
				c0.087-1.102,0.117-2.44,0.136-3.979c0-1.546,0-3.288,0-5.191c0-7.609,0.001-17.755,0.002-27.902
				c0.005-5.073,0.01-10.146,0.014-14.902c0.002-2.377,0.004-4.676,0.007-6.856c0.001-1.089,0.001-2.15,0.002-3.176
				c-0.006-1.024,0.024-2.021-0.031-2.954c-0.061-0.931-0.22-1.818-0.607-2.516c-0.052-0.083-0.104-0.167-0.155-0.25
				c-0.059-0.076-0.117-0.153-0.175-0.229c-0.065-0.069-0.131-0.137-0.196-0.205c-0.077-0.064-0.153-0.128-0.229-0.19
				c-0.316-0.262-0.624-0.517-0.92-0.763c-1.202-0.966-2.25-1.807-3.113-2.499c-0.868-0.692-1.542-1.247-2.003-1.623
				c-0.459-0.377-0.705-0.579-0.705-0.579l0.024-0.031c0,0,0.262,0.178,0.752,0.516c0.49,0.338,1.208,0.834,2.111,1.48
				c0.907,0.639,2.006,1.433,3.248,2.361c0.308,0.234,0.625,0.476,0.952,0.726l0.123,0.094l0.061,0.047l0.031,0.023l0.016,0.011
				c0.003,0.003,0.026,0.023,0.023,0.022c0.081,0.081,0.163,0.163,0.244,0.244c0.072,0.092,0.145,0.183,0.218,0.275
				c0.061,0.099,0.125,0.196,0.185,0.298c0.452,0.836,0.556,1.803,0.594,2.762c0.022,0.483,0.015,0.973,0.018,1.468
				c0,0.496,0,0.999,0.001,1.511c0.001,1.026,0.001,2.087,0.002,3.176c0.002,2.18,0.004,4.479,0.007,6.856
				c0.004,4.756,0.009,9.829,0.014,14.902c0.001,10.147,0.002,20.293,0.002,27.902c0,1.903,0,3.646,0,5.191
				c-0.012,1.552-0.072,2.908-0.202,4.019c-0.05,0.554-0.132,1.047-0.189,1.477c-0.073,0.428-0.134,0.79-0.198,1.084
				c-0.059,0.294-0.109,0.517-0.149,0.668c-0.036,0.152-0.059,0.226-0.059,0.226L53.413,73.904z"/>
			<path fill="#FFFFFF" d="M63.758,73.829c0,0,0.021,0,0.064-0.004s0.109-0.004,0.183-0.02c0.152-0.027,0.387-0.091,0.655-0.242
				c0.54-0.306,1.191-1.023,1.649-2.125c0.231-0.549,0.42-1.186,0.561-1.896c0.133-0.709,0.213-1.492,0.214-2.328
				c-0.001-1.703-0.002-3.623-0.003-5.72c-0.008-8.387-0.018-19.567-0.027-30.75c0-5.591,0-11.182,0-16.423
				c0-1.312,0-2.6-0.001-3.86c-0.002-1.261,0.017-2.497-0.059-3.679c-0.038-0.592-0.1-1.173-0.199-1.733
				c-0.098-0.557-0.239-1.094-0.452-1.574c-0.207-0.482-0.524-0.876-0.923-1.123c-0.02-0.011,0.007,0.001-0.004-0.004l-0.024-0.01
				l-0.046-0.022l-0.091-0.045c-0.061-0.029-0.123-0.062-0.182-0.086c-0.119-0.05-0.237-0.103-0.356-0.152
				c-0.234-0.103-0.487-0.202-0.726-0.302c-1.938-0.788-3.719-1.516-5.301-2.145c-1.583-0.633-2.971-1.161-4.113-1.6
				c-1.142-0.437-2.039-0.784-2.653-1.01c-0.613-0.23-0.94-0.351-0.94-0.351s1.316,0.468,3.628,1.267
				c1.156,0.4,2.561,0.885,4.17,1.442c1.612,0.554,3.438,1.155,5.41,1.883c0.248,0.093,0.491,0.18,0.751,0.283
				c0.129,0.052,0.26,0.103,0.39,0.154c0.068,0.026,0.125,0.055,0.188,0.082l0.093,0.042l0.046,0.021l0.023,0.011
				c0.004,0,0.045,0.024,0.04,0.022c0.538,0.318,0.941,0.837,1.185,1.388c0.25,0.553,0.384,1.142,0.483,1.732
				c0.095,0.592,0.146,1.194,0.172,1.8c0.061,1.215,0.032,2.451,0.04,3.711c0,1.261,0,2.549,0,3.86c0,5.241,0,10.832,0,16.423
				c-0.01,11.183-0.021,22.363-0.027,30.75c-0.003,2.099-0.006,4.021-0.008,5.726c-0.037,1.729-0.361,3.241-0.9,4.377
				c-0.264,0.57-0.575,1.047-0.901,1.416c-0.328,0.37-0.674,0.627-0.983,0.78c-0.311,0.154-0.574,0.209-0.757,0.223
				c-0.094,0.012-0.156,0.008-0.2,0.008c-0.042,0-0.064,0-0.064,0L63.758,73.829z"/>
			<path fill="#FFFFFF" d="M65.767,73.829c0,0,0.089-0.008,0.261-0.027c0.09-0.004,0.183-0.039,0.3-0.069
				c0.115-0.023,0.248-0.078,0.399-0.138c0.598-0.242,1.424-0.778,2.229-1.695c0.096-0.118,0.194-0.238,0.294-0.364
				c0.1-0.125,0.184-0.267,0.281-0.402c0.101-0.137,0.185-0.286,0.271-0.44c0.088-0.149,0.18-0.303,0.25-0.473
				c0.039-0.083,0.077-0.168,0.117-0.253c0.04-0.082,0.079-0.169,0.108-0.26c0.062-0.18,0.13-0.36,0.191-0.548
				c0.048-0.189,0.096-0.385,0.146-0.584c0.044-0.199,0.062-0.406,0.097-0.613c0.096-0.826,0.054-1.767,0.062-2.74
				c-0.001-0.978-0.002-2.005-0.003-3.077c-0.009-8.574-0.02-20.01-0.031-31.443c0.001-5.717,0.001-11.435,0.002-16.794
				c0-1.339,0-2.657,0-3.946c0.001-0.323,0.001-0.644,0.001-0.962V8.76l-0.003-0.232c-0.004-0.158-0.007-0.316-0.011-0.474
				c-0.031-0.609-0.097-1.216-0.218-1.799c-0.241-1.165-0.731-2.243-1.486-3.04C68.925,3.12,68.832,3.019,68.73,2.93
				c-0.105-0.085-0.202-0.18-0.312-0.256c-0.109-0.079-0.215-0.163-0.331-0.23l-0.169-0.106l-0.021-0.013
				c0.024,0.011-0.007-0.003-0.008-0.004l-0.048-0.021l-0.096-0.042c-0.254-0.121-0.495-0.203-0.743-0.306
				c-0.255-0.097-0.507-0.192-0.756-0.287c-2.005-0.75-3.861-1.394-5.501-1.978c-1.639-0.589-3.051-1.15-4.219-1.595
				c-1.165-0.459-2.081-0.817-2.701-1.075c-0.62-0.255-0.951-0.391-0.951-0.391s0.343,0.099,0.989,0.283
				c0.645,0.185,1.585,0.474,2.782,0.841c1.192,0.383,2.645,0.829,4.29,1.405c0.823,0.286,1.692,0.606,2.612,0.938
				c0.918,0.336,1.884,0.689,2.892,1.057c0.251,0.095,0.505,0.192,0.763,0.29c0.258,0.105,0.539,0.206,0.789,0.323l0.095,0.045
				l0.048,0.021c0.014,0.009,0-0.002,0.038,0.021l0.025,0.014l0.187,0.117c0.128,0.075,0.245,0.168,0.366,0.255
				c0.122,0.085,0.23,0.189,0.348,0.286c0.112,0.1,0.216,0.209,0.325,0.314c0.842,0.887,1.371,2.07,1.626,3.305
				c0.129,0.618,0.199,1.252,0.23,1.901c0.004,0.158,0.008,0.316,0.011,0.473l0.003,0.246v0.239c0,0.318,0,0.639,0,0.962
				c0,1.29,0,2.607,0,3.946c0.001,5.359,0.002,11.077,0.002,16.794c-0.011,11.433-0.022,22.869-0.031,31.443
				c0,1.072-0.001,2.1-0.003,3.077c0,0.489,0,0.962,0,1.426c0,0.116-0.001,0.23-0.001,0.345c-0.001,0.114-0.011,0.234-0.016,0.349
				c-0.006,0.116-0.012,0.231-0.018,0.346c-0.002,0.114-0.017,0.227-0.037,0.337c-0.039,0.221-0.064,0.441-0.113,0.652
				c-0.056,0.211-0.11,0.418-0.165,0.619c-0.068,0.199-0.143,0.391-0.212,0.582c-0.032,0.095-0.076,0.185-0.119,0.273
				s-0.086,0.178-0.128,0.267c-0.349,0.691-0.764,1.279-1.203,1.747c-0.444,0.463-0.881,0.836-1.299,1.109
				c-0.1,0.075-0.21,0.126-0.309,0.186c-0.102,0.055-0.193,0.116-0.291,0.159c-0.196,0.083-0.365,0.176-0.533,0.224
				c-0.165,0.055-0.308,0.104-0.446,0.124c-0.133,0.023-0.247,0.053-0.331,0.049c-0.174,0.006-0.263,0.01-0.263,0.01L65.767,73.829z
				"/>
			<path fill="#FFFFFF" d="M66.412,73.829c0,0,0.022,0,0.067-0.004c0.045-0.004,0.114-0.006,0.195-0.02
				c0.162-0.025,0.416-0.077,0.731-0.188c0.317-0.11,0.697-0.277,1.124-0.512c0.429-0.231,0.903-0.537,1.392-0.927
				c0.485-0.395,0.992-0.874,1.456-1.461c0.458-0.59,0.876-1.296,1.115-2.118c0.123-0.409,0.203-0.844,0.225-1.295
				c0.012-0.223,0.01-0.465,0.009-0.708c0-0.244,0-0.49,0-0.739c-0.002-0.999-0.003-2.05-0.004-3.146
				c-0.009-8.771-0.02-20.465-0.031-32.159c0-5.847,0.001-11.694,0.002-17.175c0-1.372,0-2.719,0-4.038
				c0.009-0.666-0.009-1.295-0.129-1.896c-0.116-0.609-0.306-1.196-0.57-1.741c-0.531-1.088-1.312-2.014-2.216-2.707
				c-0.116-0.083-0.227-0.171-0.345-0.249c-0.12-0.075-0.235-0.154-0.355-0.227c-0.118-0.063-0.234-0.128-0.351-0.193
				c-0.134-0.051-0.267-0.104-0.4-0.156c-0.531-0.216-1.054-0.39-1.565-0.574c-1.016-0.366-2.019-0.707-2.96-1.031
				c-0.946-0.321-1.844-0.626-2.687-0.913c-1.684-0.581-3.134-1.137-4.336-1.577c-1.195-0.455-2.137-0.811-2.774-1.064
				c-0.637-0.254-0.978-0.389-0.978-0.389s0.354,0.098,1.015,0.28c0.662,0.182,1.626,0.466,2.854,0.83
				c1.223,0.378,2.713,0.818,4.403,1.386c0.844,0.284,1.739,0.596,2.684,0.924c0.946,0.333,1.934,0.664,2.98,1.041
				c0.52,0.188,1.06,0.369,1.586,0.583c0.133,0.051,0.267,0.104,0.4,0.155c-0.006-0.003,0.036,0.015,0.041,0.019l0.024,0.014
				l0.049,0.028l0.099,0.054l0.197,0.109c0.13,0.078,0.255,0.163,0.383,0.243c0.127,0.083,0.247,0.179,0.372,0.267
				c0.97,0.744,1.807,1.733,2.378,2.905c0.285,0.586,0.492,1.221,0.618,1.877c0.131,0.666,0.148,1.349,0.139,1.999
				c0,1.319,0,2.667,0,4.038c0.001,5.48,0.002,11.328,0.002,17.175c-0.012,11.694-0.022,23.388-0.031,32.159
				c-0.001,1.097-0.002,2.147-0.003,3.146c0,0.249,0,0.495-0.001,0.739c0.001,0.243,0.002,0.481-0.01,0.731
				c-0.026,0.493-0.114,0.969-0.25,1.412c-0.273,0.889-0.735,1.638-1.229,2.255c-0.497,0.617-1.038,1.108-1.562,1.497
				c-1.049,0.78-2.006,1.185-2.679,1.376c-0.338,0.099-0.604,0.138-0.793,0.149c-0.095,0.01-0.161,0.006-0.207,0.006
				c-0.045,0-0.067,0-0.067,0L66.412,73.829z"/>
			<path fill="#FFFFFF" d="M66.563,73.829c0,0,0.023,0,0.069-0.004c0.046-0.004,0.116-0.004,0.198-0.02
				c0.167-0.021,0.427-0.073,0.754-0.169c0.328-0.095,0.728-0.239,1.186-0.437c0.458-0.192,0.974-0.445,1.526-0.771
				c0.551-0.325,1.141-0.72,1.729-1.213c0.582-0.492,1.165-1.094,1.615-1.839c0.227-0.369,0.419-0.775,0.542-1.215
				c0.059-0.219,0.106-0.445,0.131-0.676c0.025-0.232,0.029-0.466,0.027-0.724c-0.001-1.016-0.002-2.084-0.003-3.198
				c-0.008-8.909-0.02-20.792-0.031-32.674c0.001-5.94,0.001-11.881,0.002-17.451c0-1.392,0.001-2.761,0.001-4.102
				c0-0.335,0-0.668,0-1V8.277c0.001,0.028-0.001-0.009-0.001-0.011l-0.002-0.032l-0.009-0.124L74.28,7.865
				c-0.001-0.088-0.025-0.152-0.038-0.226l-0.045-0.215c-0.149-0.589-0.432-1.154-0.765-1.669c-0.673-1.035-1.556-1.903-2.471-2.636
				c-0.23-0.183-0.464-0.357-0.702-0.517c-0.118-0.082-0.237-0.158-0.358-0.229l-0.045-0.028l-0.022-0.014
				c0,0-0.031-0.019-0.005-0.005l-0.1-0.043l-0.2-0.088c-0.263-0.101-0.509-0.198-0.779-0.295c-0.267-0.095-0.53-0.189-0.792-0.285
				c-2.096-0.743-4.036-1.38-5.75-1.958c-1.712-0.583-3.19-1.14-4.413-1.58c-1.218-0.456-2.176-0.811-2.826-1.065
				c-0.649-0.253-0.996-0.388-0.996-0.388s0.359,0.098,1.032,0.279c0.673,0.182,1.654,0.467,2.903,0.83
				c1.244,0.378,2.761,0.818,4.479,1.388c0.86,0.283,1.77,0.6,2.73,0.931c0.96,0.329,1.972,0.675,3.023,1.047
				c0.263,0.094,0.529,0.189,0.797,0.286c0.265,0.096,0.554,0.209,0.831,0.316l0.199,0.088l0.1,0.045
				c0.042,0.021,0.025,0.014,0.042,0.022l0.024,0.016l0.048,0.029c0.131,0.078,0.26,0.16,0.384,0.246
				c0.252,0.168,0.497,0.35,0.737,0.541c0.954,0.766,1.87,1.66,2.592,2.767c0.358,0.556,0.667,1.16,0.839,1.843l0.055,0.267
				c0.016,0.087,0.042,0.182,0.042,0.26l0.018,0.248l0.009,0.122l0.005,0.082v0.062c0,0.331,0,0.665,0,1
				c0,1.341,0.001,2.71,0.001,4.102c0.001,5.569,0.002,11.511,0.003,17.451c-0.012,11.882-0.023,23.765-0.031,32.674
				c-0.001,1.114-0.002,2.183-0.003,3.198c0.001,0.246-0.004,0.519-0.032,0.776c-0.028,0.261-0.082,0.513-0.149,0.758
				c-0.136,0.488-0.349,0.934-0.597,1.334c-0.501,0.799-1.126,1.422-1.742,1.931c-0.31,0.252-0.621,0.475-0.924,0.68
				c-0.307,0.199-0.606,0.377-0.896,0.532c-1.161,0.629-2.15,0.956-2.84,1.116c-0.345,0.083-0.614,0.118-0.806,0.128
				c-0.096,0.01-0.162,0.006-0.208,0.006s-0.069,0-0.069,0L66.563,73.829z"/>
		</g>
	</g>
	<g>
		<g>
			<path fill="#57655F" d="M310.296,11.971h-34.239c-2.238,0-4.052,1.813-4.052,4.051v34.241c0,2.235,1.813,4.05,4.052,4.05h34.239
				c2.237,0,4.053-1.814,4.053-4.05V16.022C314.349,13.785,312.533,11.971,310.296,11.971z M308.57,45.333
				c0,1.769-1.435,3.204-3.204,3.204h-24.379c-1.77,0-3.205-1.436-3.205-3.204V20.952c0-1.768,1.436-3.204,3.205-3.204h24.379
				c1.77,0,3.204,1.436,3.204,3.204V45.333z M218.482,11.971H184.24c-2.236,0-4.05,1.813-4.05,4.051v34.241
				c0,2.235,1.813,4.05,4.05,4.05h34.242c2.237,0,4.051-1.814,4.051-4.05V16.022C222.533,13.785,220.72,11.971,218.482,11.971z
				 M216.755,45.333c0,1.769-1.435,3.204-3.204,3.204h-24.379c-1.77,0-3.204-1.436-3.204-3.204V20.952
				c0-1.768,1.435-3.204,3.204-3.204h24.379c1.77,0,3.204,1.436,3.204,3.204V45.333z M95.416,45.225V21.06
				c0-1.754,1.423-3.178,3.179-3.178h19.414v-0.508c0-2.239-1.813-5.403-4.05-5.403H93.556c-2.237,0-4.05,1.813-4.05,4.051v34.241
				c0,2.235,1.813,4.05,4.05,4.05h34.242c2.237,0,4.05-3.165,4.05-5.402v-0.507H98.594C96.839,48.404,95.416,46.979,95.416,45.225z
				 M173.249,11.971h-34.24c-2.238,0-4.052,1.813-4.052,4.051v34.241c0,2.235,1.814,4.05,4.052,4.05h34.24
				c2.237,0,4.051-1.814,4.051-4.05V16.022C177.3,13.785,175.486,11.971,173.249,11.971z M171.523,45.333
				c0,1.769-1.436,3.204-3.205,3.204h-24.379c-1.769,0-3.203-1.436-3.203-3.204V20.952c0-1.768,1.434-3.204,3.203-3.204h24.379
				c1.77,0,3.205,1.436,3.205,3.204V45.333z"/>
			<g>
				<path fill="#04A9C3" d="M96.104,64.077h-0.947c0-0.681-0.113-1.113-0.34-1.297s-0.761-0.275-1.603-0.275
					c-0.999,0-1.643,0.088-1.932,0.263c-0.289,0.176-0.433,0.566-0.433,1.174c0,0.681,0.113,1.096,0.34,1.244
					s0.902,0.249,2.024,0.303c1.316,0.058,2.153,0.226,2.51,0.502s0.536,0.896,0.536,1.856c0,1.04-0.206,1.713-0.616,2.019
					c-0.411,0.305-1.318,0.458-2.721,0.458c-1.217,0-2.027-0.154-2.43-0.461c-0.402-0.308-0.604-0.928-0.604-1.86l-0.006-0.378
					h0.947v0.211c0,0.755,0.115,1.225,0.347,1.408c0.231,0.184,0.823,0.275,1.776,0.275c1.094,0,1.766-0.092,2.018-0.275
					c0.251-0.184,0.377-0.674,0.377-1.471c0-0.516-0.085-0.859-0.257-1.03s-0.529-0.273-1.074-0.307l-0.991-0.05l-0.941-0.049
					c-1.432-0.1-2.148-0.842-2.148-2.229c0-0.962,0.208-1.604,0.625-1.926c0.417-0.321,1.248-0.482,2.495-0.482
					c1.263,0,2.086,0.149,2.47,0.449C95.913,62.448,96.104,63.091,96.104,64.077z"/>
				<path fill="#04A9C3" d="M104.967,64.318h0.867l-0.043,0.749l0.025,0.019c0.301-0.569,0.949-0.854,1.944-0.854
					c0.879,0,1.483,0.223,1.813,0.668s0.495,1.267,0.495,2.464c0,1.11-0.167,1.881-0.501,2.312
					c-0.334,0.432-0.929,0.647-1.783,0.647c-0.974,0-1.618-0.263-1.931-0.786h-0.019v3.237h-0.867V64.318z M107.518,64.95
					c-0.693,0-1.145,0.149-1.355,0.448c-0.21,0.3-0.316,0.942-0.316,1.929c0,0.912,0.114,1.52,0.341,1.823
					c0.227,0.303,0.683,0.454,1.368,0.454c0.652,0,1.083-0.146,1.291-0.439c0.208-0.293,0.312-0.897,0.312-1.813
					c0-1.007-0.101-1.659-0.303-1.956C108.652,65.099,108.207,64.95,107.518,64.95z"/>
				<path fill="#04A9C3" d="M123.159,68.447h0.885l0.006,0.217c0,0.615-0.187,1.045-0.56,1.291
					c-0.374,0.245-1.029,0.368-1.965,0.368c-1.089,0-1.805-0.199-2.145-0.598s-0.511-1.234-0.511-2.51
					c0-1.181,0.171-1.973,0.514-2.377c0.342-0.404,1.013-0.606,2.012-0.606c1.089,0,1.803,0.175,2.142,0.525
					c0.338,0.352,0.508,1.09,0.508,2.217v0.464h-4.259c0,0.933,0.1,1.526,0.3,1.782c0.2,0.257,0.667,0.384,1.402,0.384
					c0.697,0,1.15-0.061,1.358-0.183c0.208-0.121,0.313-0.385,0.313-0.789V68.447z M123.159,66.764l-0.006-0.278
					c0-0.64-0.105-1.056-0.316-1.247c-0.21-0.192-0.664-0.288-1.362-0.288c-0.701,0-1.156,0.112-1.365,0.337
					c-0.208,0.226-0.312,0.718-0.312,1.477H123.159z"/>
				<path fill="#04A9C3" d="M133.018,64.318h0.836l-0.025,0.805l0.025,0.019c0.264-0.606,0.92-0.909,1.968-0.909
					c0.846,0,1.418,0.148,1.718,0.445s0.449,0.866,0.449,1.708v3.851h-0.867V66.46v-0.223c0-0.508-0.097-0.849-0.291-1.024
					c-0.194-0.175-0.568-0.263-1.121-0.263c-1.217,0-1.826,0.575-1.826,1.727v3.56h-0.867V64.318z"/>
				<path fill="#04A9C3" d="M152.107,61.787v8.449h-0.866l0.043-0.768l-0.024-0.006c-0.272,0.573-0.906,0.86-1.9,0.86
					c-0.908,0-1.528-0.221-1.86-0.662C147.167,69.219,147,68.396,147,67.19c0-1.109,0.167-1.88,0.501-2.312
					c0.334-0.432,0.932-0.646,1.795-0.646c1.077,0,1.719,0.278,1.925,0.835l0.019-0.012v-3.269H152.107z M149.501,64.95
					c-0.64,0-1.064,0.147-1.275,0.442s-0.316,0.893-0.316,1.792c0,0.99,0.104,1.642,0.312,1.953
					c0.208,0.312,0.641,0.467,1.297,0.467c0.714,0,1.178-0.155,1.393-0.467c0.214-0.312,0.322-0.989,0.322-2.033
					c0-0.847-0.119-1.417-0.356-1.712S150.182,64.95,149.501,64.95z"/>
				<path fill="#04A9C3" d="M181.328,61.787v8.449h-0.953v-6.76v-0.508l0.006-0.253l0.007-0.254h-0.025l-0.074,0.198
					c-0.037,0.099-0.062,0.162-0.074,0.191l-0.16,0.396l-2.879,6.988h-0.953l-2.885-6.908l-0.167-0.39l-0.074-0.198
					c-0.021-0.046-0.046-0.109-0.074-0.192h-0.025l0.007,0.229l0.006,0.235v0.464v6.76h-0.953v-8.449h1.652l2.254,5.466l0.358,0.885
					l0.18,0.439l0.174,0.439h0.024l0.173-0.439c0.087-0.21,0.145-0.356,0.174-0.439l0.365-0.879l2.241-5.472H181.328z"/>
				<path fill="#04A9C3" d="M191.398,65.978h-0.86c0-0.689,0.155-1.152,0.468-1.39c0.312-0.237,0.921-0.355,1.829-0.355
					c0.986,0,1.652,0.145,1.999,0.436s0.52,0.846,0.52,1.662v3.906h-0.866l0.068-0.638l-0.019-0.006
					c-0.33,0.486-1.001,0.73-2.012,0.73c-1.494,0-2.241-0.601-2.241-1.802c0-0.714,0.167-1.207,0.502-1.479
					c0.334-0.272,0.938-0.408,1.813-0.408c1.04,0,1.663,0.204,1.869,0.612l0.019-0.006v-0.718c0-0.677-0.093-1.115-0.278-1.315
					s-0.593-0.301-1.22-0.301c-1.064,0-1.597,0.3-1.597,0.898C191.393,65.833,191.395,65.891,191.398,65.978z M192.791,67.309
					c-0.664,0-1.097,0.07-1.297,0.21c-0.2,0.141-0.3,0.442-0.3,0.904c0,0.479,0.099,0.795,0.297,0.95
					c0.198,0.154,0.601,0.231,1.207,0.231c1.222,0,1.832-0.371,1.832-1.113c0-0.467-0.118-0.78-0.355-0.941
					S193.477,67.309,192.791,67.309z"/>
				<path fill="#04A9C3" d="M204.563,64.318h0.835l-0.024,0.805l0.024,0.019c0.265-0.606,0.921-0.909,1.969-0.909
					c0.846,0,1.419,0.148,1.718,0.445s0.449,0.866,0.449,1.708v3.851h-0.867V66.46v-0.223c0-0.508-0.097-0.849-0.291-1.024
					c-0.193-0.175-0.567-0.263-1.12-0.263c-1.218,0-1.826,0.575-1.826,1.727v3.56h-0.866V64.318z"/>
				<path fill="#04A9C3" d="M219.61,65.978h-0.86c0-0.689,0.155-1.152,0.468-1.39c0.312-0.237,0.921-0.355,1.829-0.355
					c0.986,0,1.652,0.145,1.999,0.436s0.52,0.846,0.52,1.662v3.906h-0.866l0.068-0.638l-0.019-0.006
					c-0.33,0.486-1.001,0.73-2.012,0.73c-1.494,0-2.241-0.601-2.241-1.802c0-0.714,0.167-1.207,0.502-1.479
					c0.334-0.272,0.938-0.408,1.813-0.408c1.04,0,1.663,0.204,1.869,0.612l0.019-0.006v-0.718c0-0.677-0.093-1.115-0.278-1.315
					s-0.593-0.301-1.22-0.301c-1.064,0-1.597,0.3-1.597,0.898C219.604,65.833,219.606,65.891,219.61,65.978z M221.003,67.309
					c-0.664,0-1.097,0.07-1.297,0.21c-0.2,0.141-0.3,0.442-0.3,0.904c0,0.479,0.099,0.795,0.297,0.95
					c0.198,0.154,0.601,0.231,1.207,0.231c1.222,0,1.832-0.371,1.832-1.113c0-0.467-0.118-0.78-0.355-0.941
					S221.688,67.309,221.003,67.309z"/>
				<path fill="#04A9C3" d="M237.728,64.318v6.302c0,0.858-0.187,1.448-0.558,1.771c-0.371,0.321-1.052,0.482-2.043,0.482
					c-0.883,0-1.485-0.136-1.808-0.408c-0.321-0.272-0.482-0.782-0.482-1.529h0.836c0,0.508,0.094,0.838,0.281,0.99
					c0.188,0.153,0.6,0.229,1.235,0.229c0.66,0,1.104-0.099,1.331-0.297c0.227-0.198,0.34-0.586,0.34-1.164v-1.188l-0.019-0.006
					c-0.223,0.549-0.866,0.823-1.932,0.823c-0.874,0-1.477-0.216-1.807-0.647c-0.331-0.431-0.495-1.218-0.495-2.361
					c0-1.185,0.168-1.994,0.504-2.43s0.961-0.652,1.873-0.652c0.97,0,1.603,0.297,1.9,0.891l0.019-0.006l-0.044-0.799H237.728z
					 M235.146,64.95c-0.681,0-1.122,0.144-1.324,0.43c-0.202,0.287-0.304,0.915-0.304,1.885c0,0.979,0.102,1.613,0.304,1.904
					s0.644,0.436,1.324,0.436c0.689,0,1.144-0.159,1.362-0.479c0.219-0.319,0.328-0.985,0.328-1.996
					c0-0.892-0.109-1.478-0.328-1.758S235.835,64.95,235.146,64.95z"/>
				<path fill="#04A9C3" d="M250.967,68.447h0.885l0.007,0.217c0,0.615-0.188,1.045-0.561,1.291
					c-0.374,0.245-1.028,0.368-1.966,0.368c-1.089,0-1.804-0.199-2.145-0.598s-0.511-1.234-0.511-2.51
					c0-1.181,0.171-1.973,0.514-2.377s1.014-0.606,2.012-0.606c1.09,0,1.804,0.175,2.143,0.525c0.338,0.352,0.507,1.09,0.507,2.217
					v0.464h-4.259c0,0.933,0.101,1.526,0.301,1.782c0.2,0.257,0.667,0.384,1.401,0.384c0.698,0,1.15-0.061,1.359-0.183
					c0.208-0.121,0.312-0.385,0.312-0.789V68.447z M250.967,66.764l-0.006-0.278c0-0.64-0.105-1.056-0.316-1.247
					c-0.21-0.192-0.664-0.288-1.361-0.288c-0.702,0-1.157,0.112-1.365,0.337c-0.208,0.226-0.312,0.718-0.312,1.477H250.967z"/>
				<path fill="#04A9C3" d="M260.826,64.318h0.866l-0.019,0.892l0.019,0.019c0.334-0.664,0.979-0.996,1.932-0.996
					c1.003,0,1.611,0.332,1.826,0.996h0.024c0.371-0.664,1.05-0.996,2.036-0.996c1.396,0,2.093,0.711,2.093,2.135v3.869h-0.867
					v-3.949c0-0.52-0.093-0.873-0.278-1.059s-0.536-0.278-1.052-0.278c-0.686,0-1.149,0.129-1.394,0.387
					c-0.243,0.258-0.365,0.75-0.365,1.477v3.423h-0.866v-3.869l-0.013-0.272c0-0.763-0.436-1.145-1.306-1.145
					c-1.181,0-1.771,0.642-1.771,1.925v3.361h-0.866V64.318z"/>
				<path fill="#04A9C3" d="M283.017,68.447h0.885l0.007,0.217c0,0.615-0.188,1.045-0.561,1.291
					c-0.374,0.245-1.028,0.368-1.966,0.368c-1.089,0-1.804-0.199-2.145-0.598s-0.511-1.234-0.511-2.51
					c0-1.181,0.171-1.973,0.514-2.377s1.014-0.606,2.012-0.606c1.09,0,1.804,0.175,2.143,0.525c0.338,0.352,0.507,1.09,0.507,2.217
					v0.464h-4.259c0,0.933,0.101,1.526,0.301,1.782c0.2,0.257,0.667,0.384,1.401,0.384c0.698,0,1.15-0.061,1.359-0.183
					c0.208-0.121,0.312-0.385,0.312-0.789V68.447z M283.017,66.764l-0.006-0.278c0-0.64-0.105-1.056-0.316-1.247
					c-0.21-0.192-0.664-0.288-1.361-0.288c-0.702,0-1.157,0.112-1.365,0.337c-0.208,0.226-0.312,0.718-0.312,1.477H283.017z"/>
				<path fill="#04A9C3" d="M292.876,64.318h0.835l-0.024,0.805l0.024,0.019c0.265-0.606,0.921-0.909,1.969-0.909
					c0.846,0,1.419,0.148,1.718,0.445s0.449,0.866,0.449,1.708v3.851h-0.867V66.46v-0.223c0-0.508-0.097-0.849-0.291-1.024
					c-0.193-0.175-0.567-0.263-1.12-0.263c-1.218,0-1.826,0.575-1.826,1.727v3.56h-0.866V64.318z"/>
				<path fill="#04A9C3" d="M310.157,64.318v0.719h-2.277v3.621c0,0.631,0.28,0.946,0.842,0.946c0.557,0,0.835-0.282,0.835-0.848
					l0.007-0.291l0.013-0.328h0.805l0.006,0.439c0,1.164-0.553,1.746-1.659,1.746c-1.143,0-1.715-0.485-1.715-1.455v-0.21v-3.621
					h-0.816v-0.719h0.816v-1.424h0.867v1.424H310.157z"/>
			</g>
			<path fill="#04A9C3" d="M226.422,50.264c0,2.235,1.812,4.05,4.05,4.05h34.242c2.235,0,4.05-1.814,4.05-4.05V16.022
				c0-2.238-1.814-4.051-4.05-4.051H233.85v0.16l-3.546-9.789c-2.237,0-3.882,1.814-3.882,4.051V50.264z M262.901,45.333
				c0,1.771-1.435,3.204-3.204,3.204h-24.379c-1.77,0-3.203-1.434-3.203-3.204V20.952c0-1.768,1.434-3.204,3.203-3.204h24.379
				c1.77,0,3.204,1.436,3.204,3.204V45.333z"/>
		</g>
	</g>
</g>
</svg>
