<?xml version="1.0" encoding="utf-8"?>
<!-- Generator: Adobe Illustrator 16.0.0, SVG Export Plug-In . SVG Version: 6.00 Build 0)  -->
<!DOCTYPE svg PUBLIC "-//W3C//DTD SVG 1.1//EN" "http://www.w3.org/Graphics/SVG/1.1/DTD/svg11.dtd">
<svg version="1.1" id="Layer_1" xmlns="http://www.w3.org/2000/svg" xmlns:xlink="http://www.w3.org/1999/xlink" x="0px" y="0px"
	 width="611.97px" height="626.969px" viewBox="0 0 611.97 626.969" enable-background="new 0 0 611.97 626.969"
	 xml:space="preserve">
<g>
	<path fill-rule="evenodd" clip-rule="evenodd" fill="#AFD8D8" d="M138.973,237.646c-1.707-0.807-2.928-0.623-3.633,1.142
		c-0.231,0.58-0.708,0.769-1.197,0.142c-2.367-3.027-5.743-1.485-8.685-1.902c-0.561-0.08-0.977,0.205-0.86,0.788
		c0.294,1.464-0.712,2.166-1.672,2.773c-0.877,0.554-1.811,1.039-2.719,1.553c-1.024,0.58-2.058,0.76-3.363,0.174
		c-8.667-3.887-17.483-7.448-26.082-11.477c-7.757-3.635-15.254-7.82-22.665-12.121c-3.196-1.855-6.7-2.231-10.125-3.064
		c-6.559-1.595-13.185-2.915-19.665-4.832c-0.945-0.28-1.925-0.475-2.903-0.609c-5.915-0.816-10.789-4.265-16.193-6.37
		c-0.597-0.232-1.188-0.493-1.749-0.8c-0.935-0.51-2.754-0.59-2.641-1.579c0.2-1.745,0.103-3.844,2.001-5.041
		c1.621-1.022,3.335-1.85,5.148-2.42c1.976-0.621,2.857-2.173,2.15-4.101c-0.12-0.328-0.219-0.666-0.356-0.987
		c-0.518-1.212-1.854-2.319-0.83-3.772c0.789-1.118,0.858-2.585,2.109-3.506c1.356-0.999,2.063-2.497,1.853-4.283
		c-0.139-1.182,0.765-2.063,0.936-3.123c0.353-2.188,1.724-3.084,3.548-4.196c1.445-0.881,3.18-1.723,4.426-3.347
		c0.865-1.127,3.012-1.719,4.604-2.451c0.819-0.376,1.477-0.954,1.804-1.453c0.892-1.363,2.053-1.256,3.229-0.966
		c0.857,0.212,1.55,0.125,2.345-0.177c2.542-0.966,5.273-1.108,7.915-1.631c0.944-0.187,1.764-0.406,2.145-1.196
		c1.034-2.145,2.959-2.011,4.831-2.091c0.345-0.015,0.755,0.127,1.025-0.013c1.498-0.778,1.97-0.398,2.099,1.306
		c0.06,0.783,1.969,1.525,2.136,1.398c1.101-0.835,2.429,0.294,3.404-0.544c0.91-0.782,0.998-1.931,1.185-3.002
		c1.965-11.237,3.876-22.483,5.885-33.711c0.569-3.183,1.348-6.374,1.798-9.53c0.313-2.2,1.171-5.114-1.364-7.25
		c-0.968-0.815-1.47-2.346-1.058-4.008c0.223-0.899-0.213-2.26-1.125-2.878c-1.098-0.743-2.114-1.68-3.292-2.217
		c-1.862-0.85-2.762-2.074-2.702-4.12c0.07-2.391,0.135-4.79,0.011-7.175c-0.074-1.4,0.577-1.879,1.746-2.063
		c2.014-0.316,3.92-0.98,5.737-1.877c0.57-0.281,0.954-0.349,1.334,0.201c0.501,0.725,1.241,0.877,2.066,1.091
		c1.002,0.26,1.686-0.243,2.462-0.531c1.427-0.531,0.144-1.268,0.123-1.928c-0.032-1.017,0.349-1.996-0.093-3.063
		c-0.9-2.172-1.898-2.932-4.313-2.78c-1.902,0.119-3.697-0.751-5.614-0.504c-0.507,0.065-0.331-0.513-0.334-0.799
		c-0.022-2.101-0.001-4.202-0.019-6.303c-0.005-0.571,0.082-1.023,0.717-1.211c1.451-0.429,2.826-1.502,4.436-0.631
		c1.054,0.571,2.115,0.15,3.169,0.154c5.135,0.019,10.271,0.018,15.406-0.006c0.525-0.003,1.251,0.316,1.521-0.445
		c0.217-0.613-0.31-0.889-0.714-1.244c-0.475-0.417-0.627-1.071-0.213-1.571c0.542-0.654,0.849,0.004,1.213,0.353
		c0.54,0.517,1.283,0.715,1.87,1.215c0.667,0.569,1.221,0.081,1.731-0.533c0.93-1.118,1.532-2.828,3.598-2.164
		c0.479,0.154,0.804-0.337,1.041-0.773c0.278-0.51,0.56-1.034,0.931-1.475c0.451-0.534,1.125-1.076,1.753-0.952
		c0.685,0.134,0.276,0.997,0.396,1.529c0.218,0.963,0.428,1.93,0.635,2.896c0.103,0.48,0.316,1.031,0.772,1.087
		c2.743,0.343,2.198,2.594,2.391,4.256c0.199,1.724,0.058,3.496-0.035,5.243c-0.068,1.277,0.52,1.664,1.536,1.131
		c1.837-0.963,3.005-0.128,4.242,1.139c1.423,1.458,3.14,2.642,4.487,4.16c1.772,1.996,6.555,1.71,8.17-0.419
		c0.88-1.16,2.03-1.762,3.512-1.764c1.451-0.002,1.908,0.56,1.438,1.877c-0.039,0.109-0.094,0.216-0.16,0.311
		c-0.712,1.019-0.944,2.074,0.229,2.854c0.743,0.495,2.79-0.814,2.902-1.922c0.146-1.447,0.6-2.052,2.217-1.973
		c1.307,0.064,1.493-1.285,1.526-2.326c0.025-0.77,0.113-1.074,0.96-0.792c0.662,0.221,0.968-0.301,1.38-0.767
		c0.779-0.882,1.501-1.617,3.093-1.189c1.229,0.33,2.165-1.268,3.147-2.119c0.297-0.257,0.436-0.7,0.737-0.948
		c0.345-0.284,0.641-0.789,1.095,0.15c0.603,1.248,1.399,1.12,2-0.151c0.271-0.573,0.753-0.886,1.257-1.169
		c2.075-1.164,2.96-2.915,2.885-5.292c-0.06-1.88,0.324-2.047,2.273-1.87c1.213,0.11,2.631-0.208,3.367-1.005
		c1.915-2.074,4.408-1.624,6.718-2.024c0.099-0.017,0.288,0.042,0.313,0.109c0.804,2.146,2.61,2.075,4.488,2.35
		c2.229,0.326,2.859,2.205,1.408,4.25c-1.005,1.417-0.72,2.345,0.364,3.266c1.316,1.117,1.857,2.581,2.333,4.162
		c0.304,1.009,0.663,1.99,1.3,2.948c0.854,1.282,0.401,2.995-0.234,4.4c-0.646,1.429-0.479,4.238,0.491,5.536
		c0.531,0.711,0.189,1.584,0.207,2.364c0.048,2.054,1.376,3.572,2.163,5.278c0.593,1.285,0.588,2.717,1.337,3.907
		c0.172,0.274,0.15,0.625-0.052,0.815c-0.897,0.842-1.275,1.86-1.432,3.072c-0.046,0.359-0.631,1.126-1.301,0.876
		c-0.755-0.282-1.143-0.042-1.294,0.617c-0.167,0.727-0.295,1.461,0.47,2.053c1.95,1.504,3.738,3.256,5.82,4.539
		c1.565,0.964,1.595,2.615,2.455,3.866c0.552,0.803,0.976,1.268,2.069,1.079c1.306-0.227,2.462,0.35,3.385,1.311
		c0.198,0.206,0.292,0.531,0.513,0.693c0.445,0.326,0.942,1.104,1.442,0.674c0.51-0.438,0.451-1.236-0.154-1.848
		c-1.573-1.59-1.96-3.427-0.884-5.436c0.726-1.355-0.362-2.672,0.09-4.106c0.302-0.959,0.587-1.793,1.247-2.537
		c1.482-1.669,4.788-2.808,6.629-1.793c1.315,0.724,2.612,1.954,2.935,3.576c0.185,0.928,0.324,1.342,1.347,1.302
		c1.407-0.055,2.895,0.513,3.883-1.177c0.287-0.492,1.194-0.629,1.825-0.91c1.276-0.568,1.487-1.459,0.6-2.471
		c-0.793-0.905-0.778-1.563-0.267-2.725c0.751-1.707,1.469-3.467,2.013-5.292c0.499-1.672,1.828-3.04,2.482-4.716
		c0.175-0.447,0.705-0.323,1.099-0.323c4.669-0.006,9.338,0.023,14.006-0.024c1.063-0.011,1.224,0.445,1.243,1.36
		c0.048,2.259,0.283,4.516,0.281,6.772c0,0.99,0.593,1.813,1.141,1.993c1.282,0.421,1.072,1.243,1.009,2.125
		c-0.066,0.914,0.036,1.832,0.832,2.361c2.396,1.594,3.558,4.086,4.969,6.433c0.699,1.162,2.422,0.976,3.36,2.037
		c0.195,0.221,0.729-0.611,1.123-0.937c0.265-0.219,0.506-0.548,0.895-0.303c0.344,0.217,0.356,0.583,0.238,0.933
		c-0.691,2.054,0.092,3.114,2.131,3.737c0.616,0.188,1.573,0.653,1.875,1.563c0.147,0.444,0.583,0.543,0.95,0.68
		c2.265,0.845,4.233,2.497,6.91,2.283c0.549-0.044,1.409,0.717,1.866,1.438c1.111,1.752,2.843,2.555,4.865,3.16
		c0.153,0.651-0.979,1.563,0.17,2.188c1.039,0.565,1.938,0.967,3.177,0.08c0.912-0.653,2.327,0.181,3.569-0.336
		c-1.644,0.535-2.422,2.063-2.428,3.25c-0.023,4.479-2.712,7.882-4.37,11.652c-7.332,16.68-14.884,33.263-22.326,49.895
		c-0.59,1.319-1.641,2.216-2.569,3.208c-1.907,2.041-1.761,4.927,0.379,6.728c1.498,1.261,2.965,2.563,2.918,4.844
		c-0.011,0.53,0.009,0.989-0.236,1.454c-0.3,0.568-0.737,1.188-0.56,1.801c0.512,1.78-0.736,2.955-1.67,3.878
		c-0.899,0.89-0.929,1.563-0.467,2.382c1.549,2.741,0.762,5.29-0.354,7.914c-0.686,1.615-0.448,3.401-0.562,5.216
		c-6.534,0-13.183,0.002-19.832,0c-8.462-0.003-16.924-0.012-25.386-0.014c-0.92,0-1.674,0.007-2.387-0.941
		c-0.933-1.241-3.303-0.674-3.912,0.831c-0.452,1.116-0.607,1.317-1.915,0.608c-1.39-0.753-1.514-2.173-2.325-2.845
		c-1.432-1.188-2.435-2.458-3.309-4.048c-0.436-0.793-1.808-0.626-2.594-1.484c-0.677-0.737-1.167-1.381-1.564-2.336
		c-0.584-1.402-2.002-2.332-3.533-2.434c-3.488-0.231-6.998,0.152-10.49-0.242c-0.328-0.037-0.815-0.12-0.896,0.306
		c-0.286,1.513-1.479,2.587-1.889,4.004c-0.184,0.637-0.375,0.817-1.011,0.871c-1.958,0.166-2.527,0.781-2.463,2.757
		c0.055,1.675-0.229,3.018-1.97,3.806c-1.004,0.455-0.738,1.638-0.79,2.529c-0.073,1.261-0.183,2.176-1.617,0.903
		c-0.355-0.315-0.764-0.181-1.154-0.039c-1.983,0.723-4.042,0.883-6.133,0.854c-2.18-0.03-3.197,0.911-2.898,3
		c0.266,1.852-1.33,2.364-2.148,3.388c-0.442,0.554-0.698-0.301-0.791-0.679c-0.407-1.66-1.198-1.749-2.675-1.051
		C140.071,235.788,138.578,235.628,138.973,237.646z"/>
	<path fill-rule="evenodd" clip-rule="evenodd" fill="#AFD8D8" d="M320.079,72.79c-0.602,1.734,0.114,4.059,1.5,5.094
		c0.697,0.52,1.336,1.117,2.009,1.668c0.988,0.811,1.296,1.615,0.738,2.975c-0.941,2.297,0.425,4.325,1.347,6.326
		c0.529,1.147,1.25,2.201,1.547,3.458c0.204,0.867,0.605,1.424,1.56,1.87c1.461,0.683,2.609,1.805,2.48,3.794
		c-0.089,1.377,0.089,2.776,2.157,2.86c1.037,0.042,0.47,1.216,0.602,1.883c0.165,0.84-1.398,2.392,1.029,2.32
		c0.44-0.013,0.021,0.771,0.111,1.207c0.324,1.566,1.386,2.731,2.966,2.924c0.867,0.106,1.714,0.091,2.023,1.226
		c0.162,0.596,0.958,0.717,1.31,0.343c0.823-0.876,1.9-0.697,2.865-0.902c1.861-0.396,3.116-1.621,2.938-3.472
		c-0.239-2.472,0.798-4.3,2.486-5.861c1.801-1.666,2.343-4.11,3.827-5.971c0.489-0.614,0.864-1.22,1.75-1.248
		c0.272-0.009,0.658-0.125,0.791-0.325c1.44-2.168,3.941-2.69,5.978-3.931c1.981-1.207,2.859-3.234,3.403-5.316
		c0.514-1.965,2.163-2.685,3.894-2.918c1.285-0.172,1.476,0.932,1.723,1.761c0.175,0.588-0.088,1.298,0.05,1.906
		c0.151,0.661-0.75,1.503,0.062,1.872c0.841,0.381,1.883,0.879,2.801,0.473c1.047-0.463,2.11,0.2,3.137-0.315
		c0.378-0.19,0.593,0.454,0.76,0.81c1.363,2.904,3.638,4.728,6.647,5.738c0.99,0.332,1.866,0.895,2.742,1.497
		c1.474,1.014,3.291,0.824,4.979,1.047c0.335,0.044,0.688-0.086,1.035-0.092c2.931-0.054,3.002-0.019,1.857,2.533
		c-0.503,1.123-0.212,1.379,0.834,1.772c2.088,0.786,4.299,1.226,6.253,2.507c0.472,0.31,2.433,0.606,3.504-0.503
		c0.655-0.678,1.24-1.178,1.81,0.307c0.301,0.781,2.285-0.01,2.414,1.672c0.006,0.083,0.896-0.128,0.773-0.755
		c-0.245-1.258,0.854-1.205,1.49-1.479c0.739-0.318,0.67,0.481,0.916,0.874c0.393,0.629,1.546,0.543,1.355,2.167
		c1.381-2.545,1.956,0.363,2.979-0.22c0.418,1.453,2.015,1.223,2.851,1.412c1.237,0.28,2.085,2.008,3.609,1.078
		c0.798,1.721,3.096,0.948,4.04,2.429c0.03,0.047,0.081,0.107,0.129,0.114c3.062,0.489,1.514,2.595,1.414,4.149
		c-0.03,0.474,0.099,0.845,0.174,1.268c0.209,1.165,0.425,2.519-1.368,2.758c-0.6,0.08-1.003,0.415-1.057,0.988
		c-0.049,0.532,0.087,1.074,0.794,1.123c0.235,0.017,0.458,0.005,0.57,0.264c0.405,0.931-0.916,4.855-1.929,5.334
		c-1.422,0.673-1.59,2.047-1.427,3.141c0.26,1.731-0.596,2.598-1.797,3.304c-1.171,0.688-1.375,1.338-1.398,2.833
		c-0.024,1.512,0.257,3.372-1.229,5.024c-2.062,2.292-4.415,4.947-4.743,7.992c-0.324,3.005-1.637,4.741-3.799,6.312
		c-0.222,0.162-0.456,0.436-0.503,0.691c-0.48,2.582-2.519,4.316-3.568,6.592c-0.314,0.68-0.9,1.393-1.942,0.936
		c-0.539-0.236-0.939,0.061-1.39,0.427c-4.328,3.531-8.694,7.014-13.028,10.538c-0.505,0.411-1.337,0.702-1.134,1.592
		c0.168,0.745,0.971,0.478,1.417,0.75c1.139,0.696,2.297,0.735,3.518,0.411c0.293-0.078,0.668-0.208,0.81,0.045
		c0.686,1.222,1.796,1.842,2.951,2.549c0.857,0.524-0.022,1.199-0.591,1.304c-1.939,0.356-1.636,1.561-1.031,2.721
		c0.344,0.661,0.01,0.824-0.205,1.337c-0.554,1.316-0.912,2.681-2.177,3.54c0.808,2.011-1.185,2.376-2.039,3.378
		c-0.616,0.722-1.413,1.39-1.322,2.366c0.172,1.868-1.321,2.35-2.425,2.5c-2.09,0.283-3.604,1.51-5.284,2.483
		c-0.744,0.432-0.821,1.235-0.593,2.026c0.708,2.456,0.154,4.523-1.642,6.385c-1.499,1.554-1.305,3.5,0.488,4.773
		c1.521,1.08,2.071,2.232,1.582,4.114c-0.434,1.667-0.365,3.648-1.333,4.969c-1.739,2.373-2.489,5.378-4.603,7.389
		c-1.126,1.072-2.886,1.55-3.571,3.125c-1.125,2.583-3.729,4.261-4.311,7.158c-0.328,1.63-0.619,3.254-1.448,4.75
		c-0.371,0.67-0.736,0.921-1.477,0.87c-5.931-0.403-11.864-0.766-17.794-1.169c-4.126-0.281-8.248-0.639-12.375-0.904
		c-10.639-0.685-21.27-1.477-31.892-2.393c-6.443-0.556-12.896-0.979-19.341-1.509c-4.876-0.4-9.738-0.986-14.635-1.094
		c-0.474-0.01-0.717-0.128-0.858-0.628c-0.375-1.327-1.351-1.766-2.668-1.73c-0.837,0.022-1.625,0.036-1.354-1.339
		c0.193-0.979-2.034-3.298-3.23-3.587c-1.055-0.254-2.217-0.248-2.554-1.615c-0.022-0.09-0.159-0.18-0.262-0.217
		c-3.892-1.431-3.185-4.747-3.108-7.749c0.016-0.616,0.109-1.183-0.35-1.601c-1.807-1.646-2.394-3.912-3.06-6.103
		c-0.8-2.633-1.726-5.145-3.949-6.954c-0.205-0.167-0.417-0.491-0.404-0.729c0.129-2.458-1.748-3.707-3.196-5.119
		c-1.759-1.716-1.886-3.654-0.056-5.354c1.07-0.994,1.919-2.107,2.531-3.473c6.319-14.093,12.693-28.161,19.036-42.243
		c2.561-5.685,5.089-11.385,7.614-17.086c0.313-0.708,0.669-1.337,0.384-2.286c-0.247-0.825,0.208-1.756,1.301-2.151
		c1.413-0.511,2.484-1.484,3.171-2.857c0.184-0.368,0.496-0.727,0.221-1.117c-0.228-0.322-0.65-0.143-0.988-0.136
		c-0.231,0.004-0.541-0.024-0.679,0.107c-1.882,1.776-4.543,1.308-6.689,2.334c-0.747,0.357-1.388,0.22-1.062-0.926
		c0.332-1.167,0.08-1.779-1.374-1.93c-1.555-0.161-2.763-1.145-3.57-2.596c-0.584-1.051-1.36-2.218-2.694-2.133
		c-1.842,0.117-3.214-0.851-4.781-1.456c-1.94-0.749-3.346-2.313-5.259-3.089c-0.75-0.305-1.453-0.983-0.95-2.093
		c0.472-1.04-0.096-1.833-0.877-2.417c-0.841-0.629-1.333,0.15-1.938,0.589c-1.352,0.98-2.009-0.559-2.942-0.971
		c-0.751-0.331-0.838-1.338-1.065-2.112c-0.313-1.064-0.858-1.742-1.867-2.43c-1.215-0.83-2.991-1.646-2.51-3.924
		c0.224-1.063-0.329-2.361-1.609-2.79c-0.812-0.272-0.657-0.811-0.701-1.366c-0.535-6.739-0.321-13.49-0.378-20.237
		c-0.008-0.999,0.067-1.724,1.345-1.615c0.418,0.035,0.769-0.31,0.977-0.664c0.479-0.812,1.166-0.872,1.96-0.631
		c1.04,0.316,1.683-0.167,1.995-1.088c0.335-0.986,0.854-1.84,1.354-2.729c0.806-1.436,1.869-0.845,2.407-0.538
		c0.695,0.397,1.336,0.413,2.009,0.611c1.188,0.351,1.391-0.243,1.676-1.058c0.334-0.954,2.72-2.347,3.668-2.182
		c3.177,0.556,3.362,0.467,4.672-2.389c0.456-0.992,0.918-1.908,2.257-1.17c0.102,0.056,0.277,0.171,0.304,0.145
		c2.243-2.232,3.629,0.946,5.583,0.957c0.922,0.006,1.49-0.412,2.16-0.51c2.045-0.299,4.157-0.915,6.257-0.027
		c1.072,0.453,2.213,0.761,3.347,1.043c1.219,0.303,2.667,0.078,2.918-1.121c0.253-1.203,0.629-2.806-0.554-3.882
		c-0.613-0.558-1.045-1.172-1.5-1.838c-0.337-0.495-0.886-0.677,0.125-0.904c0.126-0.028,0.162-0.41,0.26-0.618
		c1.043-2.222,1.058-2.244,3.266-0.897c0.591,0.36,1.125,0.344,1.788,0.336c1.318-0.017,2.554-0.538,3.964-0.247
		c1.079,0.223,1.739-1.339,2.976-1.608c0.991-0.216,2.134,0.108,3.005-0.674c0.033-0.03,0.328,0.13,0.397,0.257
		c1.004,1.849,2.622,3.374,2.01,5.921c-0.444,1.848,0.722,3.704,0.912,5.616c0.076,0.764,1.157,0.755,1.939,0.785
		c2.076,0.077,4.171,0.193,5.937,1.467c0.696,0.503,1.319,1.142,1.868,1.807c1.164,1.411,2.789,2.205,4.415,2.571
		c1.659,0.375,3.38,0.196,4.097,2.22C318.792,73.126,319.581,72.563,320.079,72.79z"/>
	<path fill-rule="evenodd" clip-rule="evenodd" fill="#5FA0A0" d="M325.339,371.021c-1.348-0.679-2.907-0.279-4.125-1.144
		c-0.117-0.083-0.396-0.122-0.471-0.049c-1.309,1.283-2.788-0.072-4.157,0.285c-1.332,0.347-1.689-1.645-3.115-1.104
		c0.471-1.495,1.049-2.552,2.611-2.682c0.735-0.061,1.064-0.58,1.066-1.345c0.006-1.75,0.097-3.5,0.082-5.25
		c-0.01-1.197-0.902-1.659-1.858-0.958c-0.502,0.369-0.922,0.885-1.285,1.401c-0.717,1.02-1.478,1.961-2.807,2.146
		c-0.516,0.071-0.738,0.332-0.684,0.807c0.109,0.948-0.39,0.979-1.188,1.102c-1.965,0.302-1.951,0.393-3.392-0.96
		c-1.334-1.254-4.226-1.531-5.306-0.216c-1.401,1.707-3.344,1.695-4.889,1.298c-2.591-0.667-5.342-1.24-7.321-3.499
		c-1.229-1.403-3.403-1.098-4.971-2.024c-0.136-0.08-0.417,0.031-0.506-0.064c-2.596-2.762-4.842-0.527-7.199,0.459
		c-1.055,0.441-2.213,0.648-3.346,0.57c-2.272-0.155-2.824,0.695-4.114,2.604c-0.976,1.443-1.751,3.373-3.391,4.198
		c-1.618,0.814-3.473,1.285-5.276,1.556c-1.065,0.161-1.392-1.242-2.004-1.959c-0.241-0.282-0.433-0.752-0.632-1.145
		c-0.941-1.851-2.706-2.858-4.668-2.678c-1.763,0.162-2.77-1.288-3.93-2.167c-2.242-1.698-2.568-4.394-3.054-7.001
		c-0.382-2.051-0.129-3.624,1.407-5.211c0.684-0.706,0.854-2.195,0.718-3.419c-0.048-0.429,0.066-1.048-0.609-1.064
		c-0.473-0.011-1.141-0.405-1.403,0.267c-0.297,0.76-0.859,0.693-1.43,0.646c-7.733-0.64-15.495-0.557-23.24-0.891
		c-1.04-0.044-1.44-0.369-1.516-1.382c-0.217-2.903-0.595-5.798-0.715-8.704c-0.066-1.595-0.724-2.725-1.778-3.806
		c-0.918-0.94-1.703-2.011-2.825-3.357c1.289,0,2.196-0.061,3.092,0.015c1.165,0.098,1.433-0.443,1.24-1.458
		c-0.087-0.457-0.22-0.935-0.168-1.384c0.451-3.886-1.116-7.212-2.827-10.514c-0.633-1.222-0.284-2.396,0.505-3.411
		c0.563-0.724,0.188-1.215,0.024-1.967c-0.409-1.872-1.714-2.685-3.06-3.646c-0.656-0.469-0.511-1.08,0.265-1.474
		c0.766-0.39,1.489-0.862,2.259-1.244c0.629-0.312,1.175-0.883,1.174-1.434c-0.002-1.838,1.258-3.2,1.631-4.879
		c0.138-0.62,0.523-1.245,1.108-1.473c1.498-0.585,1.716-1.791,1.627-3.115c-0.151-2.27,0.428-3.966,2.858-4.723
		c1.114-0.347,0.709-2.108,2.549-2.497c-3.06-1.146-2.545-3.813-3.629-5.619c-0.292-0.486-0.374-1.126-0.73-1.542
		c-1.854-2.158-1.92-3.987,0.063-5.935c1.139-1.119,2.045-2.105,0.729-3.66c-0.152-0.18-0.134-0.564-0.093-0.839
		c0.217-1.441-0.487-2.321-1.831-2.151c-1.57,0.198-2.979-1.081-4.543-0.322c-0.051,0.025-0.22-0.07-0.251-0.145
		c-0.895-2.127-2.771-1.269-4.261-1.308c-3.732-0.097-7.469-0.067-11.203-0.017c-1.414,0.019-1.428-0.568-1.181-1.728
		c0.62-2.913,1.329-5.794-0.405-8.717c-0.556-0.936-0.975-2.497-0.326-3.704c0.659-1.226,0.651-2.456,0.551-3.728
		c-0.053-0.665-0.061-1.317,0.338-1.84c0.705-0.924,0.539-2.006-0.041-2.645c-0.793-0.874-0.336-2.269-1.49-2.915
		c-0.287-0.161-0.2-0.656,0.299-0.734c1.159-0.182,1.041-1.116,0.789-1.751c-0.471-1.188-0.063-2.155,0.398-3.164
		c0.072-0.158,0.289-0.314,0.267-0.44c-0.444-2.449,1.375-1.677,2.487-1.678c13.714-0.012,27.427,0.009,41.141,0.043
		c1.329,0.004,2.565-0.093,3.479-1.22c0.277-0.342,0.537-0.699,0.129-1.055c-1.542-1.346-0.976-2.781-0.229-4.236
		c0.95-1.848,1.558-4.036,0.738-5.782c-1.049-2.236-0.469-3.779,0.824-5.386c0.624-0.776,1.004-1.456,0.654-2.509
		c-0.217-0.652-0.012-1.525,0.699-1.813c0.829-0.335,0.998,0.606,1.344,1.072c1.297,1.743,1.876,3.82,2.448,5.856
		c0.429,1.528,0.916,2.998,2.005,4.136c1.133,1.183,0.782,2.532,0.667,3.855c-0.188,2.153,1.103,3.965,1.3,6.021
		c0.005,0.049,0.068,0.135,0.097,0.132c2.183-0.217,2.783,2.4,4.688,2.633c2.024,0.246,3.083,1.283,3.196,3.367
		c0.061,1.111,0.886,1.613,1.942,1.578c1.293-0.043,2.328,0.077,2.338,1.77c0.003,0.55,0.482,0.846,1.145,0.766
		c4.718-0.572,9.354,0.54,14.037,0.74c3.717,0.159,7.421,0.61,11.132,0.92c6.784,0.568,13.566,1.163,20.354,1.68
		c5.63,0.43,11.27,0.746,16.902,1.146c5.921,0.421,11.838,0.91,17.761,1.318c4.358,0.301,8.721,0.522,13.083,0.776
		c0.64,0.037,1.287,0.014,1.921,0.091c1.996,0.241,2.398,1.011,1.099,2.564c-0.895,1.07-1.186,2.137-1.29,3.472
		c-0.135,1.758-1.322,3.195-2.08,4.725c-1.075,2.167-1.125,4.416-1.395,6.688c-0.211,1.783-0.375,3.561-1.104,5.277
		c-0.638,1.503-1.363,3.201,0.284,4.658c0.107,0.096,0.188,0.346,0.142,0.475c-0.974,2.721,0.219,5.45-0.028,8.182
		c-0.085,0.935,0.271,1.925,0.512,2.867c0.107,0.421,0.182,0.784-0.044,1.165c-1.141,1.915-0.582,3.768,0.179,5.626
		c0.165,0.401,0.365,0.786,0.769,0.895c1.421,0.386,1.115,1.101,0.288,1.745c-0.548,0.426-0.695,0.948-0.676,1.508
		c0.059,1.727,0.227,3.43-0.961,4.939c-1.146,1.457-1.333,3.459-2.648,4.841c-0.308,0.323-0.265,0.726-0.236,1.149
		c0.094,1.426,0.138,2.856,0.201,4.285c0.007,0.162,0.083,0.41,0.006,0.474c-2.14,1.792-1.917,4.154-2.079,6.654
		c-0.15,2.31-0.941,4.74-2.37,6.767c-0.281,0.399-0.698,1.07-1.235,0.683c-1.94-1.401-3.199,0.239-4.458,1.071
		c-1.685,1.114-2.633,2.835-2.6,4.994c0.012,0.8-0.129,1.662-1.01,2.074c-0.421,0.197-0.405,0.48-0.303,0.854
		c0.5,1.825-0.597,2.567-1.98,3.461c-1.312,0.848-2.584,1.063-4.032,1.05c-0.699-0.006-1.105,0.411-1.36,1.106
		c-0.522,1.424-1.377,2.516-3.059,2.718c-0.662,0.08-1.112,0.552-1.293,1.262c-0.129,0.5-0.359,0.928-0.952,1.143
		c-1.429,0.517-1.421,1.635-0.74,2.66c0.572,0.862,0.171,1.147-0.287,1.863c-1.188,1.859-3.338,2.861-4.431,4.444
		c-2.696,3.903-4.528,8.359-4.193,13.351c0.011,0.163-0.092,0.469-0.066,0.478C324.692,367.258,324.104,369.682,325.339,371.021z"/>
	<path fill-rule="evenodd" clip-rule="evenodd" fill="#44A8B2" d="M518.228,352.875c-1.208,0.647-2.284-0.5-2.967,0.436
		c-0.999,1.368-1.604,2.962-1.464,4.7c0.058,0.719,0.008,1.295-0.309,1.982c-0.493,1.071-0.984,2.307,0.94,2.734
		c0.794,0.177,0.627,1.324,1.22,1.825c1.017,0.859,1.994,1.766,3.044,2.58c0.566,0.439,0.89,1.071,0.73,1.609
		c-0.164,0.557-0.914,0.612-1.522,0.577c-0.69-0.04-1.373,0.016-2.047-0.305c-1.438-0.683-2.079,0.634-3.089,1.187
		c-0.987,0.542-2.16-1.188-3.389-0.259c-0.307,0.232-0.756,0.597-0.479,1.009c0.688,1.02-0.17,1.374-0.752,1.559
		c-2.275,0.725-2.813,2.573-3.324,4.571c-0.254,0.993,0.021,1.366,0.909,1.316c1.403-0.078,1.377,0.595,1.034,1.618
		c-0.246,0.736-0.563,1.563,0.724,1.764c0.623,0.097,1.154,0.517,0.771,1.227c-0.341,0.633-1.221,0.57-1.54,0.253
		c-0.693-0.689-1.387-0.301-2.09-0.317c-0.709-0.016-0.818,0.542-0.99,1.03c-0.273,0.771,0.471,0.998,0.836,1.065
		c1.221,0.223,1.811,0.81,1.854,2.077c0.014,0.408,0.324,0.949,0.666,1.18c1.764,1.184,1.37,2.81,1.043,4.453
		c-0.103,0.519,0.105,1.27-0.914,0.85c-0.346-0.143-0.45,0.246-0.471,0.55c-0.066,0.954-0.752,1.521-1.336,2.153
		c-0.154,0.167-0.458,0.36-0.438,0.504c0.359,2.45-2.072,3.707-2.467,5.838c-0.283,1.527-1.174,2.337-2.84,2.084
		c-0.572-0.086-1.166-0.015-1.75-0.013c-2.402,0.008-3.549,1.916-2.879,4.212c0.479,1.641-0.441,3.245-1.135,4.732
		c-0.148,0.319-0.787,0.277-0.61,1.056c0.123,0.54-0.46,1.074-1.225,1.215c-1.092,0.202-2.354,0.41-1.591,2.089
		c0.039,0.087,0.024,0.25-0.034,0.321c-1.985,2.434-1.404,5.905-3.376,8.345c-0.137,0.17-0.318,0.504-0.249,0.613
		c1.159,1.794-0.574,1.705-1.402,2.11c-2.651,1.298-5.343,2.515-7.989,3.821c-0.564,0.279-0.828,0.278-1.447-0.052
		c-1.344-0.716-2.861-0.869-4.301,0.003c-0.43,0.26-0.874,0.689-1.43,0.351c-1.436-0.872-2.804,0.157-4.135,0.31
		c-2.166,0.249-4.44,0.747-6.239,2.292c-0.275,0.237-0.759,0.356-1.134,0.331c-3.119-0.207-5.617,1.711-8.461,2.438
		c-0.985,0.252-1.832,0.849-2.945,0.871c-1.519,0.031-2.541,1.286-3.798,1.974c-0.82,0.449-1.545,0.78-2.564,0.204
		c-1.142-0.646-2.53,0.085-3.856-0.357c-0.882-0.293-2.208,2.481-1.759,3.65c-0.937,0.042-1.86,0.08-2.59,0.769
		c-0.3,0.283-0.861,0.541-1.119,0.305c-0.96-0.88-1.866-0.23-2.805-0.071c-0.772,0.131-0.973,0.123-1.026-0.991
		c-0.066-1.375-0.189-3.193-1.095-4.144c-0.617-0.647-1.838-1.206-2.774-1.791c-0.922-0.577-1.949-1.643-0.805-2.755
		c1.33-1.293,0.631-2.743,0.436-3.965c-0.292-1.831-0.342-3.218,1.274-4.523c1.383-1.118,0.567-3.366-0.863-4.545
		c-1.63-1.346-3.093-1.007-4.682-0.349c-0.682,0.282-1.089,0.007-1.248-0.502c-0.427-1.367-1.476-2.41-1.825-3.833
		c-0.25-1.018-0.367-2.082-1.217-2.972c-0.771-0.806,0.162-1.56,0.716-2.158c1.179-1.272,0.994-3.407-0.539-4.131
		c-1.463-0.692-1.465-1.899-0.979-2.941c0.699-1.499-0.004-2.287-0.989-3.11c-0.088-0.074-0.186-0.153-0.293-0.189
		c-1.291-0.428-1.294-1.967-2.082-2.544c-0.474-0.348-2.148,1.178-2.859,0.874c-2.626-1.125-4.374,0.258-6.223,1.605
		c-0.59,0.429-1.019,0.361-1.469-0.22c-0.705-0.909-1.235-1.994-2.332-0.08c-0.374,0.653-2.225,0.509-3.412,0.636
		c-1.318,0.141-2.615,0.498-3.961,0.385c-1.232-0.104-1.422,0.987-1.85,1.697c-0.345,0.189-0.327-0.079-0.343-0.202
		c-0.103-0.805-0.322-1.451-1.308-1.567c-0.93-0.11-1.192,0.506-1.514,1.146c-0.223,0.445-0.336,1.091-1.027,1.008
		c-0.631-0.077-0.784-0.709-0.911-1.17c-0.222-0.81-0.541-1.684,0.238-2.436c0.39-0.375,0.395-0.849,0.081-1.264
		c-0.271-0.357-0.731-0.463-1.114-0.299c-1.158,0.496-2.09,0.332-2.98-0.613c-0.343-0.363-1.001-0.191-1.523-0.103
		c-2.479,0.419-4.916,0.604-7.301-0.574c-0.624-0.308-1.488-0.168-2.241-0.167c-0.776,0.003-1.536-0.01-2.113-0.612
		c-1.11-1.157-2.546-0.805-3.273,0.024c-1.551,1.767-3.93,1.573-5.604,3.14c-0.201-1.523-0.349-2.765-0.534-4
		c-0.105-0.705,0.147-1.576,0.626-1.677c1.185-0.249,0.815-2.09,2.219-1.959c0.045,0.004,0.19-0.394,0.183-0.601
		c-0.089-2.536,0.84-3.972,3.276-4.785c0.968-0.323,1.564-1.014,1.624-1.862c0.143-2.063,1.989-3.054,2.722-4.721
		c0.06-0.136,0.285-0.302,0.418-0.289c2.056,0.191,3.808-1.496,5.915-0.948c1.461,0.38,2.768-0.302,3.935-0.899
		c1.082-0.554,1.748-0.534,2.318,0.439c0.622,1.061,1.171,0.878,1.875,0.1c0.737-0.813,1.502-1.672,2.335-2.309
		c1.189-0.908,2.83-1.146,4.067-2.095c2.691,1.435,5.629,0.248,8.463,0.739c2.048,0.355,3.876,0.777,5.59,1.881
		c0.169,0.109,0.483,0.157,0.656,0.076c2.01-0.939,4.035-1.689,5.636-3.506c0.969-1.101,2.441-2.146,3.882-2.732
		c1.089-0.443,0.903-1.214,0.713-1.624c-0.863-1.857-1.299-3.506,0.11-5.407c0.753-1.016-0.503-2.675-1.937-2.796
		c-0.625-0.053-1.169-0.087-1.394-0.755c-0.208-0.618,0.471-0.694,0.677-1.048c1.197-2.06,2.946-3.521,4.828-4.927
		c0.665-0.498,0.178-1.63-0.275-2.318c-0.623-0.946-1.007-1.929-1.096-3.046c-0.125-1.573-1.363-2.325-2.514-2.895
		c-0.966-0.479-0.788-0.92-0.447-1.558c0.3-0.561,0.666-1.086,0.985-1.638c0.419-0.725,0.912-1.337,0.632-2.368
		c-0.191-0.702,0.233-1.52,1.124-1.966c1.771-0.888,3.605-1.574,5.541-1.926c0.842-0.154,1.165-0.541,0.963-1.272
		c-0.409-1.484-0.204-3.166-1.696-4.309c-0.857-0.657-0.198-1.533,0.38-2.08c0.86-0.815,1.215-1.624,0.229-2.494
		c-1.129-0.997-0.238-2.129-0.053-3.01c0.159-0.756,1.315-0.144,1.958,0.142c0.906,0.402,1.704,0.926,2.79,0.394
		c0.777-0.381,1.085-0.808,0.829-1.628c-0.211-0.674-0.386-1.369-0.19-2.063c0.144-0.509-0.605-1.333,0.272-1.486
		c0.778-0.136,1.621,0.573,1.702,1.241c0.242,1.998,1.684,1.715,2.967,1.839c0.766,0.074,1.833-0.613,2.233,0.247
		c0.432,0.928-0.598,1.923-1.152,2.306c-1.238,0.856-0.797,1.665-0.178,2.281c0.741,0.739,1.218-0.188,1.796-0.618
		c0.555-0.413,1.208-0.711,1.922-0.95c1.215-0.406,2.774-0.208,3.711-1.79c0.815-1.377,2.994-1.191,4.214-2.354
		c2.135-2.03,5.163-2.56,7.397-4.409c1.231-1.019,2.436-2.077,3.591-3.182c1.411-1.349,6.361-2.322,8.257-1.535
		c0.301,0.125,0.507,0.333,0.914,0.345c2.136,0.064,2.283,0.319,1.539,2.243c-1.087,2.806-1.006,2.967,2.623,4.169
		c0.968,0.32,1.993,0.365,2.725,1.288c0.491,0.619,0.978,0.081,1.349-0.367c1.493-1.801,2.895-1.878,5.284-1.49
		c2.193,0.357,3.436,1.966,5.188,2.837c2.239,1.114,4.1,3.059,6.547,3.556c1.764,0.358,3.406,1.384,5.295,1.117
		c0.28-0.039,0.662,0.022,0.824-0.137c1.519-1.5,2.422-0.266,3.422,0.704c0.711,0.689,1.431,1.383,2.222,1.976
		c1.683,1.26,2.699,2.856,2.624,4.998c-0.039,1.111,0.499,1.232,1.46,1.383c1.364,0.215,2.542-0.092,3.815-0.45
		c2.195-0.617,4.381-0.824,6.347,0.888c0.913,0.796,2.63,0.871,3.361,0.734c2.01-0.375,2.477,1.634,3.931,1.902
		c0.17,0.031,0.675,0.595,1.146,0.774c1.656,0.628,2.141,1.791,1.004,3.249c-1.168,1.499-2.287,3.115-4.006,4.117
		c-1.301,0.758-1.395,2.129-1.813,3.401C517.339,351.943,516.513,352.56,518.228,352.875z"/>
	<path fill-rule="evenodd" clip-rule="evenodd" fill="#75C5C9" d="M432.823,325.944c0.795-1.185,0.854-2.302,0.044-3.517
		c-0.529-0.793,0.085-1.702,0.214-2.542c0.257-1.677-0.045-3.489,1.12-4.97c0.359-0.456,0.112-0.807-0.217-1.217
		c-0.949-1.181-1.911-2.342-3.377-2.887c-0.433-0.16-0.848-0.417-0.851-0.772c-0.017-2.434-1.246-4.988,0.66-7.25
		c0.388-0.459-0.072-0.688-0.298-1.013c-0.606-0.871-0.46-1.642,0.44-2.238c0.194-0.128,0.442-0.201,0.591-0.366
		c0.475-0.529,1.517-0.867,1.09-1.769c-0.488-1.034-1.29-0.24-1.958-0.055c-0.568,0.157-1.201,0.666-1.701,0.053
		c-0.482-0.591,0.131-3.367,0.72-3.649c0.364-0.175,0.779-0.251,1.128-0.45c0.521-0.296,1.022-0.711,0.802-1.382
		c-0.182-0.556-0.753-0.471-1.204-0.376c-0.86,0.183-1.142-0.11-1.077-0.99c0.077-1.038,0.054-2.089-0.002-3.13
		c-0.039-0.7,0.333-0.963,0.905-1.032c0.574-0.069,0.82-0.348,0.817-0.911c-0.003-0.672-0.524-0.597-0.922-0.857
		c-1.302-0.849-1.877-2.32-2.219-3.817c-0.114-0.499,0.046-1.055-0.031-1.568c-0.181-1.221,0.27-1.898,1.525-1.996
		c0.698-0.054,1.345-0.276,1.272-1.107c-0.084-0.962-0.812-0.462-1.337-0.51c-0.398-0.037-1.287,0.082-0.903-0.789
		c0.334-0.757-0.313-2.128,1.192-2.188c0.834-0.033,2.099,0.458,2.319-0.446c0.315-1.293-1.179-1.048-1.94-1.427
		c-0.579-0.288-1.143-0.667-1.799-0.597c-2.244,0.237-2.855-1.552-3.729-2.98c-0.298-0.487,0.046-0.905,0.538-1.091
		c0.438-0.166,1.031-0.234,1.13-0.721c0.599-2.942,3.402-4.612,4.219-7.413c0.208-0.712,0.676-1.068,1.327-1.452
		c2.061-1.215,3.851-2.819,5.584-4.456c0.527-0.497,0.754-1.3,0.75-2.099c-0.001-0.282,0.057-0.603,0.413-0.686
		c0.264-0.062,0.443,0.077,0.519,0.33c0.312,1.04,1.099,1.759,1.705,2.605c0.287,0.401,0.583,1.068,0.442,1.458
		c-1.078,2.989,0.907,4.698,2.874,5.943c1.472,0.932,3.473,1.059,5.151,1.86c0.372,0.177,1.428-0.298,1.655-0.737
		c0.736-1.433,2.645-1.53,3.237-3.132c0.274-0.742,3.9-1.228,4.73-0.953c1.121,0.371,2.563,1.035,3.205-0.444
		c0.779-1.794,2.599-2.525,3.546-4.106c0.943-1.571,1.458-3.387,2.853-4.716c0.728-0.694-0.384-1.681,0.169-2.635
		c0.723-1.249-0.658-1.415-1.317-1.953c-1.772-1.447-1.489-3.696,0.565-4.74c0.311-0.158,0.622-0.322,0.907-0.521
		c2.313-1.613,2.415-1.729,4.324,0.035c0.903,0.834,1.71,0.32,2.55,0.458c1.092,0.18,2.536-0.741,2.997,1.278
		c0.16,0.702,1.327,0.979,1.968,1.588c0.833,0.794,1.463-0.08,2.171-0.608c0.545-0.407,1.388-0.593,2.027-0.732
		c1.307-0.284,2.231-0.917,2.979-1.897c1.277-1.671,3.421-2.202,4.963-1.904c3.016,0.582,3.815-1.375,4.951-3.157
		c0.257-0.401,0.421-0.913,0.885-0.988c2.092-0.343,2.73-2.239,3.885-3.567c0.793-0.914,3.104-1.081,3.835-0.116
		c0.448,0.592,1.025,1.157,1.659,1.163c1.473,0.016,1.826,1.066,2.207,2.072c0.404,1.07,0.504,2.282,2.028,2.456
		c0.472,0.054,0.628,0.606,0.268,0.956c-1.222,1.186-0.697,2.905-1.747,4.604c1.752-0.989,3.084,0.254,4.577-0.43
		c2.634-1.206,4.628-2.724,4.384-6.009c2.681,1.128,5.562-0.468,6.017-3.163c0.188-1.112,1.114-0.81,1.729-1.015
		c0.544-0.181,1.187-0.082,1.38-0.81c0.14-0.524-0.229-1.211,0.501-1.542c1.154-0.524,2.278-1.145,3.479-1.528
		c0.658-0.21,1.211,0.263,1.328,1.042c0.156,1.032,0.73,1.471,1.809,1.448c0.865-0.019,1.762,0.165,2.393,0.855
		c0.511,0.56,1.115,0.633,1.752,0.417c1.207-0.41,1.906,0.247,2.391,1.163c0.366,0.696,0.354,1.739,1.434,1.705
		c1.185-0.038,0.904-1.136,1.134-1.855c0.048-0.15,0.207-0.265,0.577-0.714c-0.646,2.201,0.186,3.066,1.984,3.466
		c0.87,0.193,0.742,1.396,1.145,2.103c0.511,0.896,0.802,1.921,1.153,2.903c0.165,0.461,0.383,1.029,0.837,1.032
		c2.62,0.018,1.993,1.947,1.724,3.249c-0.346,1.668,1.278,2.761,0.925,4.356c-0.045,0.205,0.491,0.644,0.837,0.805
		c0.539,0.25,1.323-0.016,1.567,0.831c0.336,1.162,0.699,2.315,1.037,3.476c0.03,0.1,0.006,0.3-0.056,0.331
		c-2.556,1.284-0.965,3.359-1.011,5.133c-0.032,1.269-1.17,1.023-1.941,1.232c-0.125,0.034-0.305-0.141-0.462-0.215
		c-1.179-0.56-2.533-1.134-3.403,0.197c-1.127,1.724-0.592,3.565,0.703,4.768c1.183,1.098,2.063,2.596,2.286,4.16
		c0.397,2.787,3.38,5.036,6.292,4.524c0.644-0.113,1.358,0.181,2.146,0.304c-1.844,4.647-4.082,9.004-7.001,13.032
		c-1.505,2.078-3.103,4.067-4.745,6.03c-0.714,0.854-1.555,1.528-2.568,2.042c-0.682,0.345-1.048,0.581-1.459-0.327
		c-0.486-1.075-1.334-0.727-1.668,0.038c-0.713,1.625-2.166,2.354-3.493,3.213c-1.905,1.233-2.289,2.234-1.413,4.371
		c0.354,0.862-0.068,2.563-0.556,3.581c-0.411,0.856-0.685,1.888-0.078,2.831c0.765,1.188,0.585,2.381,0.306,3.688
		c-0.592,2.765-1.059,5.559-1.473,8.357c-0.193,1.316-0.188,2.657,0.355,3.952c0.242,0.578,0.406,1.26,0.361,1.876
		c-0.257,3.467,0.785,6.791,1.055,10.197c0.027,0.346,0.037,0.735,0.201,1.02c1.672,2.901-0.275,5.311-1.125,7.819
		c-0.521,1.534-0.773,3.113-1.146,4.662c-0.645,2.676-0.726,5.505-1.527,8.121c-1.006,3.283-0.381,6.415,0.047,9.619
		c0.195,1.468-0.836,2.56-1.847,3.067c-2.415,1.214-4.079,2.912-4.88,5.473c-0.309,0.985-0.73,1.285-1.713,0.581
		c-1.846-1.322-3.768-2.542-5.688-3.759c-0.693-0.44-1.111-0.848-0.477-1.638c0.367-0.459,0.337-0.926,0.053-1.456
		c-0.89-1.659-2.033-3.036-3.629-4.106c-0.924-0.619-1.285-1.891-2.316-2.49c1.621-1.659-0.072-3.73,0.69-5.513
		c0.474-1.107,1.155-1.761,2.388-1.339c0.803,0.275,1.333,0.08,1.782-0.582c0.462-0.68,0.302-1.212-0.146-1.892
		c-0.784-1.192-0.22-1.851,0.98-2.574c1.043-0.629,1.736-1.851,2.562-2.829c0.218-0.258,0.288-0.754,0.538-0.853
		c1.584-0.616,1.488-2.236,2.113-3.412c0.669-1.258-0.575-2.413-1.09-2.64c-2.253-0.997-3.754-3.264-6.669-3.341
		c-1.38-0.036-3.269-0.247-4.655-1.575c-1.221-1.171-3.205-0.173-4.764-0.822c-0.084-0.035-0.828,1.109-1.719,1.356
		c-2.432,0.674-3.044,0.372-3.379-2.031c-0.114-0.822-0.359-1.541-1.029-2.138c-1.785-1.591-3.526-3.231-5.252-4.887
		c-0.691-0.664-1.363-0.738-2.209-0.322c-1.309,0.643-2.652,1.255-3.843-0.252c-0.102-0.129-0.315-0.301-0.424-0.27
		c-2.87,0.84-4.464-1.594-6.601-2.595c-1.213-0.568-2.447-1.1-3.477-2.077c-2.569-2.439-6.146-2.916-9.242-0.964
		c-1.211,0.763-2.131,0.411-3.187,0.076c-0.495-0.157-0.926-0.517-1.423-0.659c-1.511-0.434-1.632-1.34-1.085-2.641
		c1.369-3.249,1.264-2.959-2.141-3.908c-5.275-1.47-9.363,0.778-13.371,3.551c-0.827,0.572-1.237,1.598-2.111,2.305
		c-2.101,1.697-4.717,2.421-6.87,4.123c-1.335,1.056-3.219,1.79-4.784,2.871C435.291,325.889,434.056,326.175,432.823,325.944z"/>
	<path fill-rule="evenodd" clip-rule="evenodd" fill="#5FA0A0" d="M256.766,368.168c0.421,0.05,0.503,0.034,0.533,0.067
		c1.655,1.787,3.606,1.42,5.5,0.617c2.042-0.867,4.122-1.502,5.227-3.979c0.54-1.209,1.711-2.573,2.846-3.495
		c0.755-0.613,2.242-0.456,3.394-0.422c2.092,0.063,3.825-0.877,5.596-1.744c0.583-0.285,1.164-0.89,1.286,0.363
		c0.021,0.22,0.071,0.535,0.379,0.48c2.065-0.362,3.428,1.604,5.382,1.611c0.203,0,0.523,0.145,0.589,0.305
		c0.645,1.549,2.097,1.807,3.454,2.249c1.876,0.611,3.323,2.358,5.691,1.73c1.552-0.413,3.135-0.527,4.477-1.58
		c1.075-0.843,2.311-1.165,3.619-0.375c0.383,0.232,0.891,0.293,0.704,0.973c-0.115,0.417,0.341,0.567,0.596,0.771
		c1.165,0.932,4.977,0.045,5.592-1.31c0.604-1.329,1.833-2.061,2.891-2.897c0.569-0.45,0.57-1.828,1.451-1.387
		c0.691,0.346,0.175,1.481,0.197,2.261c0.042,1.471,0.238,2.831-1.871,3.439c-1.321,0.381-1.65,2.24-2.199,3.57
		c-0.106,0.258-0.053,0.477,0.197,0.572c1.585,0.605,2.902,2.203,4.882,1.358c0.275-0.118,0.409,0.047,0.611,0.134
		c1.136,0.484,2.195,0.589,3.464,0.116c1.912-0.712,3.006,0.08,3.446,2.1c0.136,0.623,0.117,1.296,0.34,1.881
		c0.393,1.024,1.13,1.779,2.203,0.887c0.969-0.806,1.774,0.139,2.698-0.052c-0.821,0.7-1.65,1.323-2.205,2.203
		c-0.685,1.085-0.76,2.038,0.584,2.735c1.545,0.801,3.196,1.007,4.841,0.67c1.154-0.236,1.975-0.12,2.423,1.008
		c0.32,0.806,0.95,1.187,1.701,1.317c1.167,0.204,2.016,1.057,3.034,1.431c2.873,1.053,5.216,3.238,8.48,3.528
		c2.269,0.202,4.199,1.805,6.428,2.46c0.765,0.225,1.138,1.417,1.822,2.097c0.914,0.908-0.179,1.762-0.562,2.594
		c-0.404,0.878-0.443,1.712-0.236,2.69c0.393,1.868,0.448,3.775-0.157,5.649c-0.263,0.814-0.861,1.464-1.578,1.461
		c-2.121-0.011-3.182,1.286-4.255,2.819c-0.614,0.877-1.218,1.811-2.184,2.444c-0.515,0.338-0.893,1.109-0.767,1.693
		c0.669,3.094-1.768,4.333-3.458,6.022c-0.541,0.54-0.417,1.143-0.264,1.781c0.424,1.771-0.603,3.469-2.375,3.983
		c-1.01,0.293-1.256,0.97-0.802,1.868c0.448,0.885,0.042,1.318-0.502,2.071c-1.062,1.467-2.718,2.439-3.284,4.351
		c-0.632,2.133-2.642,3.036-4.461,3.91c-1.891,0.909-3.383,2.415-5.315,3.252c-0.943,0.409-1.728,1.095-2.07,2.227
		c-0.186,0.615-0.691,1.096-1.496,1.299c-1.773,0.447-3.163,1.694-4.694,2.626c-0.875,0.533-1.335,1.43-1.539,2.593
		c-0.467,2.669-1.327,5.21-4.499,5.896c-1.031,0.223-1.151,1.156-1.221,1.913c-0.177,1.918-1.29,3.608-1.196,5.604
		c0.047,1.011-1.065,1.442-1.803,1.689c-0.7,0.235-1.381-0.547-1.979-1.006c-0.439-0.337-0.741-0.823-1.19-1.206
		c-2.678-2.281-5.055-0.516-7.436,0.493c-2.038,0.864-4.081,0.987-6.182,0.523c-0.726-0.16-0.64-0.895-0.642-1.468
		c-0.002-0.807,0.272-1.684-0.317-2.364c-1.746-2.014-1.107-4.38-1.058-6.66c0.011-0.527,0.139-1.106-0.278-1.498
		c-1.161-1.091-1.115-2.614-1.513-3.979c-0.159-0.545-0.145-0.965,0.148-1.584c0.543-1.146,0.626-2.479-0.599-3.472
		c-0.392-0.317-0.81-0.616-0.923-1.212c-0.584-3.068-1.658-4.004-4.787-3.94c-2.341,0.049-4.228-0.432-5.076-2.931
		c-0.239-0.702-2.233-0.382-2.89,0.516c-1.548,2.114-3.708,2.048-5.951,1.798c-2.703-0.301-5.408-0.586-8.112-0.873
		c-0.403-0.043-0.862-0.004-1.061-0.445c-0.688-1.521-1.954-0.973-3.002-0.742c-0.878,0.194-1.736,0.517-2.445-0.16
		c-0.778-0.744,0.098-1.504,0.175-2.265c0.19-1.873,1.062-3.784-0.104-5.599c-0.319-0.498-0.093-0.787,0.114-1.072
		c1.775-2.447,0.774-5.454,1.662-8.073c-1.402-1.579,0.238-4.455-2.355-5.531c-0.099-0.042-0.249-0.173-0.237-0.24
		c0.411-2.416-1.714-4.093-1.854-6.276c-0.079-1.228,1.362-1.849,2.314-1.88c1.125-0.036,1.167-0.828,1.489-1.354
		c0.393-0.643-0.449-0.819-0.792-1.126c-0.989-0.886-2.673-1.459-2.881-2.615c-0.187-1.038,0.889-2.309,1.425-3.47
		c0.953-2.063,1.918-4.121,2.881-6.181c0.098-0.21,0.175-0.562,0.323-0.597c2.334-0.572,1.504-2.018,0.918-3.35
		c-0.257-0.585,0.076-1.029,0.214-1.5c0.587-2.013,1.245-4.004,1.857-6.01c0.287-0.94,0.385-1.91,1.748-2.057
		c0.694-0.075,0.484-0.593-0.46-1.443C257.944,372.072,257.521,370.135,256.766,368.168z"/>
	<path fill-rule="evenodd" clip-rule="evenodd" fill="#5FA0A0" d="M367.971,286.676c0.062,0.459-0.304,0.733-0.468,1.096
		c-0.954,2.11-0.366,3.884,1.717,4.259c3.362,0.606,6.188,2.261,9.015,3.988c0.349,0.213,0.703,0.417,1.055,0.623
		c2.925,1.712,2.835,1.695,3.438-1.598c0.232-1.268,1.092-2.382,1.905-3.421c0.184-0.235,0.576-0.619,0.815-0.113
		c0.475,1.009,1.791,0.778,2.218,1.753c0.178-0.151,0.285-0.212,0.352-0.303c1.586-2.166,1.287-1.863,3.118,0.231
		c1.317,1.506,1.804,2.85,1.789,4.656c-0.003,0.413,0.387,0.734,0.866,0.686c0.79-0.08,0.709-0.804,0.906-1.324
		c0.925,1.413,1.219,1.382,4.611-0.492c0.292,0.466,0.167,0.981,0.16,1.463c-0.009,0.585,0.413,0.782,0.785,0.632
		c2.902-1.161,5.119-0.21,6.856,2.188c2.067-1.11,0.92-2.989,1.237-4.545c0.608-0.092,1.084,0.214,1.455,0.627
		c1.352,1.503,2.704,0.847,4.23,0.24c1.585-0.629,3.205-1.131,4.674-2.039c0.728-0.449,1.579-0.652,2.021-1.532
		c0.255-0.508,0.893-0.473,1.425-0.469c0.583,0.004,1.168-0.013,1.75,0.024c1.09,0.07,2.403-0.434,3.207,0.388
		c0.706,0.723-0.011,1.896,0.037,2.878c0.041,0.835,0.087,1.566,0.688,2.249c1.175,1.337,1.05,3.094,0.533,4.474
		c-0.678,1.808-0.279,3.432-0.027,5.133c0.037,0.252,0.382,0.583,0.135,0.769c-1.738,1.308,0.076,1.549,0.647,2.06
		c0.641,0.573,1.463,0.94,2.116,1.502c0.726,0.626,1.967,0.898,0.687,2.49c-0.912,1.133,0.011,3.07-0.133,4.671
		c-0.164,1.821-0.588,2.506-2.401,2.605c-0.282,0.015-0.705,0.186-0.74-0.169c-0.141-1.435-1.538-1.625-2.277-2.452
		c-0.542-0.606-1.063-0.952-1.771-0.43c-0.665,0.491-1.299,1.117-0.923,2.048c0.341,0.846,0.271,1.71,0.303,2.566
		c0.036,0.938-0.401,1.294-1.325,0.817c-0.777-0.401-1.58-0.803-2.472-0.796c-1.181,0.009-2.064,0.218-1.951,1.854
		c0.085,1.229-0.654,2.465,0.621,3.602c0.234,0.208-0.801,1.476-0.974,2.422c-0.144,0.784-0.16,1.378,0.526,1.834
		c0.874,0.581,0.906,1.613,1.203,2.444c0.211,0.589,0.101,1.443-0.984,1.645c-0.864,0.161-1.704,0.349-2.585,0.273
		c-0.724-0.062-1.382,0.04-1.927,0.595c-0.236,0.241-0.25,0.909-0.861,0.546c-0.389-0.231-0.458-0.591-0.466-1.043
		c-0.025-1.388,0.637-2.691,0.396-4.114c-0.148-0.877-1.645-2.618-2.538-2.624c-3.56-0.021-7.12-0.011-10.68-0.004
		c-0.452,0.001-1.081-0.089-1.106,0.549c-0.105,2.647-1.372,5.108-1.133,7.832c0.095,1.087,0.354,1.409,1.403,1.375
		c3.67-0.12,7.342-0.18,11.014-0.25c0.852-0.016,1.557-0.264,1.425,1.302c-0.118,1.408-0.29,2.57-1.046,3.791
		c-0.893,1.44-0.407,2.589,0.955,3.516c1.34,0.912,1.801,2.267,2.25,3.843c0.525,1.844-0.234,2.912-1.421,3.641
		c-1.593,0.978-2.11,2.815-3.596,3.867c-0.504,0.357-0.052,1.412,0.4,2.105c0.41,0.63,0.602,1.412,1.638,1.099
		c0.609-0.185,1.29-0.376,1.788,0.215c0.625,0.741-0.132,1.272-0.362,1.884c-0.515,1.368-1.474,2.627-0.269,4.214
		c0.794,1.046-0.79,1.808-1.113,1.928c-2.33,0.865-3.551,3.077-5.604,4.313c-1.925,1.161-3.223,0.19-4.725-0.314
		c-1.022-0.343-1.833-1.043-3.102-0.552c-0.794,0.307-1.874,0.146-2.745-0.094c-0.95-0.262-1.83-0.245-2.743-0.038
		c-0.815,0.184-1.598,0.268-2.355-0.225c-0.52-0.337-1.125-0.451-1.646-0.064c-0.96,0.713-2.115,0.866-3.196,1.235
		c-1.343,0.458-1.502,1.997-2.596,2.808c-0.983,0.729-1.23,0.353-1.436-0.328c-0.449-1.487-1.101-1.272-2.157-0.569
		c-1.536,1.021-3.188,1.825-5.157,1.353c-0.855-0.205-1.73-0.411-2.303,0.617c-0.097,0.173-0.525,0.271-0.774,0.232
		c-3.616-0.56-4.651,2.686-5.866,4.716c-0.779,1.302-1.248,2.192-2.65,2.97c-1.612,0.894-2.676,2.634-3.248,4.623
		c-3.041-3.419-6.886-4.617-11.016-5.3c-0.853-0.142-1.59-0.885-2.425-1.249c-2.794-1.22-5.274-3.072-8.192-4.047
		c-0.334-0.111-0.504-0.644-0.831-0.858c-0.919-0.605-1.653-1.421-3.083-0.738c-1.147,0.548-2.597,0.177-3.823-0.425
		c-0.647-0.318-0.812-0.773-0.35-1.402c0.382-0.521,0.807-0.905,1.422-1.208c0.579-0.284,1.18-0.923,0.938-1.705
		c-0.206-0.664-0.867-0.887-1.553-0.927c-0.631-0.038-1.262-0.087-1.892-0.147c-0.567-0.054-1.43,0.924-1.585,0.082
		c-0.173-0.941-1.184-2.074,0.031-3.063c0.304-0.248,0.737-0.575,0.44-1.013c-0.958-1.421-0.879-3.268-2.05-4.634
		c-0.679-0.792-0.769-2.131-0.506-2.976c0.482-1.546,0.433-3.286,1.234-4.642c0.813-1.375,1.656-2.582,1.988-4.251
		c0.125-0.632,1.562-1.616,2.494-2.35c1.406-1.106,2.635-2.439,3.498-4.071c0.467-0.882,0.49-1.556-0.336-2.22
		c-0.821-0.66-0.622-1.146,0.36-1.369c0.651-0.147,1.197-0.295,1.136-1.198c-0.068-1.008,0.866-1.181,1.544-1.378
		c0.641-0.186,1.396-0.318,1.6-0.921c0.694-2.059,2.086-2.56,4.159-2.689c2.427-0.152,3.69-2.082,4.575-4.222
		c0.796-1.925,1.042-3.992,1.653-5.965c0.637-2.053,2.787-3.437,4.949-3.026c0.987,0.188,3.164-1.084,3.508-2.163
		c0.628-1.97,1.249-3.949,1.713-5.96c0.267-1.154-0.425-2.36,0.036-3.59c0.202-0.538,0.226-1.246,0.653-1.579
		c1.443-1.125,1.311-2.611,1.197-4.155c-0.201-2.717,0.932-4.959,2.324-7.224c0.83-1.349,1.387-2.883,1.619-4.645
		c0.403-3.08,1.512-6.087,3.188-8.795c0.184-0.296,0.468-0.531,0.88-0.423L367.971,286.676z"/>
	<path fill-rule="evenodd" clip-rule="evenodd" fill="#75C5C9" d="M461.943,131.737c1.167,0.192,1.627-0.33,1.871-0.894
		c0.717-1.66,2.323-2.455,3.458-3.701c0.767-0.842,1.633-1.124,2.144,0.373c0.21,0.614,0.566,1.163,1.437,0.79
		c1.387-0.595,2.771-0.315,4.027,0.343c2.347,1.229,4.806,2.192,7.03,3.729c2.238,1.546,5.004,1.547,7.708,1.268
		c0.917-0.095,2.008-0.409,2.564,0.857c0.278,0.635,0.501,0.076,0.672-0.143c0.401-0.51,0.961-0.46,1.439-0.306
		c0.747,0.242,0.105,0.771,0.134,1.169c0.012,0.172-0.103,0.411-0.023,0.513c1.809,2.324-0.903,3.243-1.506,4.805
		c-0.218,0.561-0.774,0.815-1.426,0.845c-0.587,0.027-0.93,0.376-1.023,0.996c-0.186,1.241-1.1,1.558-2.184,1.803
		c-1.398,0.317-3.193-0.606-4.057,1.531c-0.572,1.419-2.426,2.17-2.15,4.155c0.082,0.596-0.287,1.502-0.759,1.881
		c-1.414,1.137-1.834,2.945-3.09,4.178c-0.931,0.916-0.886,3.268,0.116,3.897c1.475,0.926,1.23,2.084,0.453,3.079
		c-1.043,1.334-0.656,2.495-0.13,3.81c0.803,2.006,1.762,3.969,1.405,6.276c-0.108,0.706-0.314,1.126-0.844,1.567
		c-3.047,2.537-3.989,5.644-3.154,9.612c0.371,1.762,1.372,2.671,2.412,3.766c0.236,0.248,0.738,0.409,0.771,0.656
		c0.266,2.047-0.12,4.068-0.77,5.97c-0.415,1.214-1.889,1.15-2.994,1.416c-0.219,0.052-0.492-0.082-0.693-0.006
		c-2.48,0.94-4.648,0.697-6.971-0.853c-1.61-1.075-6.744,0.919-7.842,2.617c-0.653,1.009-1.24,2.448-2.034,2.907
		c-2.339,1.357-4.159,3.449-6.583,4.547c-0.979,0.444-1.981,0.711-2.858,1.437c-1.284,1.061-3.038,1.139-4.553,1.491
		c-3.282,0.762-4.636,3.06-5.084,5.874c-0.427,2.686-1.118,5.165-2.622,7.412c-0.282,0.422-0.216,0.892-0.336,1.331
		c-0.411,1.499-0.876,2.964-2.103,4.066c-1.529,1.374-1.757,2.781-1.072,4.636c0.376,1.021,0.596,2.125,0.705,3.21
		c0.104,1.032-0.155,2.124,1.138,2.639c0.391,0.156,0.298,0.578,0.249,0.928c-0.462,3.261-0.289,6.59-1.022,9.82
		c-0.146,0.643-0.35,1.122-1.384,1.107c-1.209-0.017-2.382-0.091-3.582-0.238c-1.667-0.203-2.727-1.078-2.765-2.827
		c-0.035-1.546-0.33-2.853-1.896-3.521c-1.236-0.528-0.313-1.278-0.08-1.774c0.873-1.854,0.278-3.6-1.704-4.001
		c-1.174-0.238-1.515-0.772-1.657-1.823c-0.202-1.494-0.905-2.696-2.375-3.332c-0.453-0.195-0.915-0.521-0.38-1.037
		c1.969-1.9,1.432-4.693,2.506-6.923c0.643-1.334,1.361-2.351,2.943-2.503c1.095-0.105,1.769-0.654,2.036-1.809
		c0.211-0.913,0.164-1.839,0.455-2.773c0.373-1.2-1.587-3.068-2.921-3.08c-0.999-0.009-1.928,0.368-2.885,0.547
		c-1.192,0.224-2.055,2.009-3.254,1.1c-0.92-0.698-1.697-1.885-2.204-2.956c-0.823-1.739-2.246-2.896-3.421-4.281
		c-0.572-0.674-0.959-1.066-0.651-2.072c0.414-1.35-0.48-2.09-1.794-2.123c-0.733-0.018-1.376,0-1.785-0.727
		c1.925-0.79,3.389-3.117,3.191-5.166c-0.115-1.199,0.267-2.325,0.641-3.375c0.619-1.736,0.557-3.601,1.234-5.309
		c0.221-0.556,0.018-1.134-0.205-1.695c-0.256-0.645-0.543-1.31-0.431-2.031c0.404-2.589-0.914-4.992-0.795-7.566
		c0.049-1.069-0.784-1.798-1.784-2.138c-1.196-0.406-2.107-1.51-3.504-1.417c-0.091,0.006-0.254-0.103-0.277-0.187
		c-0.676-2.459-2.394-1.97-4.157-1.535c-0.694,0.172-1.36-0.195-1.994-0.51c-0.829-0.411-1.622-0.92-2.904-1.005
		c3.189-2.583,6.187-5.01,9.184-7.437c0.045-0.036,0.1-0.092,0.147-0.09c4.258,0.26,4.524-4.147,6.966-6.024
		c0.837-0.643,0.072-2.395,1.371-2.979c1.439-0.646,2.096-1.945,2.873-3.16c0.155-0.243,0.342-0.507,0.377-0.779
		c0.424-3.251,2.202-5.825,4.134-8.318c1.23-1.589,2.32-3.223,2.301-5.35c-0.003-0.316-0.042-0.707,0.415-0.855
		c0.989-0.321,0.851-1.054,0.364-1.595c-0.756-0.841-0.407-1.423,0.332-1.809c1.913-0.999,2.332-2.696,2.315-4.615
		c-0.006-0.654-0.042-1.194,0.576-1.691c2.215-1.785,2.117-4.468,2.396-6.927c0.066-0.589-0.05-1.018,0.491-1.411
		c0.69-0.501,0.812-1.576,0.673-2.047c-0.496-1.691,0.712-3.179,0.238-4.909c-0.313-1.141,1.02-0.765,1.556-0.488
		c0.912,0.471,1.819,1.067,2.516,1.81c0.867,0.924,1.737,1.292,2.908,0.775c0.427-0.189,0.985-0.199,1.077,0.19
		c0.332,1.421,1.747,2.273,1.923,3.7c0.094,0.759,0.404,1.21,1.03,1.451c0.839,0.322,0.757-0.496,0.94-0.897
		c0.854-1.879,2.803-1.865,4.354-2.502c0.342-0.141,0.935,0.161,1.02,0.742c0.083,0.573,0.387,1.071,0.889,1.202
		c1.25,0.325,1.045,1.075,0.577,1.821c-0.601,0.957-0.02,1.07,0.697,1.135c2.681,0.241,3.76,1.48,4.02,4.283
		c0.085,0.916,1.306,1.27,1.596,2.293c0.141,0.495,0.482,1.099,0.193,1.406c-0.576,0.612-0.574,1.034,0.015,1.545
		c0.595,0.516,1.037,1.239,2.083,0.875c0.928-0.324,1.789-0.638,2.963-0.185C462.59,130.627,462.723,130.814,461.943,131.737z"/>
	<path fill-rule="evenodd" clip-rule="evenodd" fill="#74CCDA" d="M372.584,547.854c-0.04-0.662-1.043-1.381,0.021-1.969
		c0.784-0.433,1.143,0.43,1.701,0.676c2.179,0.961,0.62,1.814,0.027,2.627c-2.707,3.721-4.62,7.861-5.984,12.197
		c-1.106,3.516-3.491,6.148-5.345,9.156c-2.266,3.673-5.395,6.487-8.502,9.42c-2.683,2.533-5.772,4.25-8.764,6.248
		c-4.999,3.338-9.585,7.011-10.87,13.602c-0.694,3.561-2.674,6.813-5.721,9.182c-2.256,1.752-4.421,3.621-6.678,5.371
		c-0.397,0.309-0.752,0.985-1.629,0.424c-0.815-0.522-1.341-0.945-1.204-1.977c0.23-1.725,0.323-3.435,0.071-5.199
		c-0.211-1.469,0.681-2.629,2.179-2.918c0.879-0.17,1.445-0.613,1.701-1.3c0.413-1.107,1.223-1.806,2.115-2.415
		c0.895-0.612,0.858-1.178,0.104-1.793c-1.06-0.863-2.155-1.552-3.506-2.062c-2.552-0.965-4.583-2.725-5.168-5.664
		c-0.261-1.308-0.783-2.234-2.224-2.917c-1.481-0.7-2.719-1.734-4.405-2.328c-1.958-0.689-4.07-1.957-5.015-4.27
		c-0.855-2.094-2.72-2.715-4.776-2.85c-1.255-0.082-2.186-0.545-2.816-1.668c-0.365-0.648-0.987-1.043-1.718-0.596
		c-1.233,0.754-1.968-0.107-2.418-0.898c-1.273-2.236-3.095-3.957-4.966-5.627c-0.836-0.748-1.643-0.359-2.333,0.497
		c-0.892,1.108-1.891,2.134-3.261,2.678c-0.539,0.214-1.166,0.363-0.983-0.532c0.881-4.317-2.659-5.931-5.036-8.197
		c-1.511-1.439-3.065-2.852-4.604-4.241c-1.134-1.024-2.45-2.384-4.467-2.243c-1.856,0.129-3.635,0.063-4.376,2.229
		c-0.094,0.273-0.151,0.694-0.479,0.629c-1.325-0.265-2.635,0.28-3.942,0.035c-0.693-0.13-0.685-0.683-0.207-0.959
		c0.947-0.545,1.325-1.633,2.257-2.162c0.2-0.113,0.458-0.254,0.53-0.443c1.48-3.857,5.759-4.902,7.989-7.971
		c0.955-1.314,2.495-2.247,2.75-4.053c0.162-1.153,1.018-1.728,2.041-1.849c0.979-0.115,1.151-0.83,1.682-1.394
		c1.083-1.148,1.311-2.782,2.848-3.785c1.143-0.746,2.807-1.711,3.037-3.525c0.057-0.45,0.357-0.557,0.685-0.668
		c0.22-0.076,0.627-0.076,0.651-0.18c0.459-1.979,1.341-2.069,2.828-0.842c0.362,0.299,1.152-1.684,0.563-2.256
		c-0.677-0.658-0.469-1.034,0.187-1.242c2.577-0.816,4.464-2.631,6.212-4.503c0.769-0.823,1.377,0.119,2.002-0.37
		c1.377-1.076,3.311-1.545,3.696-3.658c0.062-0.34,0.512-0.872,0.777-0.869c2.542,0.033,4.377-2.305,6.985-2.036
		c0.425,0.044,1.025-0.106,1.303-0.396c0.958-0.999,2.246-1.71,3.112-2.599c1.776-1.819,3.592-1.449,5.534-1.152
		c1.321,0.201,2.541,0.375,3.722-0.499c0.432-0.319,1.278-1.032,1.302,0.425c0.008,0.48,0.427,0.496,0.783,0.382
		c1.531-0.49,3.008-1.108,4.592,0.025c0.563,0.403,1.518-0.649,2.142,0.001c1.441,1.506,3.197,0.545,4.786,0.813
		c2.078,0.349,4.095,1.051,6.227,1.149c1.51,0.068,1.666,1.82,2.865,2.332c0.459,0.195,0.872,0.797,1.376,0.613
		c1.704-0.621,3.061,0.482,4.582,0.751c1.003,0.177,1.301,1.132,2.152,1.567c2.448,1.25,4.97,2.762,6.407,5.119
		c1.198,1.965,3.113,3.191,4.274,5.132c0.529,0.884,1.536,1.542,2.775,1.319c0.109-0.019,0.28-0.096,0.32-0.053
		c1.276,1.388,3.211,0.1,4.599,1.131c0.257,0.191,0.837,0.146,1.174-0.004c1.569-0.695,2.983-0.195,4.446,0.397
		c-0.218,0.777-0.751,1.274-1.346,1.587c-1.839,0.967-2.174,2.594-1.636,4.287c0.441,1.387-0.29,2.059-1.088,2.686
		c-0.989,0.777-2.532,1.398-2.276,2.73c0.251,1.304,1.894,1.48,3.115,1.813c0.112,0.029,0.228,0.049,0.343,0.071
		c0.11,0.131,0.229,0.243,0.364,0.043C372.787,548.049,372.651,547.928,372.584,547.854z"/>
	<path fill-rule="evenodd" clip-rule="evenodd" fill="#AFD8D8" d="M370.696,283.092c-3.353,0.964-6.161,4.104-6.324,6.824
		c-1.461-1.387-1.708-2.739-1.074-4.625c0.46-1.37-0.103-2.773-0.319-4.116c-0.226-1.398-0.024-2.752-0.106-4.091
		c-0.12-1.952,0.379-4.358-0.37-5.733c-1.066-1.956-0.359-3.062,0.121-4.682c0.623-2.105,0.818-4.346,1.098-6.541
		c0.341-2.686,1.073-5.214,2.589-7.484c0.094-0.142,0.201-0.305,0.216-0.466c0.388-4.189,2.953-7.531,4.459-11.28
		c0.445-1.106,0.179-2.211,0.645-3.313c0.444-1.049,0.902-1.994,1.729-2.727c1.304-1.156,1.485-3.007,2.696-4.211
		c0.287-0.285,0.463-0.767,0.795-0.903c3.014-1.239,4.004-3.985,5.317-6.62c0.614-1.231,1.684-2.215,2.143-3.663
		c0.565-1.781,0.852-3.589,1.14-5.406c0.178-1.121,0.151-2.219-1.197-2.737c-0.307-0.118-0.528-0.451-0.797-0.674
		c-1.656-1.373-1.764-2.187-0.378-3.753c1.448-1.639,2.345-3.332,1.86-5.689c-0.421-2.047,1.728-4.129,4.267-4.509
		c2.648-0.397,3.335-1.045,3.965-3.741c0.316-1.357,1.748-2.401,3.052-2.235c1.024,0.13,1.374-0.463,0.937-1.234
		c-0.658-1.159-1.282-2.036,0.647-2.578c1.293-0.363,0.094-2.012,0.757-2.397c1.369-0.795,0.98-1.46,0.271-2.346
		c-0.686-0.857-0.416-1.303,0.625-1.543c1.001-0.231,1.3-1.123,1.4-2.003c0.1-0.887-0.737-1.227-1.32-1.418
		c-0.91-0.299-1.513-0.724-1.866-1.632c-0.353-0.908-1.146-1.151-2.022-0.852c-0.685,0.234-1.346,0.331-2.142,0.189
		c0.247-0.396,0.572-0.728,0.675-1.118c0.482-1.824,1.752-1.851,3.123-1.306c1.784,0.709,3.483,1.669,5.493,0.775
		c0.202-0.09,0.753,0.075,0.778,0.195c0.547,2.693,3.499,1.754,4.88,3.224c0.355,0.378,1.224,0.563,1.13,1.138
		c-0.357,2.195,1.093,4.143,0.75,6.319c-0.08,0.508-0.117,1.106,0.074,1.56c1.16,2.764,0.022,5.378-0.445,8.033
		c-0.283,1.615-0.934,3.121-0.834,4.865c0.07,1.219-0.741,2.474-2.036,2.993c-0.861,0.346-1.74,0.889-1.191,1.681
		c0.539,0.78,1.02,2.248,2.558,1.714c0.398-0.138,0.799-0.418,1.02,0.11c0.168,0.404-0.286,0.538-0.555,0.747
		c-0.829,0.646-1.633,1.166,0.152,1.777c0.785,0.269,1.436,1.258,1.905,2.062c1.463,2.502,3.573,4.498,5.228,6.852
		c0.541,0.768,1.508,1.074,2.548-0.038c1.119-1.196,2.899-1.594,4.481-1.747c0.775-0.075,1.78,0.875,1.442,2.142
		c-0.195,0.731-0.379,1.451-0.343,2.225c0.033,0.71-0.354,0.921-1.08,1.026c-3.077,0.442-5.329,2.825-5.169,5.868
		c0.104,1.966-0.901,3.291-1.774,4.74c-0.655,1.085-0.495,1.924,0.759,2.27c1.383,0.38,2.2,0.953,2.453,2.602
		c0.137,0.898,0.58,2.354,2.316,2.453c0.741,0.043,2.22,0.75,1.186,2.235c-1.208,1.732-0.761,3.028,1.015,3.985
		c0.533,0.288,0.734,0.745,0.688,1.304c-0.137,1.699,1.125,2.711,1.926,3.943c0.276,0.425,0.786,0.387,1.262,0.435
		c1.528,0.154,3.021,0.282,4.431,1.153c1.042,0.644,2.486-0.568,3.639,0.429c-0.822,0.03-1.152,0.667-1.678,1.264
		c-1.126,1.279-2.531,2.366-4.178,3.008c-0.314,0.123-0.964,0.116-0.912,0.343c0.353,1.525-1.738,1.895-1.506,3.411
		c0.089,0.584-0.29,1.375-1.005,1.723c-0.706,0.343-1.059,1.023-1.141,1.674c-0.175,1.379-0.829,2.232-2.134,2.646
		c-0.786,0.25-0.698,0.959-0.498,1.453c0.71,1.754,1.346,3.687,3.557,4.073c1.638,0.286,0.93,1.75,0.629,1.897
		c-1.043,0.51-0.73,1.293-0.594,1.927c0.505,2.352-1.055,4.656-0.105,7.001c0.082,0.203-0.042,0.566,0.082,0.665
		c2.645,2.111,0.708,5.026,1.332,7.484c0.027,0.106,0.002,0.24-0.04,0.343c-0.038,0.095-0.133,0.167-0.274,0.333
		c-0.451-0.32-0.906-0.643-1.326-0.941c-0.551,0.155-0.435,0.565-0.441,0.883c-0.024,1.17-0.569,1.682-1.761,1.565
		c-2.282-0.221-4.185,0.348-6.066,1.897c-1.431,1.179-3.48,1.774-5.352,2.189c-1.147,0.254-2.298-0.704-3.252-1.504
		c-0.645-0.54-1.292-0.786-2.023-0.179c-0.696,0.578-1.084,1.271-0.543,2.129c0.475,0.753,0.26,1.578,0.391,2.449
		c-1.757-1.98-4.029-2.596-6.5-2.977c-0.069-1.585-0.389-1.746-2.076-0.872c-0.802,0.414-1.627,0.782-2.404,1.152
		c-0.528-0.713,0.021-2.457-1.851-1.847c-0.46-1.245-1.733-1.746-2.469-2.708c-0.423-0.554-0.913-1.039-1.337-1.582
		c-0.816-1.043-1.476-1.148-2.145,0.199c-0.479,0.965-0.577,0.917-1.274-0.031c-0.936-1.273-2.744-1.11-3.724,0.655
		c-0.897,1.614-2.263,3.171-1.675,5.64c-2.375-1.389-4.477-2.605-6.565-3.844c-1.404-0.833-2.836-1.602-4.479-1.828
		c-0.984-0.136-1.451-0.975-2.175-1.461c0.894-0.686,0.078-2.178,1.147-2.661c0.653-0.295,0.508-0.341,0.288-0.89
		c-0.468-1.166,0.886-1.855,1-2.916c0.118-0.119,0.27-0.247,0.04-0.381C370.912,282.905,370.783,283.033,370.696,283.092z"/>
	<path fill-rule="evenodd" clip-rule="evenodd" fill="#44A8B2" d="M394.02,480.412c0.791-1.569,0.324-2.935,1.147-4.15
		c0.56-0.826-0.907-2.327-2.226-2.194c-2.905,0.293-5.838-0.906-8.722,0.216c-0.599,0.233-0.824-0.104-0.833-0.709
		c-0.008-0.555,0.228-1.012,0.422-1.495c0.587-1.45,0.985-2.595-0.336-4.205c-1.033-1.259-1.82-2.926-2.891-4.263
		c-0.917-1.146-1.482-2.213-1.045-3.688c0.111-0.375,0.014-0.826-0.319-1.132c-0.502-0.463-0.585-1.141-0.347-1.618
		c0.767-1.541-0.043-2.77-0.462-4.168c-0.519-1.733-1.208-3.144-3.071-3.583c-0.968-0.229-1.542-1.013-1.834-1.671
		c-0.619-1.394-1.506-1.243-2.531-0.828c-1.126,0.457-2.249,0.165-3.381,0.2c-2.076,0.063-4.187-1.109-6.239,0.149
		c-0.424,0.26-0.546-0.149-0.713-0.48c-0.625-1.242-1.603-1.814-3.047-1.951c-1.337-0.126-2.688-0.35-3.813-1.429
		c-0.92-0.882-2.362-0.775-3.503-0.425c-1.423,0.436-2.551-0.287-3.814-0.436c-2.023-0.239-3.703-1.319-5.607-1.782
		c-0.427-0.104-0.837-0.03-1.083,0.365c-0.285,0.456-0.595,1.382-0.759,1.353c-1.652-0.298-3.376,0.027-4.977-0.563
		c-0.302-0.112-0.554-0.589-0.9-0.368c-1.926,1.229-3.727,0.294-5.587-0.235c2.794-1.777,5.557-3.535,8.319-5.293
		c0.614-0.391,1.066-0.976,1.309-1.605c0.811-2.104,2.437-3.556,3.894-5.151c0.154-0.169,0.398-0.407,0.368-0.57
		c-0.479-2.653,2.305-3.447,3.044-5.395c0.103-0.271,0.37-0.605,0.29-0.799c-0.72-1.762,0.687-2.769,1.368-4.031
		c0.135-0.251,0.26-0.684,0.437-0.709c2.153-0.314,1.97-1.882,1.695-3.321c-0.433-2.273,1.667-3.03,2.565-4.475
		c0.92-1.48,2.104-2.837,4.216-2.888c0.927-0.022,1.584-0.859,1.879-1.854c0.473-1.592,1.487-2.724,3.046-3.362
		c1.416-0.579,2.942-0.897,4.039-2.166c0.373-0.433,1.274-0.894,1.844-0.125c0.709,0.958,1.666,0.969,2.652,0.935
		c1.117-0.039,2.112,0.28,3.177,0.604c2.105,0.639,4.387,0.614,6.504,0.156c1.345-0.292,1.753,1.069,2.829,0.94
		c1.899-0.227,1.081,1.271,1.324,2.108c0.161,0.554,0.428,1.077,0.586,1.63c0.238,0.83,0.78,1.295,1.609,1.374
		c0.852,0.08,1.169-0.646,1.554-1.202c0.249-0.36,0.255-1.1,0.807-0.967c0.655,0.158,0.595,0.899,0.596,1.465
		c0,0.404-0.17,0.821-0.116,1.212c0.121,0.869,0.767,1.36,1.562,1.361c0.763,0,0.777-0.726,0.773-1.325
		c-0.003-0.524-0.09-1.061-0.007-1.57c0.115-0.708,0.382-1.274,1.313-1.319c3.345-0.162,6.648-0.687,10.053-0.424
		c1.059,0.082,3.49,0.635,4.058-1.876c0.179-0.789,1.254-0.555,1.92-0.03c0.313,0.247,0.731,0.828,0.983,0.578
		c2.084-2.07,2.871,0.73,4.274,1.124c0.91,0.255,1.1,1.001,0.604,1.959c-1.105,2.138-0.917,2.641,1.044,3.855
		c1.197,0.741,1.709,1.449,0.536,2.854c-0.98,1.174-1.162,2.525-0.248,4.262c0.981,1.862,1.603,4.007,2.342,6.043
		c0.496,1.367,1.439,1.879,2.776,1.205c1.173-0.592,3.936-0.321,4.687,0.619c0.585,0.732,0.328,1.601-0.411,2.142
		c-1.453,1.064-1.742,2.566-1.718,4.196c0.012,0.842,0.374,1.736-0.528,2.364c1.16,1.612-0.644,3.313,0.183,4.981
		c0.72,1.453,2.102,2.077,3.307,2.901c0.485,0.332,0.787,0.717,0.508,1.064c-0.878,1.096-0.574,1.754,0.589,2.258
		c0.1,0.044,0.246,0.157,0.245,0.235c-0.034,1.938,1.081,2.206,2.753,2.247c1.379,0.034,2.681,0.128,3.982-0.437
		c0.934-0.405,1.984,0.097,2.977-0.338c0.943-0.414,1.715-0.848,1.354-2.003c-0.336-1.075,0.25-1.187,1.037-1.185
		c1.04,0.002,2.08,0.032,3.12,0.025c1.651-0.01,2.984-0.833,4.136-1.87c1.463-1.315,3.485-0.674,5.039-1.619
		c0.314-0.191,0.508,0.193,0.684,0.556c1.396,2.899,1.843,3.104,4.915,2.541c0.336-0.062,0.721-0.086,1.037,0.016
		c0.592,0.192,1.752-0.582,1.691,0.448c-0.044,0.744-0.52,1.926-1.798,2.013c-0.846,0.057-1.728,0.079-2.522,0.336
		c-4.139,1.34-4.226,1.454-5.671,5.431c-0.078,0.216-0.222,0.535-0.131,0.665c0.91,1.314-0.375,1.675-1.024,2.013
		c-2.192,1.138-4.012,2.88-6.312,3.819c-0.978,0.399-0.72,1.191-0.692,1.932c0.034,0.9-0.149,1.304-1.224,0.857
		c-2.962-1.23-5.908-0.945-8.779,0.405c-0.429,0.202-0.725,0.447-0.915,0.951c-0.422,1.118-1.06,1.974-2.465,1.137
		c-0.28-0.167-0.676-0.083-0.986,0.152c-1.82,1.387-4.013,2.093-5.957,3.261c-1.704,1.022-3.012,2.372-4.33,3.88
		c-1.699,1.944-4.123,3.18-6.403,4.473c-1.939,1.099-3.715,2.42-5.244,4.043c-0.578,0.613-1.137,1.21-1.215,2.217
		c-0.104,1.33-1.423,1.674-2.353,1.484c-0.624-0.127-0.969-1.327-1.059-2.156c-0.155-1.435-0.571-2.157-2.054-1.173
		c-0.119,0.079-0.384,0.11-0.473,0.035C396.072,478.372,395.268,479.516,394.02,480.412z"/>
	<path fill-rule="evenodd" clip-rule="evenodd" fill="#75C5C9" d="M493.118,234.416c-2.311,0.85-5.127,0.403-7.007,2.802
		c-0.938,1.197-2.431,1.799-4.084,1.562c-0.105-0.015-0.276-0.018-0.317,0.042c-0.344,0.498-0.338,1.661-1.395,0.487
		c-0.439-0.49-1.348-0.409-1.435-1.464c-0.064-0.775-2.791-1.764-3.566-1.295c-1.415,0.856-2.392,0.158-3.155-0.834
		c-0.833-1.084-1.553-1.144-2.64-0.394c-1.185,0.817-2.291,1.727-3.589,2.425c-1.986,1.069-1.738,4.303,0.281,5.937
		c0.759,0.614,0.604,3.02,0.044,3.826c-0.691,0.997-1.033,2.229-1.632,3.299c-0.46,0.823-0.662,1.985-2.143,1.728
		c-0.655-0.114-0.592,0.691-0.721,1.184c-0.615,2.346-1.44,2.65-3.493,1.346c-0.23-0.146-0.602-0.321-0.792-0.234
		c-2.536,1.16-5.503,1.645-7.109,4.308c-0.725,1.203-1.629,1.344-2.753,0.665c-0.508-0.307-1.01-0.549-1.629-0.534
		c-1.464,0.034-2.625-0.785-3.318-1.865c-0.621-0.966-1.879-1.969-0.817-3.531c0.257-0.377-0.119-1.393-0.476-1.936
		c-0.756-1.155-1.712-2.144-2.131-3.545c-0.245-0.818-2.581-0.173-3.069,0.909c-0.228,0.504-0.307,1.066-1.019,0.885
		c-0.472-0.12-0.958-0.208-0.649-1.023c1.058-2.793,0.845-5.801,1.346-8.665c0.356-2.036,0.038-3.298-0.962-5.027
		c-0.823-1.423-0.739-3.457-1.371-5.167c-0.193-0.522,0.093-1.574,0.527-1.915c2.257-1.773,2.55-4.499,3.628-6.854
		c1.25-2.73,2.25-5.511,2.81-8.464c0.598-3.153,3.245-3.878,5.784-4.519c1.308-0.33,2.517-0.706,3.569-1.545
		c0.182-0.146,0.414-0.446,0.542-0.408c2.494,0.753,3.133-1.712,4.614-2.68c1.007-0.657,1.901-1.343,3.113-1.742
		c1.231-0.405,1.519-2.034,2.281-3.081c2.169-2.983,6.675-3.774,9.575-1.452c0.555,0.444,1.146,0.744,1.747,0.419
		c1.462-0.79,3.042-0.918,4.637-1.169c2.623-0.413,3.639-1.66,3.948-4.875c0.094-0.975,0.417-1.897,0.411-2.9
		c-0.009-1.607-1.581-1.847-2.296-2.834c-1.184-1.637-1.453-3.325-1.465-5.219c-0.015-2.658,1.445-4.424,3.354-5.965
		c1.181-0.954,1.029-2.417,0.89-3.546c-0.21-1.684-0.575-3.431-1.384-4.983c-0.621-1.191-0.633-2.297,0.051-3.455
		c0.875-1.482,0.771-2.819-0.504-4.11c-0.878-0.889-0.772-1.474,0.118-2.781c1.418-2.08,3.57-3.954,3.724-6.792
		c0.065-1.213,1.883-3.211,3.055-3.565c2.178-0.657,4.389-0.854,5.967-3.203c0.756-1.124,2.031-2.291,3.047-3.47
		c0.822-0.958,1.785-1.809,0.436-3.048c-0.266-0.245-0.154-0.516,0.012-0.782c0.268-0.425,0.605-0.317,0.871-0.063
		c1.402,1.342,3.111,1.572,4.969,1.661c1.475,0.071,2.03,1.462,1.335,2.714c-0.534,0.962-1.009,1.957-1.527,2.928
		c-0.196,0.369-0.511,0.936-0.26,1.13c1.618,1.249,0.74,3.022,1.052,4.533c0.083,0.398,0.328,0.598,0.655,0.738
		c0.257,0.109,0.78,0.276,0.604,0.451c-1.38,1.379,0.802,2.573,0.15,3.9c-0.139,0.283-0.115,0.709,0.225,0.952
		c1.935,1.382,2.233,2.389,1.276,4.66c-0.418,0.994-0.048,2.445-1.577,2.83c-0.04,0.01-0.091,0.221-0.051,0.269
		c1.264,1.553-0.021,3.207,0.206,4.771c0.259,1.789,1.644,3.007,2.994,3.964c1.354,0.959,1.835,2.053,1.782,3.604
		c-0.09,2.631,0.361,5.252,0.338,7.868c-0.03,3.505,1.754,6.597,1.891,10.091c0.076,1.925,1.432,3.729,3.843,3.919
		c1.326,0.104,1.465,0.842,1.439,2.034c-0.047,2.25-1.192,4.212-1.419,6.396c-0.106,1.012-0.908,1.38-1.729,1.696
		c-1.145,0.441-1.334,1.184-0.695,2.188c0.094,0.147,0.295,0.287,0.293,0.427c-0.046,1.781-0.34,3.657,1.934,4.422
		c0.082,1.594-0.44,3.065-1.561,4.089c-1.598,1.46-2.842,3.318-5.191,3.984c-1.443,0.41-2.1,2.204-3.311,3.172
		c-0.219,0.175-0.353,0.477-0.588,0.602c-1.179,0.632-2.221,1.253-2.947,2.566c-0.678,1.225-1.779,2.333-3.309,2.796
		c-1.256,0.38-1.108,1.876-1.936,2.702C494.768,234.055,494.353,234.845,493.118,234.416z"/>
	<path fill-rule="evenodd" clip-rule="evenodd" fill="#AFD8D8" d="M143.449,273.028c-0.039-1.458,0.606-3.08-1.353-3.676
		c-0.135-0.041-0.289-0.449-0.232-0.62c0.472-1.405-0.429-2.738-0.204-4.088c0.128-0.766,0.893-1.294,1.061-2.166
		c0.141-0.729,0.304-1.554-0.121-2.005c-1.195-1.266-0.956-3.016-1.746-4.425c-0.801-1.432-0.001-2.92,0.675-4.22
		c0.5-0.96,0.867-1.816,0.666-2.942c-0.257-1.436-0.754-2.846,0.14-4.362c0.502-0.852-1.761-3.492-2.806-3.554
		c-0.574-0.034-0.843,0.32-1.029,0.767c-0.422,1.009-0.832,1.639-2.025,0.661c-0.48-0.393-1.364-0.327-2.133-0.267
		c-3.739,0.295-7.355,1.206-10.987,2.044c-1.068,0.247-2.067,0.139-3.055-0.604c0.735-0.758,1.497-1.374,2.507-1.67
		c1.449-0.424,2.03-1.801,2.899-2.824c0.43-0.506,0.773-0.755,1.407-0.744c0.806,0.014,1.593-0.009,2.403-0.259
		c1.667-0.513,2.733,0.586,3.616,1.742c1.018,1.331,2.038,1.101,2.769-0.052c0.881-1.39,1.709-1.906,3.135-0.772
		c0.267,0.213,0.761,0.141,1.261,0.216c-0.039-1.15-0.597-2.361,1.142-2.908c1.022-0.322,1.293-0.445,1.404,0.716
		c0.149,1.576,1.056,2.057,2.297,1.117c1.529-1.158,3.085-2.34,2.724-4.754c-0.123-0.821,0.098-2.155,1.854-1.576
		c0.907,0.298,2.063,0.013,3.066-0.198c1.342-0.282,2.579-0.645,4.029-0.233c1.641,0.466,2.568-0.482,2.848-2.126
		c0.141-0.829-0.183-2.167,1.403-2.118c-0.003-1.461,2.726-1.676,1.558-3.85c-0.633-1.177,0.377-2.114,1.775-2.155
		c0.956-0.028,1.26-0.88,1.456-1.529c0.185-0.612,0.533-1.138,0.702-1.697c0.664-2.189,2.187-2.468,4.149-2.313
		c1.74,0.136,3.499,0.035,5.25,0.027c2.349-0.011,4.022,0.619,5.067,3.149c0.47,1.136,0.917,3.716,3.552,2.962
		c0.428-0.123,0.806,0.3,0.964,0.958c0.33,1.382-0.18,3.534,2.433,3.279c0.099-0.01,0.313,0.234,0.323,0.373
		c0.147,1.951,2.001,2.252,3.172,3.122c0.753,0.559,1.986,0.531,2.534-0.627c0.499-1.054,1.361-1.808,2.359-1.457
		c1.735,0.61,2.37,2.213,1.833,3.626c-0.308,0.809-0.705,1.63-0.333,2.526c0.151,0.366,0.237,0.76-0.224,0.83
		c-1.827,0.275-1.1,1.73-0.819,2.403c0.365,0.875,0.457,1.88,1.092,2.671c0.648,0.808,0.861,1.725-0.246,2.358
		c-0.713,0.409-0.265,0.707-0.04,1.093c0.774,1.329,0.688,2.747-0.015,3.993c-1.045,1.854-0.41,3.573,0.424,5.094
		c0.571,1.042,0.915,1.991,0.79,3.103c-0.233,2.076-0.411,4.174-0.869,6.206c-0.286,1.267,0.278,1.248,1.133,1.247
		c4.552-0.007,9.103,0.002,13.655-0.009c0.77-0.002,1.347,0.058,1.888,0.839c1.095,1.58,2.991,0.608,4.481,1.064
		c0.658,0.202,1.721-0.02,2.02,0.543c0.516,0.971,1.059,2.281,0.783,3.208c-0.224,0.753-1.3,1.509-2.074,2.15
		c-0.522,0.432-0.715,0.84-0.738,1.424c-0.053,1.314-0.33,2.793,0.595,3.804c1.109,1.213,1.486,2.848,2.636,3.983
		c0.408,0.403,0.209,0.872,0.285,1.313c0.074,0.436-0.097,0.957,0.42,1.252c1.727,0.985,0.697,1.806-0.251,2.414
		c-2.079,1.333-3.294,3.017-2.942,5.617c0.136,1.005-0.044,1.8-1.256,2.339c-0.912,0.405-1.648,1.415-1.891,2.566
		c-0.333,1.58-1.595,2.85-1.492,4.594c0.022,0.384-0.479,0.556-0.864,0.749c-1.084,0.542-2.26,1.035-3.129,1.84
		c-1.167,1.082-2.1,0.658-2.796-0.259c-1.045-1.378-2.167-2.019-3.865-1.351c-0.55,0.217-1.144,0.195-1.703-0.071
		c-0.56-0.268-1.083-0.293-1.647,0.073c-1.036,0.672-2.063,0.997-3.114-0.092c-0.367-0.381-1.019-0.164-1.513-0.069
		c-1.292,0.25-2.265,0.554-3.348-0.968c-0.967-1.357-2.702-2.166-3.269-3.99c-0.16-0.514-0.906-1.093-1.373-0.916
		c-1.806,0.688-3.097-0.992-4.736-0.862c-0.625,0.05-0.957-0.338-1.279-0.764c-0.245-0.323-0.515-0.828-0.946-0.585
		c-1.459,0.821-2.107-0.427-2.921-1.109c-1.233-1.034-2.705-1.768-3.299-3.546c-0.347-1.038-1.603-1.04-2.551-0.363
		c-0.777,0.555-1.381,0.328-2.023-0.224c-1.603-1.376-3.303-2.58-5.436-3.019c-1.129-0.232-2.187-0.183-2.939,0.792
		c-0.353,0.458-0.639,0.266-1.044,0.198c-1.708-0.286-3.358-0.865-5.136-0.819c-1.125,0.028-1.921-0.729-1.893-1.857
		c0.033-1.336-0.541-1.732-1.753-1.76c-0.767-0.018-1.285-0.285-1.515-1.293c-0.236-1.037-1.765-1.654-2.432-1.685
		c-2.292-0.104-2.542-1.665-2.837-3.21C145.573,273.045,145.024,272.348,143.449,273.028z"/>
	<path fill-rule="evenodd" clip-rule="evenodd" fill="#AFD8D8" d="M149.388,25.247c1.092,0.186,1.573,0.723,1.94,1.428
		c0.652,1.251,1.752,1.528,2.969,1.094c0.932-0.333,1.845-0.221,2.763-0.198c1.193,0.029,2.218,0.353,2.696,1.675
		c0.274,0.76,0.871,1.367,1.522,1.884c0.397,0.315,0.678,0.42,1.204,0.07c1.579-1.052,3.269-0.458,4.753,0.166
		c1.378,0.58,2.468,1.083,3.373-0.559c0.302-0.548,0.82-0.548,1.378-0.47c0.606,0.084,0.496,0.524,0.545,0.912
		c0.028,0.228,0.08,0.63,0.171,0.645c1.922,0.31,2.158,2.28,3.32,3.321c0.739,0.662,1.347,0.4,1.886-0.358
		c0.448-0.631,0.903-1.156,1.832-0.479c0.67,0.488,1.346,0.132,1.206-0.753c-0.155-0.982,0.52-2.024-0.523-3.003
		c-0.592-0.557,0.715-1.777,1.782-1.514c0.846,0.208,1.492,0.521,1.703-0.826c0.13-0.832,1.084-1.188,1.949-1.006
		c0.896,0.188,1.887,0.365,2.596,0.879c0.658,0.477,1.047,0.227,1.54-0.014c0.761-0.372,1.321-1.18,2.434-0.391
		c0.32,0.227,1.607-0.597,2.222-1.18c0.673-0.639,1.334-0.773,2.191-0.787c1.357-0.022,2.6-0.329,2.465-2.135
		c-0.025-0.341,0.084-0.605,0.44-0.609c1.323-0.016,2.698,0.141,3.494-1.29c0.941,1.072,1.742-0.218,2.634-0.163
		c1.269,0.079,1.932-0.71,2.14-1.847c0.122-0.668,0.425-1.03,1.037-1.24c1.558-0.537,2.559-1.704,3.534-2.974
		c0.58-0.756,0.813-1.406,0.324-2.206c-0.442-0.723-0.407-1.55-0.697-2.449c2.026,0.236,3.986,0.435,5.786-0.614
		c0.434-0.252,0.828,0.067,1.139,0.229c1.106,0.576,2.23,3.408,1.869,4.668c-0.479,1.67-0.38,3.509-2.023,4.814
		c-0.726,0.577-0.316,1.637,0.863,1.862c1.48,0.283,2.975,0.509,4.439,0.858c0.915,0.218,1.88,0.467,1.018,1.851
		c-0.499,0.8-0.201,1.701,0.505,2.383c0.084,0.081,0.197,0.133,0.273,0.218c2.088,2.345,1.259,5.814-1.588,7.13
		c-0.884,0.408-2.205,0.818-1.03,2.479c0.592,0.837,0.313,2.13-0.21,3.297c-1.479,3.298-2.634,6.712-1.649,10.42
		c0.365,1.373,1.189,2.605,1.186,4.105c0,0.318,0.403,0.805,0.729,0.93c2.219,0.849,1.663,2.618,1.409,4.225
		c-0.251,1.59,0.7,5.114,1.672,5.138c1.938,0.047,2.651,1.479,3.512,2.691c1.092,1.538,2.347,2.733,4.224,3.174
		c0.566,0.133,1.115,0.366,1.687,0.445c1.301,0.18,1.723,0.946,1.714,2.178c-0.028,4.027-0.05,8.055,0.015,12.081
		c0.019,1.16-0.471,1.325-1.454,1.316c-4.202-0.04-8.404-0.017-12.606-0.017c-3,0-3.247,0.374-4.629,3.1
		c-1.373,2.705-2.354,5.543-3.5,8.327c-0.459,1.116-0.591,2.119,0.39,3.02c0.395,0.362,0.642,0.848,0.016,1.109
		c-1.093,0.455-2.085,1.061-3.113,1.626c-0.953,0.524-1.833,0.596-2.451-0.984c-0.907-2.318-2.83-3.984-5.412-4.27
		c-2.304-0.255-4.1,1.339-5.625,2.7c-1.58,1.41-2.279,3.47-1.79,5.828c0.206,0.991-0.278,2.148-0.536,3.208
		c-0.319,1.31-1.21,1.734-2.564,1.949c-1.186,0.188-1.496-0.561-1.768-1.25c-0.956-2.423-2.524-4.201-4.909-5.3
		c-0.98-0.452-1.366-1.559-2.1-2.303c-0.407-0.413,0.088-0.504,0.346-0.716c0.869-0.714,1.974-1.253,1.38-2.813
		c-0.211-0.554,0.422-1.229,0.946-1.752c0.678-0.677,0.648-1.382,0.363-2.45c-0.421-1.574-1.506-2.802-1.797-4.391
		c-0.234-1.276-1.796-1.954-1.672-3.425c0.175-2.095-0.867-3.94-1.22-5.929c-0.168-0.95-0.059-1.601,0.552-2.373
		c1.054-1.332,0.655-4.532-0.525-5.808c-0.697-0.755-0.847-1.777-1.075-2.722c-0.317-1.319-0.686-2.488-1.879-3.386
		c-0.802-0.604-1.373-1.305-0.42-2.719c1.901-2.819,0.243-5.636-3.137-5.619c-1.516,0.007-2.461-0.331-2.842-1.851
		c-0.21-0.838-0.912-0.581-1.446-0.518c-1.802,0.211-3.035-0.779-2.633-2.536c0.433-1.897-0.584-1.695-1.683-1.503
		c-1.981,0.348-3.908,1.127-5.947,0.084c-1.188-0.607-2.267-1.016-1.166-2.616c0.536-0.779,0.368-1.726-0.035-2.52
		c-0.462-0.911-0.784-2.104-1.432-2.671c-1.857-1.624-1.754-3.774-2.122-5.826c-0.07-0.394-0.083-0.839,0.028-1.217
		c0.768-2.626,0.21-4.522-2.378-5.571c-2.175-0.882-3.109-2.747-4.346-4.325C150.863,27.432,149.779,26.693,149.388,25.247z"/>
	<path fill-rule="evenodd" clip-rule="evenodd" fill="#74CCDA" d="M377.463,456.533c0.246,0.792-0.422,2.052,0.583,3.013
		c0.099,0.095,0.146,0.369,0.083,0.493c-1.457,2.882,1.383,4.21,2.379,6.12c0.586,1.124,1.125,2.47,2.287,3.338
		c0.557,0.417,0.294,1.167-0.034,1.762c-0.25,0.452-0.565,0.897-0.683,1.386c-0.522,2.145,0.17,3.011,2.362,2.793
		c2.87-0.285,5.718-0.037,8.574,0.118c0.778,0.042,0.944,0.479,0.562,1.014c-0.651,0.91-0.413,1.975-0.674,2.946
		c-0.259,0.965,0.384,1.559,1.055,2.026c0.767,0.535,1.219-0.199,1.545-0.665c0.55-0.784,0.893-0.933,1.205,0.104
		c0.181,0.604,0.46,0.771,0.966,0.292c0.26-0.246,0.672-0.518,0.9-0.171c0.64,0.973,0.884,2.136,1.538,3.155
		c0.372,0.58-0.739,1.695-1.413,2.192c-2.105,1.552-3.692,3.511-4.736,5.829c-0.785,1.744-1.949,2.203-3.7,2.149
		c-1.646-0.052-3.305,0.089-4.945,0.269c-1.153,0.127-2.167,0.393-3.04,1.497c-1.418,1.797-4.3,1.74-6.33,0.019
		c-1.745-1.479-3.666-1.423-5.734-1.197c-1.645,0.18-3.247,0.98-4.991,0.066c-1.452-0.762-2.617,0.128-3.208,1.416
		c-0.843,1.836-2.305,2.339-4.004,1.928c-2.017-0.488-3.381,0.613-4.815,1.557c-1.049,0.689-1.153,1.735-0.654,2.913
		c0.23,0.542,0.959,1.335-0.078,1.773c-0.669,0.282-1.378,0.598-2.127-0.286c-0.887-1.044-2.352-0.752-3.54-0.671
		c-2.198,0.15-4.224,0.151-6.071-1.384c-1.101-0.915-2.702-0.821-4.057-0.986c-1.605-0.194-3.167-0.289-4.651-1.023
		c-1.687-0.835-3.476-0.156-5.115,0.115c-1.402,0.23-2.429-0.303-3.031-1.034c-0.925-1.124-1.84-1.034-2.876-0.665
		c-1.973,0.705-3.841-0.556-4.543-2.521c-0.77-2.152-0.859-4.481-1.918-6.541c-0.286-0.558-0.463-0.901-1.185-1.007
		c-0.917-0.133-1.86-0.457-2.448-1.304c-0.194-0.278-0.478-0.466-0.72-0.274c-1.142,0.908-2.794,0.595-3.84,1.499
		c-1.033,0.893-1.843,0.489-2.467-0.2c-0.658-0.727-0.55-1.719,0.001-2.576c0.376-0.585,0.802-1.139,1.146-1.741
		c0.595-1.042,0.943-2.027,0.712-3.382c-0.257-1.51,0.43-3.071,1.119-4.507c0.554-1.155,1.141-2.321,0.657-3.672
		c-0.057-0.16-0.134-0.418-0.059-0.503c1.527-1.712,0.822-3.39,0.025-5.126c-0.294-0.64,0.248-1.077,0.81-1.35
		c1.903-0.926,3.168-2.137,3.071-4.559c-0.054-1.331,0.647-2.691,0.997-4.041c0.27-1.04,1.294-1.184,2.021-1.487
		c2.467-1.031,3.045-3.291,3.485-5.443c0.305-1.493,0.97-2.37,2.148-3.136c1.649-1.074,3.646-1.545,5.169-2.722
		c1.903-1.471,3.78-1.132,5.929-1.046c2.06,0.083,4.102,0.301,6.153,0.425c0.444,0.026,0.795,0.078,1.225,0.298
		c0.646,0.33,1.674,0.047,1.728-0.633c0.19-2.429,1.595-1.045,2.351-0.728c2.768,1.161,5.501,2.282,8.591,1.46
		c0.055-0.015,0.12-0.018,0.174-0.004c2.604,0.642,4.956,2.085,7.667,2.417c0.216,0.026,0.467,0.527,0.54,0.845
		c0.403,1.745,1.458,1.576,2.614,0.874c0.456-0.278,0.957-0.339,1.328-0.212c2.522,0.863,5.065,0.65,7.614,0.265
		c0.587-0.089,1.12-0.01,1.387,0.474c0.711,1.291,2.037,1.652,3.17,2.353C377.641,452.157,377.427,454.265,377.463,456.533z"/>
	<path fill-rule="evenodd" clip-rule="evenodd" fill="#AFD8D8" d="M15.544,203.247c3.991,1.807,7.921,3.508,11.778,5.364
		c2.111,1.016,4.258,1.766,6.548,2.289c7.698,1.76,15.361,3.668,23.042,5.507c1.185,0.283,2.375,0.592,3.58,0.729
		c5.052,0.575,9.083,3.503,13.302,5.881c10.468,5.899,21.293,11.028,32.36,15.677c4.451,1.87,8.88,3.792,13.323,5.682
		c1.147,0.488,1.341,0.859,0.162,1.722c-1.611,1.18-3.043,2.608-4.527,3.958c-0.878,0.798-1.766,1.468-3.055,1.06
		c-1.25-0.396-1.918,0.771-2.466,1.34c-1.364,1.415-3.191,2.226-4.471,3.809c-0.485,0.6-2.502,0.138-3.761-0.128
		c-0.815-0.172-1.396,0.133-1.593,0.614c-0.616,1.504-2.064,2.453-2.541,4.019c-0.033,0.108-0.079,0.261-0.162,0.298
		c-1.98,0.91-3.939,1.876-5.971,2.654c-0.478,0.184-0.826-0.569-0.777-1.135c0.085-0.981-0.4-1.239-1.265-1.13
		c-2.859,0.362-5.548-0.948-8.397-0.859c-0.837,0.026-1.651-0.073-2.523,0.054c-1.248,0.183-2.483,0.334-3.855-0.123
		c-2.317-0.771-4.416,0.573-6.456,1.559c-1.423,0.688-2.648,0.748-3.695-0.632c-0.201-0.264-0.599-0.652-0.801-0.598
		c-1.753,0.475-1.357-0.79-1.359-1.654c-0.005-4.493,0.02-8.985,0.034-13.478c0.002-0.582-0.093-1.216,0.385-1.652
		c1.029-0.938,1.729-1.813,0.566-3.217c-0.487-0.588,0.444-1.168,0.673-1.769c0.215-0.564,0.604-1.012,0.078-1.555
		c-0.486-0.501-1.195-0.48-1.607-0.131c-1.468,1.245-3.231,2.09-4.539,3.567c-0.834,0.942-2.03,1.559-2.89,2.483
		c-2.767,2.978-6.343,2.776-9.914,2.702c-1.341-0.028-2.684-0.002-4.026-0.005c-2.079-0.004-2.311-0.205-1.737-2.126
		c0.179-0.598,0.197-0.818-0.331-0.991c-0.962-0.316-1.269-0.907-1.27-1.95c-0.003-1.58-1.443-2.74-3.134-3.091
		c-3.365-0.699-6.723-1.344-10.417-0.907c0.527-0.977,1.043-1.569,1.727-2.116c1.505-1.203,2.257-4.22,0.271-5.611
		c-0.608-0.426-0.813-1.129-1.092-1.749c-0.413-0.913-0.715-1.822-1.907-2.039c-0.303-0.055-0.706-0.552-0.747-0.884
		c-0.172-1.399-0.852-2.309-2.163-2.835c-1.709-0.686-2.065-2.312-2.502-3.846c-0.35-1.224-0.584-2.511-1.796-3.235
		c-0.6-0.359-0.313-0.627-0.094-1.086c0.554-1.162,0.404-2.205-1.001-2.633c-1.082-0.33-1.671-1.25-2.429-1.937
		c-0.734-0.664,0.353-2.957,1.459-3.277C15.563,205.255,15.563,205.255,15.544,203.247z"/>
	<path fill-rule="evenodd" clip-rule="evenodd" fill="#75C5C9" d="M515.688,204.498c0.104-1.273,0.265-2.427,1.087-3.347
		c0.745-0.833,0.303-1.801,0.292-2.691c-0.009-0.692,1.7-1.39,0.046-2.058c-0.787-0.317-1.276-1.063-2.277-1.15
		c-1.662-0.145-3.379-1.7-3.223-3.264c0.219-2.208-0.99-3.998-1.162-6.057c-0.202-2.448-0.772-4.833-0.734-7.344
		c0.026-1.764-0.125-3.541-0.031-5.333c0.059-1.109-0.383-2.313-1.533-2.895c-1.189-0.601-1.762-1.8-2.738-2.603
		c-1.211-0.997,0.039-2.168-0.156-3.233c-0.449-2.464,1.203-4.604,1.031-6.97c-0.058-0.794,0.856-0.992,0.521-2.156
		c-0.429-1.485-1.657-2.222-2.081-3.557c-0.236-0.743-0.532-1.359-0.141-2.114c0.318-0.611,0.221-1.109-0.486-1.409
		c-0.258-0.109-0.529-0.295-0.679-0.522s-0.291-0.604-0.204-0.822c0.89-2.218-2.003-4.751,0.563-6.803
		c0.86-0.688,1.045-1.538,0.623-2.486c-0.511-1.146,0.191-1.18,0.968-1.137c3.365,0.188,6.608-0.498,9.911-1.046
		c3.178-0.528,6.553-0.244,9.503,1.313c3.011,1.589,5.784,3.627,8.961,4.923c0.926,0.378,1.094,1.485,1.964,1.918
		c3.4,1.692,5.867,4.883,9.624,5.999c0.492,0.146,0.796,0.458,1.052,0.855c1.541,2.4,3.719,4.251,5.588,6.362
		c2.023,2.284,4.749,3.87,6.701,6.27c0.386,0.473,0.964,0.572,1.556,0.69c0.846,0.169,1.709,0.364,2.411,0.945
		c0.385,0.319,1.08,0.476,0.9,1.12c-0.156,0.558-0.82,0.233-1.229,0.407c-0.266,0.113-0.559,0.244-0.835,0.237
		c-3.158-0.085-4.501,2.361-5.294,4.588c-0.998,2.806-2.262,5.301-4.271,7.441c-0.438,0.467-0.628,1.026-0.653,1.578
		c-0.091,1.972-1.372,3.24-2.553,4.581c-0.105,0.12-0.302,0.323-0.37,0.292c-2.746-1.207-2.764,1.634-3.77,2.743
		c-0.713,0.783-1.882,2.049-0.662,3.478c0.084,0.099-0.014,0.468-0.139,0.61c-1.17,1.322-1.295,2.905-1.151,4.545
		c0.07,0.807-0.562,1.079-1.005,1.511c-0.908,0.888-1,1.771,0.018,2.654c0.256,0.223,0.725,0.539,0.683,0.713
		c-0.4,1.683,0.501,2.483,1.843,3.176c0.554,0.286-0.011,0.845-0.21,1.197c-1.419,2.506-3.402,4.505-5.702,6.212
		c-0.381,0.283-0.854,0.387-1.088,0.034c-0.893-1.347-2.283-2.198-3.373-3.339c-2.294-2.405-4.874-4.921-8.764-3.978
		c-1.491,0.361-2.791,1.368-4.415,1.399c-1.591,0.031-3.044-0.827-4.692-0.596C515.247,205.477,516.03,204.697,515.688,204.498z"/>
	<path fill-rule="evenodd" clip-rule="evenodd" fill="#AFD8D8" d="M302.079,62.858c-0.942-1.726-2.211-3.292-1.118-5.556
		c0.316-0.655-0.406-1.875-0.79-2.777c-0.188-0.44-0.377-0.655,0.189-0.886c0.571-0.233,0.726,0,0.767,0.52
		c0.077,0.988,0.7,1.239,1.606,1.477c1.425,0.373,2.353,1.747,4.008,1.935c2.69,0.305,5.151-0.081,7.45-1.488
		c0.671-0.41,1.365-0.262,2.035-0.109c1.83,0.418,3.646,1.339,5.416-0.239c0.354-0.316,0.688-0.146,0.651,0.504
		c-0.082,1.425,0.694,1.941,2.057,1.408c0.324-0.127,0.656-0.421,0.97-0.262c1.063,0.537,2.405,1.249,3.268,0.442
		c2.109-1.971,5.288-3.345,5.901-6.27c0.698-3.333,2.142-6.322,3.725-9.084c2.118-3.699,3.939-7.646,6.892-10.883
		c2-2.193,4.076-4.493,3.965-7.839c-0.029-0.851,0.524-0.832,1.02-0.386c1.775,1.594,3.686,3.108,3.911,5.763
		c0.024,0.287,0.009,0.677,0.181,0.836c2.413,2.247,1.149,5.068,1.239,7.674c0.012,0.349-0.028,0.721,0.081,1.04
		c0.993,2.917,1.135,6.025,2.032,8.952c0.249,0.811,0.967,1.44,1.26,2.322c0.245,0.737,0.593,1.382,0.229,2.148
		c-0.131,0.278-0.247,0.685,0.003,0.792c2.068,0.882,1.665,3,2.201,4.577c0.352,1.034,0.605,0.955,1.401,0.673
		c2.754-0.977,2.763-0.951,4.071,1.646c0.184,0.364,0.419,0.711,0.542,1.095c0.527,1.657,1.218,2.812,3.322,3.054
		c2.998,0.346,3.257,2.564,2.956,6.067c-0.162,1.877-0.304,3.897-1.099,5.541c-0.904,1.865-1.512,4.287-4.348,4.58
		c-1.731,0.179-2.93,1.252-3.416,3.053c-0.873,3.238-2.582,5.714-6.154,6.379c-0.663,0.124-1.188,0.558-1.542,1.086
		c-0.644,0.966-1.366,1.68-2.616,1.798c-0.668,0.063-0.999,0.722-1.379,1.251c-1.782,2.481-2.857,5.414-5.171,7.576
		c-1.294,1.209-1.695,2.937-1.565,4.811c0.155,2.214-0.892,2.946-2.945,2.329c-0.325-0.098-0.824-0.312-0.98-0.173
		c-1.546,1.362-2.952-0.159-4.415-0.205c-0.403-0.013-1.161-0.679-1.121-0.95c0.303-2.028-1.673-3.234-1.721-5.11
		c-0.03-1.194-0.074-2.404-1.85-2.301c-0.741,0.043-0.988-0.709-0.879-1.251c0.433-2.154-0.591-3.646-2.277-4.583
		c-1.508-0.838-2-2.164-2.473-3.587c-0.751-2.257-2.686-4.111-2.3-6.755c0.017-0.115-0.014-0.251,0.036-0.346
		c1.622-3.08-0.91-4.294-2.671-5.76c-1.357-1.129-2.186-2.222-1.13-3.997c0.381-0.64-0.2-1.68-0.454-1.687
		c-1.73-0.046-1.688-2.183-3.178-2.52c-0.486-0.11-1.079-0.699-1.547-0.612c-1.919,0.356-3.217-1.121-4.876-1.478
		c-0.42-0.09-0.478-0.438-0.516-0.807c-0.029-0.276-0.069-0.751-0.202-0.788c-1.792-0.5-2.893-2.595-5.084-2.175
		c-1.158,0.223-2.237-0.661-3.422-0.318C302.176,62.954,302.128,62.906,302.079,62.858z"/>
	<path fill-rule="evenodd" clip-rule="evenodd" fill="#74CCDA" d="M372.957,544.203c1.108-0.949,0.952-2.02,0.765-3.153
		c-0.205-1.242-0.482-2.498,1.232-3.139c0.745-0.279,1.091-1.265,2.075-1.531c0.699-0.189,0.135-2.902-0.744-3.054
		c-1.088-0.188-2.097-0.623-3.291-0.587c-2.956,0.088-5.934-0.055-8.853-0.629c-1.423-0.279-2.139-1.654-2.7-2.672
		c-0.736-1.336-1.971-2.181-2.691-3.498c-0.527-0.964-1.605-1.682-2.457-2.348c-2.631-2.057-5.521-3.783-8.33-5.607
		c-0.269-0.174-0.678-0.193-1.019-0.182c-1.604,0.055-2.929,0.054-4.206-1.516c-1.016-1.247-3.014-1.784-4.796-1.95
		c-1.562-0.146-3.116-0.278-4.721-0.229c-2.108,0.063-4.338-0.623-6.05-2.196c-0.462-0.426-0.96-0.474-1.375,0.019
		c-0.921,1.094-1.86,1.119-3.031,0.325c-1.374-0.931-2.673,0.071-3.753,0.644c-1.05,0.556-1.792-0.131-2.674-0.064
		c-0.468,0.035-0.193-0.51-0.088-0.643c1.737-2.203,0.579-4.613,0.66-6.956c0.051-1.473,0.035-3.087,0.678-4.53
		c0.107-0.24,0.061-0.789,0.392-0.636c1.876,0.864,4.083-1.191,5.907,0.829c0.705,0.781,1.965,0.768,3.248,0.565
		c1.809-0.285,3.667-0.403,5.594,0.47c1.712,0.774,3.826,0.7,5.773,0.896c0.721,0.072,1.33,0.168,1.901,0.668
		c1.373,1.201,2.974,1.607,4.805,1.371c1.089-0.141,2.211-0.024,3.317-0.021c0.356,0.001,0.797,0.004,0.929,0.355
		c0.833,2.205,2.229,1.137,3.563,0.678c1.225-0.421,1.627-1.19,1.223-2.412c-0.323-0.974-0.94-2.241,0.091-2.83
		c0.943-0.539,1.979-1.582,3.464-0.707c1.121,0.66,3.627-0.421,4.318-1.564c1.266-2.095,2.31-2.26,4.291-0.715
		c0.38,0.297,0.928,0.393,1.313,0.158c1.32-0.807,4.403-1.592,5.74-1.44c0.987,0.112,1.456,0.931,2.104,1.468
		c2.726,2.263,6.226,1.937,8.283-0.945c0.444-0.62,0.807-0.809,1.533-0.766c2.027,0.123,3.899-0.998,5.98-0.752
		c0.911,0.106,1.619,0.106,1.523,1.277c-0.013,0.163,0.031,0.387,0.137,0.497c1.853,1.916,0.377,3.665-0.329,5.39
		c-0.735,1.796-0.809,3.379-0.501,5.42c0.311,2.063,1.479,4.261,0.619,6.512c-0.19,0.496-0.025,1.045,0.371,1.461
		c0.217,0.227,0.422,0.558,0.153,0.75c-1.08,0.771-0.64,1.892-0.892,2.851c-0.315,1.2,0.425,1.931,0.422,2.919
		c-0.008,2.982-0.723,5.805-1.471,8.661c-0.756,2.89-2.38,4.745-5.054,6.083c-3.545,1.773-6.25,4.666-8.667,7.763
		c-0.87,1.113-1.525,1.349-2.626,0.401C374.487,544.882,373.74,544.626,372.957,544.203z"/>
	<path fill-rule="evenodd" clip-rule="evenodd" fill="#75C5C9" d="M557.337,211.212c-0.143-1.386,0.689-2.051,1.773-2.686
		c1.584-0.928,2.671-2.557,4.433-3.277c0.423-0.173,0.951-0.639,1.25-0.183c0.585,0.895,1.985,0.779,2.269,1.964
		c0.125,0.519-0.342,0.524-0.6,0.694c-1.239,0.815-2.35,1.668-1.246,3.351c0.273,0.417,0.06,0.624-0.328,0.769
		c-1.088,0.405-1.326,1.632-2.191,2.274c-0.457,0.339-0.508,0.933-0.25,1.439c0.271,0.536,0.699,0.104,1.07,0.093
		c1.205-0.037,2.104,0.291,1.838,1.786c-0.247,1.38,0.711,2.041,1.635,2.695c0.914,0.646,1.791,0.983,2.744-0.083
		c0.623-0.697,1.608-0.941,2.503-1.143c1.314-0.296,2.028-1.015,1.975-2.358c-0.027-0.694,0.283-1.196,0.822-1.4
		c1.026-0.388,2.365-0.264,2.509-1.844c0.005-0.053,0.227-0.155,0.296-0.123c1.236,0.574,2.402-0.662,3.42-0.335
		c1.989,0.638,3.583-0.253,5.273-0.822c1.404-0.473,2.697-1.271,4.224-1.379c0.455-0.032,0.492-0.257,0.409-0.708
		c-0.233-1.253,0.375-1.921,1.562-2.409c1.209-0.497,2.223-1.28,3.699-0.751c0.752,0.27,1.427,0.35,1.669,1.238
		c0.07,0.258,0.32,0.647,0.517,0.666c2.885,0.268,1.507,2.328,1.543,3.718c0.146,5.517-2.556,10.299-4.042,15.397
		c-0.292,1.003-0.827,1.297-1.776,0.994c-0.605-0.194-1.283-0.267-1.808-0.591c-1.233-0.762-2.283-0.833-3.457,0.188
		c-0.604,0.527-1.489,1.042-2.314,0.116c-0.267-0.299-0.63-0.242-0.978-0.135c-1.893,0.586-3.803,0.656-5.223,2.729
		c-1.27,1.856-3.596,3.045-5.79,3.968c-1.322,0.556-2.729-0.455-4.124-0.101c-0.152,0.039-0.411-0.144-0.496-0.074
		c-1.158,0.959-1.953,0.891-3.229-0.194c-0.934-0.795-2.069-1.57-3.117-2.213c-1.5-0.92-2.594-3.203-5.028-2.233
		c-0.552,0.22-0.827-0.483-1.121-0.919c-0.288-0.425-0.618-0.97-1.229-0.781c-0.6,0.186-1.206,0.511-1.374,1.21
		c-0.426,1.778-1.535,2.941-3.226,3.516c-0.973,0.33-1.223,1.356-2.081,1.955c-0.386-0.955-0.814-1.742-0.669-2.815
		c0.208-1.54-0.344-1.942-1.866-1.55c-0.785,0.202-1.478-0.023-1.112-0.805c0.502-1.071,0.35-1.655-0.684-2.028
		c-1.197-0.433-1.477,0.577-1.897,1.315c-0.109,0.192-0.148,0.424-0.247,0.718c-0.649-2.029-1.565-2.286-3.554-2.724
		c-1.912-0.421-4.17-0.642-5.349-2.746c-0.611-1.091-2.265-1.424-3.351-0.655c-0.773,0.547-1.58,1.055-2.465,1.281
		c-0.9,0.23-1.475,0.401-1.295,1.547c0.152,0.973-0.882,0.844-1.378,0.926c-1.188,0.198-1.895,0.442-1.738,1.958
		c0.155,1.503-2.312,3-3.731,2.245c-1.621-0.861-1.93,0.055-2.213,1.25c-0.066,0.279,0.016,0.598-0.067,0.868
		c-0.304,0.997-0.298,2.14-1.812,2.356c-0.716,0.103-1.365,0.806-2,1.294c-0.601,0.462-1.195,0.494-1.743,0.031
		c-0.583-0.492-0.249-1.055,0.038-1.573c1.137-2.042,1.045-2.5-0.76-3.755c-0.144-0.1-0.38-0.177-0.415-0.307
		c-0.696-2.596-2.714-3.975-4.696-5.497c-0.405-0.312-1.778-0.039-1.383-1.248c0.254-0.779,1.398-0.856,1.59-1.529
		c0.469-1.638,2.051-0.863,3.019-1.511c1.342-0.899,1.591-2.535,2.954-3.303c2.118-1.192,1.95-3.483,2.405-5.455
		c0.097-0.422-0.102-0.984-0.455-1.059c-2.809-0.596-0.374-3.348-1.878-4.531c-0.293-0.231,0.441-0.725,0.83-0.927
		c1.416-0.737,3.068-0.858,4.43-0.38c2.17,0.763,4.041,0.285,5.902-0.606c1.811-0.866,3.974-0.752,5.513,0.558
		c0.587,0.5,1.235,0.853,1.923,1.18c0.825,0.392,1.439,0.94,1.352,2.016c-0.082,1.005,0.301,1.692,1.486,1.637
		c0.689-0.032,1.361,0.239,1.545,0.909c0.215,0.786,0.041,1.672,1.401,1.238c0.704-0.225,1.452,0.172,2.015-0.854
		c0.457-0.829,1.547-1.336,2.409-1.904c0.692-0.458,1.193,0.127,1.378,0.625c0.513,1.387,1.393,1.299,2.439,0.776
		c1.056-0.527,1.945-0.592,2.57,0.651c0.137,0.271,0.553,0.622,0.793,0.588c2.359-0.326,4.91-0.143,6.535-2.49
		C556.099,210.098,556.525,211.324,557.337,211.212z"/>
	<path fill-rule="evenodd" clip-rule="evenodd" fill="#75C5C9" d="M549.373,212.099c-0.684-2.12-0.76-2.147-2.827-1.439
		c-1.029,0.352-2.057,0.846-2.861-0.529c-0.309-0.527-0.347-0.695-0.025-1.254c0.703-1.223,1.188-2.576,1.723-3.892
		c0.176-0.431,0.296-1.158-0.111-1.29c-2.068-0.669-1.4-3.014-2.67-4.156c-0.531-0.479,0.081-0.797,0.364-1.126
		c0.733-0.855,1.379-1.519,0.868-2.978c-0.401-1.143,0.32-2.606,1.26-3.656c0.516-0.577,1.149-0.501,1.75-0.195
		c3.857,1.966,7.688,1.018,10.097-2.574c0.449-0.67,0.888-1.089,1.749-1.194c1.623-0.196,3.131-0.792,4.512-1.703
		c0.547-0.361,1.364-0.625,1.758-0.103c0.486,0.646-0.277,1.141-0.736,1.552c-1.281,1.146-2.887,2.092-2.378,4.236
		c-1.54,0.679-1.294,2.027-1.369,3.341c-0.046,0.794,0.148,0.958,0.801,0.783c1.272-0.341,2.13-0.134,2.745,1.245
		c0.422,0.943,1.328,0.474,2.122,0.084c0.661-0.325,1.463-1.829,2.21,0.032c0.21,0.52,0.54-0.088,0.772-0.229
		c1.558-0.941,1.674-0.876,2.128,0.911c0.188,0.737-0.063,1.981,0.952,2.003c0.907,0.021,1.957-0.389,2.609-1.279
		c0.735-1.003,1.853-1.883,0.871-3.346c-0.122-0.183-0.161-0.471,0.287-0.604c1.315-0.393,1.448-1.125,0.472-2.296
		c-0.354-0.425-1.08-0.812-0.461-1.42c0.554-0.541,1.273-0.945,1.98-1.279c0.317-0.15,0.41,0.283,0.42,0.583
		c0.023,0.75,0.683,1.421,1.113,1.35c2.803-0.459,5.32,1.545,8.268,0.655c1.467-0.443,3.378-0.019,4.996,0.722
		c1.576,0.722,3.208,0.46,4.816,0.009c0.211-0.06,0.432-0.085,0.678-0.132c0.361,3.164,1.334,6.11,2.26,9.063
		c0.523,1.672,0.381,3.346,0.172,5.005c-0.131,1.038-0.852,1.156-1.586,0.418c-2.131-2.142-4.051-2.208-6.776-1.212
		c-1.624,0.593-2.066,1.431-2.579,2.854c-0.535,1.483-2.433,1.27-3.667,1.935c-1.768,0.953-3.724,0.671-5.657,0.779
		c-1.395,0.078-3.566-0.575-4.33,1.674c-0.099,0.291-0.409,0.302-0.742,0.23c-1.198-0.261-1.8,0.562-1.94,1.482
		c-0.263,1.716-1.298,2.589-2.771,3.18c-0.48,0.193-0.939,0.448-1.382,0.72c-1.257,0.772-1.932,0.449-2.494-0.98
		c-0.511-1.295-0.133-2.959-1.659-3.862c-0.479-0.283-0.101-0.765,0.258-0.969c1.174-0.672,1.455-1.514,0.752-2.726
		c-0.736-1.272,0.316-1.585,1.166-1.997c0.596-0.289,1.447-0.348,1.428-1.294c-0.018-0.901-0.459-1.574-1.314-1.877
		c-1.133-0.402-2.028-1.709-3.299-1.341c-1.53,0.443-3.283,0.713-4.117,2.435c-0.207,0.427-0.547,0.762-1,0.94
		c-1.901,0.747-3.347,2.181-4.961,3.347c-1.426,1.03-3.123,0.855-4.66,1.349L549.373,212.099z"/>
	<path fill-rule="evenodd" clip-rule="evenodd" fill="#75C5C9" d="M546.779,188.844c-0.517-0.017-0.906,0.532-1.61,0.303
		c0.838-1.392,1.074-2.979,3.382-3.082c1.325-0.059,2.245-1.83,2.896-3.103c0.566-1.108,1.658-2.109,1.292-3.622
		c-0.062-0.253,0.402-0.687,0.692-0.965c1.91-1.834,2.928-4.095,3.586-6.646c0.675-2.62,3.904-4.739,6.659-4.701
		c0.114,0.001,0.29-0.042,0.336,0.016c1.345,1.693,3.215,1.393,5.034,1.405c0.563,0.003,1.014,0.5,1.44,0.919
		c0.661,0.649,1.419,1.469,2.34,1.357c2.749-0.333,5.577,0.732,8.169-0.015c2.565-0.741,4.748,0.082,7.12,0.385
		c3.032,0.388,4.228,2.526,5.331,4.868c0.672,1.425,1.048,2.948,1.403,4.479c0.827,3.557,1.443,7.18,3.192,10.457
		c0.209,0.392,0.348,0.912-0.28,0.887c-1.882-0.073-3.702,1.358-5.733-0.353c-0.914-0.77-2.916-0.63-4.441-0.278
		c-1.715,0.396-3.418,0.813-4.937-0.56c-0.153-0.138-0.468-0.257-0.635-0.194c-1.496,0.562-2.578,0.449-2.772-1.469
		c-0.021-0.194-0.426-0.499-0.651-0.499c-1.226-0.001-2.36,0.606-3.164,1.33c-0.674,0.606-1.124,1.835-0.397,2.875
		c0.229,0.327,0.248,0.366,0.047,0.76c-0.466,0.92-0.977,1.816-0.396,3.056c0.33,0.705-0.455,1.641-1.383,1.951
		c-0.252,0.084-0.588,0.112-0.709-0.444c-0.333-1.55-1.012-2.282-2.963-2.526c-1.895-0.237-3.055,0.502-4.609,1.231
		c-0.316-1.384-1.082-1.978-2.639-1.848c-1.132,0.095-1.017-0.952-0.423-1.545c0.392-0.392,0.796-0.715,0.772-1.264
		c-0.078-1.861,1.196-2.971,2.475-3.776c1.35-0.85,1.177-2.095,0.989-3.047c-0.159-0.805-1.378-0.878-2.281-0.547
		c-1.519,0.557-2.88,1.727-4.505,1.746c-2.75,0.033-3.838,2.39-5.666,3.68c-2.508,1.767-3.885,1.817-6.455,0.437
		c-1.057-0.567-0.322-0.966-0.311-1.465c0.065-0.078,0.201-0.201,0.185-0.226C547.026,188.607,546.897,188.72,546.779,188.844z"/>
	<path fill-rule="evenodd" clip-rule="evenodd" fill="#44A8B2" d="M506.538,384.639c3.439-0.393,3.723-0.998,1.801-3.91
		c-0.285-0.431-0.361-0.846-0.315-1.312c0.105-1.076,0.058-1.951-1.401-2.026c-0.894-0.045-0.645-0.896-0.515-1.382
		c0.361-1.348,2.294-2.539,3.752-2.4c0.61,0.058,1.332,0.608,1.79-0.042c0.547-0.776-0.346-1.338-0.742-2.222
		c1.543,0.747,2.515,0.238,3.529-0.783c1.04-1.047,2.405-0.231,3.517,0.065c2.34,0.624,4.142,2.312,6.177,3.548
		c1.899,1.154,3.53,1.908,2.597,4.937c-1.118,3.627-0.229,7.5,0.366,11.242c0.361,2.265-1.136,5.19-3.056,6.512
		c-2.397,1.65-3.931,3.912-4.159,6.922c-0.034,0.454-0.096,1.164-0.371,1.299c-1.829,0.903-1.48,2.883-2.234,4.302
		c-0.547,1.029-1.027,2.036-2.302,2.304c-0.163,0.034-0.458,0.108-0.457,0.153c0.103,2.031-1.622,1.884-2.782,2.576
		c-0.912,0.544-1.303,1.879-1.551,3.027c-0.138,0.635-0.392,1.199-0.645,1.789c-0.978,2.285-3.011,1.419-4.551,1.345
		c-2.027-0.099-4.025-0.776-6.039-1.195c-0.898-0.188-1.389-0.549-1.34-1.645c0.035-0.829,0.115-1.754-0.342-2.564
		c-0.082-0.144-0.021-0.453-0.113-0.493c-2.681-1.198-0.419-3.348-0.945-4.962c-0.152-0.466,0.01-1.009-0.172-1.534
		c-0.279-0.81,0.924-2.416,1.793-2.454c0.873-0.038,1.76-0.099,2.621,0.009c1.772,0.222,2.546-0.791,2.934-2.261
		c0.27-1.021,0.538-1.97,1.585-2.505c0.415-0.212,0.693-0.661,0.687-1.159c-0.034-2.385,1.45-3.837,3.037-5.335
		c1.347-1.271,1.268-5.03,0.102-6.451c-0.248-0.302-0.521-0.698-0.532-1.059C508.224,385.793,507.587,385.115,506.538,384.639z"/>
	<path fill-rule="evenodd" clip-rule="evenodd" fill="#44A8B2" d="M474.341,447.871c-0.529,0.354-0.938,0.172-1.387,0.008
		c-0.551-0.201-1.358-0.379-1.676,0.017c-1.486,1.853-2.757,0.413-3.941-0.253c-1.639-0.92-4.646-1.04-6.146,0.195
		c-0.853,0.702-1.678,0.754-2.319,0.103c-0.596-0.605-0.432-1.404,0.359-2.011c0.438-0.336,0.671-0.928,1.06-1.345
		c0.959-1.029,0.196-2.062-0.499-2.272c-1.208-0.366-2.381-1.497-3.919-0.408c-1.058,0.748-3.243-0.526-3.617-1.842
		c-0.062-0.217-0.147-0.616,0.031-0.562c1.111,0.342,1.605-0.784,2.574-0.977c3.625-0.721,7.181-1.796,10.512-3.475
		c0.741-0.374,1.417,0.339,2.189,0.084c1.63-0.539,3.443-0.232,5.016-1.261c0.706-0.461,1.979-0.094,2.372,0.577
		c0.729,1.246,1.506,0.733,2.163,0.282c3.378-2.319,7.159-3.758,10.939-5.217c1.001-0.387,2.011-0.851,0.65-2.018
		c-0.433-0.371-0.228-0.685-0.037-1.067c0.906-1.816,1.437-3.76,1.824-5.738c0.122-0.626,0.511-1.026,0.849-1.489
		c0.33-0.453,0.891-0.825,0.51-1.519c-0.055-0.097-0.071-0.214-0.105-0.322c1.57-0.115,2.141-2.074,3.297-2.214
		c1.521-0.185,1.238,1.546,1.335,2.617c0.087,0.962-0.234,2.244,0.984,2.512c1.093,0.24,2.044,1.073,3.058,1.021
		c1.931-0.1,3.688,1.502,5.72,0.409c0.616-0.331,1.193,0.497,1.677,0.962c0.194,0.187,0.115,0.478-0.075,0.621
		c-2.318,1.741-0.896,3.921-0.567,5.86c0.666,3.93,0.41,4.574-3.371,5.912c-0.875,0.31-1.777,0.581-2.689,0.745
		c-3.574,0.646-5.758,3.327-8.168,5.623c-0.856,0.816-0.615,2.031-0.203,3.134c0.458,1.221-0.575,2.957-1.807,2.815
		c-4.204-0.483-8.357,0.021-12.531,0.329c-1.807,0.133-2.018-0.372-1.141-1.988c0.193-0.355,0.374-0.726,0.498-1.11
		c0.346-1.078,0.168-1.639-1.193-1.445c-1.135,0.162-2.237,0.578-3.008,1.224C471.937,445.745,473.761,446.675,474.341,447.871z"/>
	<path fill-rule="evenodd" clip-rule="evenodd" fill="#75C5C9" d="M556.716,229.362c0.212,2.495,1.287,2.7,3.059,2.06
		c0.915-0.331,4.016,1.895,4.171,2.985c0.14,0.974,0.748,1.203,1.337,1.201c1.328-0.005,2.029,0.973,2.962,1.589
		c0.453,0.3,0.828,0.636,1.336,0.035c1.296-1.537,2.404-1.681,3.782-0.409c0.629,0.58,1.326,0.172,1.48-0.098
		c0.89-1.554,2.572-1.399,3.902-1.956c0.779-0.326,1.248-0.559,1.566-1.537c0.367-1.126,1.554-2.08,2.479-2.762
		c0.802-0.59,2.259-1.253,3.566-0.449c0.522,0.321,1.155,0.467,1.671,0.15c2.339-1.443,4.676-0.925,7.293-0.007
		c-1.695,1.79-2.133,4.215-4.091,5.915c-1.332,1.156-2.24,2.981-3.62,4.189c-3.215,2.81-4.639,7.089-8.125,9.65
		c-0.451,0.332-1.014,0.863-1.057,1.343c-0.184,2.117-1.656,1.314-2.77,1.35c-0.059,0.002-0.166,0.004-0.168-0.007
		c-0.507-3.201-4.269-2.199-5.599-4.333c-0.091-0.146-0.323-0.252-0.335-0.391c-0.23-2.509-2.608-2.303-4.071-3.252
		c-0.866-0.562-1.635-1.387-2.577-1.694c-2.071-0.675-4.066-1.48-5.972-2.523c-2.038-1.115-4.14-2.167-6.087-3.378
		c-1.215-0.756,0.488-2.293,1.053-2.504C554.262,233.648,555.541,231.894,556.716,229.362z"/>
	<path fill-rule="evenodd" clip-rule="evenodd" fill="#75C5C9" d="M553.468,239.848c1.588,0.269,2.741,1.479,4.197,2.064
		c1.079,0.433,2.098,1.09,3.299,1.349c2.127,0.456,3.541,2.302,5.56,2.956c1.968,0.638,2.188,2.897,3.784,3.884
		c0.58,0.359,1.046,0.93,1.764,1.019c1.258,0.157,2.295,0.292,2.31,2.069c0.009,0.997,1.437,0.283,2.217,0.879
		c-1.126,0.539-2.183,1.02-3.219,1.543c-3.595,1.818-5.7,5.012-7.774,8.282c-1.139,1.798-2.101,3.729-3.583,5.306
		c-0.481,0.511-1.033,0.675-1.708,0.708c-2.287,0.108-4.357-0.384-6.039-2.041c-0.12-0.118-0.305-0.29-0.287-0.412
		c0.455-3.058-2.189-4.52-3.467-6.672c-0.477-0.802-0.727-1.571-0.107-2.205c0.468-0.479,1.159-0.336,1.855,0.107
		c1.329,0.847,2.355-0.483,3.522-0.798c0.868-0.234,0.416-1.039,0.361-1.648c-0.085-0.954,0.485-1.928-0.099-2.885
		c-0.066-0.108,0.146-0.411,0.264-0.603c0.326-0.537,1.613-0.273,1.12-1.535c-0.747-1.912-0.276-4.449-2.722-5.447
		c-0.711-0.29-0.863-0.604-0.795-1.262c0.034-0.333,0.072-0.825-0.117-0.994c-0.764-0.682-1.053-1.296-0.262-2.177
		C553.9,240.937,553.05,240.55,553.468,239.848z"/>
	<path fill-rule="evenodd" clip-rule="evenodd" fill="#5FA0A0" d="M399.129,340.208c-0.727-2.398,0.82-4.455,0.699-6.716
		c-0.044-0.812,0.378-0.954,1.067-0.949c2.905,0.021,5.817-0.104,8.714,0.049c1.891,0.1,3.149,1.852,2.188,3.953
		c-0.394,0.862-1.048,1.65-0.481,2.756c0.313,0.612-0.177,0.914-0.833,0.912C406.655,340.203,402.826,340.208,399.129,340.208z"/>
	<path fill-rule="evenodd" clip-rule="evenodd" fill="#44A8B2" d="M451.454,451.126c-0.388-2.123,1.45-4.144,3.386-3.936
		c0.199,0.021,0.427,0.176,0.558,0.336c0.252,0.307-0.001,0.567-0.224,0.719c-0.326,0.225-0.731,0.557-1.06,0.514
		C452.363,448.534,451.548,449.36,451.454,451.126z"/>
	<path fill-rule="evenodd" clip-rule="evenodd" fill="#999999" d="M367.984,286.687c0.041-0.259,0.081-0.519,0.122-0.777
		c0.044,0.031,0.117,0.055,0.129,0.097c0.08,0.286,0.045,0.534-0.264,0.67C367.971,286.676,367.984,286.687,367.984,286.687z"/>
	<path fill-rule="evenodd" clip-rule="evenodd" fill="#999999" d="M302.224,63.002c-0.095,0.151-0.2,0.277-0.351,0.065
		c-0.009-0.014,0.135-0.136,0.207-0.209C302.128,62.906,302.176,62.954,302.224,63.002z"/>
	<path fill-rule="evenodd" clip-rule="evenodd" fill="#75C5C9" d="M549.354,212.081c-0.045,0.06-0.09,0.12-0.135,0.18
		c0.004-0.037-0.008-0.091,0.012-0.107c0.038-0.03,0.094-0.038,0.142-0.055L549.354,212.081z"/>
	<path fill-rule="evenodd" clip-rule="evenodd" fill="#74CCDA" d="M372.584,547.854c0.066,0.073,0.203,0.194,0.189,0.214
		c-0.135,0.2-0.254,0.088-0.364-0.043C372.467,547.969,372.526,547.911,372.584,547.854z"/>
	<path fill-rule="evenodd" clip-rule="evenodd" fill="#FEFEFE" d="M370.696,283.092c0.087-0.059,0.216-0.187,0.256-0.164
		c0.23,0.135,0.079,0.262-0.04,0.381C370.84,283.238,370.767,283.166,370.696,283.092z"/>
	<path fill-rule="evenodd" clip-rule="evenodd" fill="#75C5C9" d="M546.779,188.844c0.118-0.124,0.247-0.236,0.379-0.033
		c0.017,0.025-0.119,0.148-0.185,0.226C546.907,188.975,546.843,188.91,546.779,188.844z"/>
</g>
</svg>
